/* XPM */
static char *_cac50558ab74c5edd979bbdd8099cf4F2aoUmD24QEeP0Pe[] = {
/* columns rows colors chars-per-pixel */
"50 50 204 2 ",
"   c #020818",
".  c #040A1A",
"X  c #040B1A",
"o  c #030919",
"O  c #030B1A",
"+  c #030B1B",
"@  c #020919",
"#  c #030819",
"$  c #030A1A",
"%  c #040C1B",
"&  c #020A1A",
"*  c #030818",
"=  c #030617",
"-  c #030718",
";  c #040A1C",
":  c #040A1D",
">  c #02071A",
",  c #03081B",
"<  c #030A1C",
"1  c #050B1E",
"2  c #05091D",
"3  c #020619",
"4  c #03071A",
"5  c #03081A",
"6  c #030A19",
"7  c #020918",
"8  c #040B1B",
"9  c #020717",
"0  c #020616",
"q  c #020B1A",
"w  c #020817",
"e  c #020718",
"r  c #020617",
"t  c #040719",
"y  c #050B1D",
"u  c #040B1D",
"i  c #04091C",
"p  c #020719",
"a  c #010719",
"s  c #030719",
"d  c #020A19",
"f  c #030918",
"g  c #030717",
"h  c #020B1B",
"j  c #040819",
"k  c #040A1B",
"l  c #03091C",
"z  c #050C1E",
"x  c #03071B",
"c  c #02091B",
"v  c #02081B",
"b  c #03091A",
"n  c #040C1C",
"m  c #030C1C",
"M  c #040919",
"N  c #03091B",
"B  c #02061A",
"V  c #030B1D",
"C  c #030C1E",
"Z  c #050E1F",
"A  c #060E1D",
"S  c #050D1C",
"D  c #060D1D",
"F  c #050C1D",
"G  c #030B1C",
"H  c #040818",
"J  c #04071A",
"K  c #030619",
"L  c #020A1C",
"P  c #030C1D",
"I  c #041021",
"U  c #061222",
"Y  c #060F1E",
"T  c #050C1B",
"R  c #02081A",
"E  c #04081B",
"W  c #030D1D",
"Q  c #020F1F",
"!  c #031020",
"~  c #04101F",
"^  c #04091A",
"/  c #030518",
"(  c #04091B",
")  c #040B1C",
"_  c #040D1D",
"`  c #030E1D",
"'  c #020D1C",
"]  c #020516",
"[  c #04071B",
"{  c #050B1B",
"}  c #060C1C",
"|  c #060D1C",
" . c #030C1B",
".. c #050C1C",
"X. c #070E1E",
"o. c #060F1F",
"O. c #070E1F",
"+. c #020819",
"@. c #040718",
"#. c #050E1E",
"$. c #05091C",
"%. c #06091C",
"&. c #05081B",
"*. c #050A1D",
"=. c #040A19",
"-. c #040D1C",
";. c #040E1D",
":. c #020C1C",
">. c #010818",
",. c #050819",
"<. c #061020",
"1. c #091423",
"2. c #081322",
"3. c #020C1B",
"4. c #040C1D",
"5. c #030A1B",
"6. c #050919",
"7. c #071323",
"8. c #0A1727",
"9. c #081423",
"0. c #060E20",
"q. c #020A1B",
"w. c #040C1E",
"e. c #040E1F",
"r. c #020C1D",
"t. c #020B1C",
"y. c #030616",
"u. c #050719",
"i. c #040617",
"p. c #030517",
"a. c #030618",
"s. c #040618",
"d. c #030E1E",
"f. c #040619",
"g. c #05091A",
"h. c #040D1E",
"j. c #061323",
"k. c #030E1F",
"l. c #050518",
"z. c #010717",
"x. c #020D1D",
"c. c #061223",
"v. c #041121",
"b. c #030D1E",
"n. c #05061A",
"m. c #060519",
"M. c #050A1A",
"N. c #020515",
"B. c #050F1E",
"V. c #05081A",
"C. c #02091A",
"Z. c #030817",
"A. c #020716",
"S. c #030D1C",
"D. c #071121",
"F. c #050E1D",
"G. c #070F1F",
"H. c #071020",
"J. c #010918",
"K. c #030C1A",
"L. c #030816",
"P. c #030917",
"I. c #030D1B",
"U. c #030E1A",
"Y. c #030E1B",
"T. c #030F1B",
"R. c #030E1C",
"E. c #020D1A",
"W. c #030F1C",
"Q. c #05101E",
"!. c #050D1D",
"~. c #030A18",
"^. c #030C19",
"/. c #071220",
"(. c #0E1B28",
"). c #0E1927",
"_. c #050D1E",
"`. c #040B19",
"'. c #050E1C",
"]. c #0E1B29",
"[. c #162532",
"{. c #101C29",
"}. c #070E1D",
"|. c #040E1C",
" X c #091523",
".X c #0C1826",
"XX c #07121F",
"oX c #020917",
"OX c #05091B",
"+X c #020514",
"@X c #010716",
"#X c #04081A",
"$X c #030516",
"%X c #050B1C",
"&X c #050A1C",
"*X c #040517",
"=X c #0B1224",
"-X c #0A1023",
";X c #040B1E",
":X c #050718",
">X c #060E1F",
",X c #0A1224",
"<X c #090F22",
"1X c #060D1F",
/* pixels */
"    . X o O + O @ # $ $ X % + & & @ o * = - ; : > , < < : 1 2 , > > 3 3 4 5 o 6 7   6 O . . o o o 8 ",
"      9 0 o O $ @ * @ 7 6 % + q &   w e r t y 1 < ; u u ; ; i , > p > a p s o d 6 f . % $ 6 6 o @ $ ",
"= g     * 6 o     f 6 6 d & + h & f f o j j k < < l : z u 5 4 x > 5 < c v b . O X . $ 8 f   6 @ @ 7 ",
"r 9 o $ 6 6   0   o 6 O $ $ n m $ $ . . M j 5 v N N l ; ; 4 4 4 B , < V C Z A X X . # o o   6 @ @ 7 ",
"* * 6 $ @ 7 w g * o $ % S D F G & o o j H j s p N u ; , v 4 J K 3 5 L P I U Y O 6 * r   @ @ 6 d d 6 ",
"$ 6 d @ 7 7   9 o . o . T % O & d o   - # # 4 R c l N R v 5 J J E ; W Q ! ~ + * * 9 0 9     6 d d O ",
"$ 6     o 6 o @ & $ o 7 6 @   d d @ o . ^ s s R R > 4 4 > 3 / K ( ) _ ` ' q @ e 9 9 ] 9 @ # o o o O ",
". . *   # o o d & + $ @ $ o f @ o   * . X ^ s 4 , , J [ 4 K = = e $ O $ 7 @ 7     e 9 o T { j j o k ",
"{ T 6     7 7 7 & + + + + o 6 @ o . j f 6 # s 4 , , E [ [ , o     7 $ . . 6         7 X D } j * M $ ",
"| 8 #   7 o d & + m %  .+ $ o o ..X...6 7   K 4 4 4 4 x [ N $ $ d @ d X S 8 @   7 @ $ X 8 { M - o $ ",
"S O o   7 7 d G Z o._ O o $ + 8 X.O.{ 7   # 4 E E 4 K E i ( $ d 7 +.d d X $       @ $ $ $ . @.g o o ",
"+  . .O $ 7 @ n Z #.n +   o O X S S o 9 9 - 5 $.%.J J &.*.y $ @ e   6 O X 6 7 7 @ 7     7 f @.* =.. ",
" .-.;.` :.O & L G O & & 6 $ X o $ X d 7   e 5 i *.E 4 4 i *.) $   e o T ..$ 7 >.>.      @ M ,.^ . . ",
"<.1.2.;.3.h h V 4.-.6 w $ n % O $ O d 7 7 b 5 E i 4 K K , l 5.@ 9 e 6 X O d 7     7 6 6 O . 6.M o b ",
"7.8.9.-.3. .5.< 0.<.m $ q.5.$ 6 6 d 7   @ $ o # o +.p # 5.b # e - j . $ o *   @ $ . o $ % X o o $ $ ",
"~ ~ ;. .3.O 5 5 w.e.P r.L >   @ 6 d @ @ 7 7 @ @ @ @ @ 6 O . @.g g - j # j -     b b +.@ O $ 7 @ O O ",
" .O O O O O b , t.r.t.t.c , b d O 8 O d 7   - - - *   7 6 . ^ j = ] ] g @.g 9   e   @ d d 6 6 6 O % ",
"j # * M M . N L r.:.h N N i b   f X O O 6 6 #           @ o o j - = = @.@.y.0   @   @ d d O 8 O % % ",
"u.i.p.i.i.a.5 t.P W W < E &.5 r 9 7 6 O $ d $ @   @ @     o M @.= = @.t @.y.0   @ @     o O O O O % ",
",.s.= i.s.@.b G e.I d.L J f.- 9 r   $ % O 6 6 o   o o     # g.@.] = @.,.,.H # #   9 9   o 6 d f * * ",
"o # - # ^ 8 m h.U j.k.c f.l.t o 9 # O $ O O @ 7 6 @     @ # g.@.] = @.,.g.M b $ o e   $ $ $ $ o e z.",
"o     @ 6 $ x.I c.v.b.l n.m.j O o f 7     $   f X o 9   d o g.@.] g 6.M.6.H * o o   o O O O O O d 7 ",
"9 N.r     @ $ _ B._ G u $.V.o O O f     o @ o . 8 o e o @   o o * * =.. M # - - - - * o * $ n ) 5.C.",
"- 0 9 * o o * # $ $ $ 5.5.$ O % % O d $ $   6 % % $ $ $ 7 7 @ d d 7 7     o * * - * o # = s ; u l R ",
"$ $ X X X o 9 9 e o f w 9 o O O O O d @   9 o X X $ % O @ 6 O d 7     9 e o d     d $ d * # N N N < ",
"O % 8 X 8 #   6 . o Z.A.A.  6 d d d   9 e   o 8 O @ @ @ @ % % 6       9   d O d O _ S.q d 8 y ; l l ",
"$ 6 f   8 8 8 % 6 * * f 6 6 o @ @   9 9 - o $ 8 8 + $     O 8 @ o $ @   7 O  .-.o.D.B.O d + z z < R ",
"    7 @ 6 X % O     7 6 $ $ $ $ o 9 9 9 9 o $ o o $ $ 7   o 6 6 O 8 $   * 6 8 F.G.H.A X @ C.< < N v ",
"9   @ d d 6 6 @ @     o o * o O 6   7     6 O 7 9   7 7   9   7 6 6 $ X ^ - * . T ....{ o +.R R v v ",
"9 9   d d d 7   @ $ 6 6 o * o 8 O 6 % % 6 X X 7 e     J.w 0 9 7 @   o . . * - o M M M M M # R > , l ",
"  9 f $ 6 @ w w d K.K.K.@     # f 6 . . X S 8 *   @ o 7 9 = - H * - g g * M ^ . o o o # o 5.l > , N ",
"6 6 X % $ 7 L.P.K.I.U.Y.$ 9 0 9   $ @ e $ % $ #   @ o   r - - - j H H j # o G 5.  6 + + + G < 5 N N ",
"@ 6 O O @ 9 Z.=.I.Y.T.R.O   w @ @ o   9 e # 6 X 6 @ @ 7       o . M o o # +.+ + $ + + q q 5.< , : u ",
"@ 7 $ O   0 Z.O K.E.W.Q.% o @ @ o $ o = = 9 o 8 $ o $ % % O $ $ $ o - g 9   O !.#.n & d d + ) i ; ; ",
"$ o . % 6   * ~.^./.(.).A o o @ $ ..8 M # e o $   o X ..S 8 6 X O 7 - r r   + _ _. .q q O n ) , N ; ",
"O 8 X X $ 7 o `.'.].[.{.}.. =.@ O ..% $ o 7 6 O o 6 O $ $ $ $ + ) + o # o $ O + + + + q q + v > N y ",
"6 6 6 d @ @ o X |. X.XXXX M o   6 8 % 6 o 6 $ $ O O O @   d d & + _ + $  .+ $ @ & n m q q 5.c v , ; ",
"*   7   7 6 * oXd K.K.|.% . * 9 @ $ % % X X 6 o $ 6 o $ $ @ d d O + $ @ & & @ 7 & m  .O + + N R 4 ( ",
"6 o @ @ @ @ w w 6 X 8 n n 8 =.o 6 O % % $ o * H . ^ * M g.# o O % $ $ $ $ 8 5.@   $ % % + $ # r - OX",
"$ . X @ 7 o @   d O $ $ $ o o   o X X d 7 9 H @.g.. j @.@.=   o 8 . $ O % % $ 9 0   $ % O M @.= = @.",
"  M .     $ O d d d 7   @         6 X O 7 9 H ,.6.M H @.= = 9 e o o   @ 6 6   0 +X@X  d $ o j #X- = ",
"  * o     X % O O % 6 e o *   6 6 $ 8 O   9 j j ,.j = = = - o   * o     9 9   0 N.9       - @.j j j ",
"e 9 o 6 6 $ 8 % % 8 o - o f g * o X % $   - #Xj @.@.= = @.j o * * $ $ 7 0 0 g g * o     * - = @.j j ",
"9 9 . % 8 $ O O O o $ . . 7 e 9   O % $   * j @.= @.- @.@.j o   M T % O   r 9 o $ b b 6 6 o @.j 6.6.",
"    o % T X 6 d @   $ ..8 7       d $ * 9 g - @.= @.= @.@.- o 6 X % S S X 6 o 6 $ $ + O 6 # ,.g.M.g.",
"  @ o O O o 7 @   9 9 o o   7     @ @   9 r r - - @.- @.j - w o 6 O % S % % X o 7 d $ $ * g @.,.g.j ",
"6 $ O O 7   * $ . g $X= t @.- - 9   6 7   o %X&X5 5 , ( ( s r r 7 $ O O @ f M =.o * o o j @.- o . . ",
"% O X . o =.X . o g = p.*Xi.i.= r 9       ..=X-Xi l : ;X;X5 e 9   7       9 - M.^ H M M.g.M o $ X X ",
"% $ 7 o X % ..$ e g - i.i.i.:Xj # * o o $ >X,X<Xu l l : ; C.@ o   9 9     9 - ,.g.M M M.g.M O O 6 6 ",
"$ o   w o $ O 6   r y.a.t @.@.j . . X n n Z 1Xz u 5.R > 4 N O O f * o o   9 - 6.M.M g - @.M O O O O "
};
