/* XPM */
static char *eac972efb8524bceb0f0045af85b3fadcWJMIkfdrBMKP60c[] = {
/* columns rows colors chars-per-pixel */
"50 50 170 2 ",
"   c #020617",
".  c #020817",
"X  c #030719",
"o  c #030A1A",
"O  c #090F1B",
"+  c #05101F",
"@  c #0C131D",
"#  c #060E20",
"$  c #061121",
"%  c #0A1523",
"&  c #0D1925",
"*  c #0A1728",
"=  c #0D1C2B",
"-  c #0B1D33",
";  c #0E202F",
":  c #12222F",
">  c #0B2135",
",  c #07233F",
"<  c #0D2439",
"1  c #122435",
"2  c #112638",
"3  c #12293C",
"4  c #062441",
"5  c #0F2C41",
"6  c #112C43",
"7  c #123147",
"8  c #13344B",
"9  c #18364B",
"0  c #1B3A4C",
"q  c #163550",
"w  c #153B55",
"e  c #1B3C52",
"r  c #153E5A",
"t  c #1B3E5A",
"y  c #203E52",
"u  c #1D4256",
"i  c #14405F",
"p  c #1A415A",
"a  c #244156",
"s  c #124365",
"d  c #184461",
"f  c #1D4867",
"g  c #14456A",
"h  c #17496B",
"j  c #164C71",
"k  c #19547C",
"l  c #1B587C",
"z  c #214A65",
"x  c #204B6B",
"c  c #25526A",
"v  c #215273",
"b  c #295C7E",
"n  c #195A85",
"m  c #175C88",
"M  c #145F92",
"N  c #1C5F91",
"B  c #235D85",
"V  c #285F83",
"C  c #1A618F",
"Z  c #176394",
"A  c #1B6393",
"S  c #17669C",
"D  c #1A6699",
"F  c #1B699D",
"G  c #286289",
"H  c #2E688F",
"J  c #2B6790",
"K  c #2F6C94",
"L  c #336F97",
"P  c #34739E",
"I  c #1D6DA3",
"U  c #1E6FA8",
"Y  c #1D70A5",
"T  c #1E72AA",
"R  c #206EA4",
"E  c #2171A6",
"W  c #2C72A2",
"Q  c #2174AD",
"!  c #2876AC",
"~  c #2678AF",
"^  c #3376A3",
"/  c #2176B1",
"(  c #227AB5",
")  c #297BB3",
"_  c #247DBA",
"`  c #297EBA",
"'  c #267FC0",
"]  c #2F80B7",
"[  c #2581BE",
"{  c #2D82BC",
"}  c #3682B4",
"|  c #3A82B4",
" . c #3286BF",
".. c #3285BE",
"X. c #3C89BE",
"o. c #458CBB",
"O. c #448FBF",
"+. c #2581C0",
"@. c #2682C0",
"#. c #2682C1",
"$. c #2683C2",
"%. c #2684C3",
"&. c #2783C7",
"*. c #2785C5",
"=. c #2685C4",
"-. c #2786C6",
";. c #2786C7",
":. c #2785C6",
">. c #2684C3",
",. c #2985C4",
"<. c #2787C8",
"1. c #2787C8",
"2. c #2887C9",
"3. c #2885C8",
"4. c #2887C9",
"5. c #2788C9",
"6. c #2888C9",
"7. c #2889CA",
"8. c #288ACC",
"9. c #3387C0",
"0. c #3086C0",
"q. c #3287C0",
"w. c #3489C3",
"e. c #3688C1",
"r. c #3489C4",
"t. c #348AC5",
"y. c #3A8CC3",
"u. c #3E8CC1",
"i. c #3A8AC4",
"p. c #3B8EC7",
"a. c #398AC1",
"s. c #338ECC",
"d. c #3B8FC8",
"f. c #3D90C9",
"g. c #3E92CB",
"h. c #3D92CB",
"j. c #2A8DD1",
"k. c #308ED4",
"l. c #2E91D3",
"z. c #3392D4",
"x. c #3B96D3",
"c. c #3B98D7",
"v. c #3997D8",
"b. c #3C99D9",
"n. c #4090C7",
"m. c #4495CB",
"M. c #4293CC",
"N. c #4395CF",
"B. c #4497CF",
"V. c #4094CE",
"C. c #4396D1",
"Z. c #4598D1",
"A. c #4699D1",
"S. c #479AD3",
"D. c #4798D2",
"F. c #449AD5",
"G. c #4A9CD4",
"H. c #449EDD",
"J. c #489FDC",
"K. c #4DA0D7",
"L. c #46A1DE",
"P. c #4BA1DC",
"I. c #4DA5E2",
"U. c #51A6E2",
"Y. c #55ABE5",
"T. c #5AADE7",
"R. c #5AAEE8",
"E. c #5EB1EA",
"W. c #64B6ED",
"Q. c #67B8EF",
/* pixels */
". . o o . . . . . . . . O O o . . . . .   X o o X . o o o o o . X X X X X . . . . . . . o o . . . o ",
". . .     . . . . . . . . O o . . . . .   o 1 e u 3 % o o o o . X X X . X X . . . . o O . . . . . . ",
"    . . . . . . . . . . . . o o . . o % q G } G.K.M.W f < O X X X . o . o . o . o o . o . . . . . . ",
"    . . . . .   . . . . . . O o . $ > z } Z.B.] ) i.Z.X.J 6 * o X . o o o # O o o o . . . . . . . . ",
". . . . . . . . . . . O O O O o = e J n.Z...Q Q Q E ] N.Z.^ x < # . o o $ $ O . . .   . . . . . . . ",
". . . . . . . . . . . o O O + > b | Z.d.( Q / / / / / / 9.S.f.K t * O o $ + . . . X     . . . . . o ",
". . . . . . . . . . . . O > B o.d.{ ( ( ( ( ( ( _ ( ( ( ( ( { f.B.P r * o . . X X X     . . . . . o ",
"o o . . . . . . . . . * t L p.e.` ( _ _ _ _ _ _ _ _ _ _ _ _ ( _ 9.g.n.v 2 O . . . X X . O o o o . o ",
"o O . . . . . . . O 7 V } e.{ ( _ _ _ _ [ [ #.[ [ [ [ _ [ _ _ _ ( ` t.u.P d = . . . . o O O o . o . ",
"O o . . . . . O : v a.] ( ( _ _ [ [ #.#.#.#.%.%.#.#.%.#.#.#.[ [ _ _ _ ( 9.Z.} 9 $ . . o o o o X . . ",
"O . . . . . O p E ] / / ( _ [ [ #.#.#.%.*.*.*.>.*.*.*.*.*.%.#.#.#.[ _ ( ( ( 9.y.B 3 . . . o X   . . ",
"o o o . . = j R Q Q / ( _ _ [ #.#.*.*.*.1.7.7.7.7.7.2.2.1.*.*.%.#.#.[ _ ( / / ] ..W 7 O . . X . o o ",
"o O o O r A U E Q / ( _ [ [ #.*.*.2.7.7.8.8.8.8.8.8.8.8.7.7.7.*.*.%.#.[ _ _ ( / Q ~ ! n = o o o o o ",
"$ % % % Z I E Q / ( _ [ [ #.*.*.7.7.8.8.8.8.8.8.8.8.8.8.8.8.7.7.2.*.%.#.[ _ ( ( / Q E I p o o o . . ",
"% * % = F U E Q ( _ _ [ #.>.*.1.7.8.8.8.8.8.j.8.8.8.8.8.8.8.8.8.7.5.*.#.#.[ _ ( / Q E I l O . . . . ",
"$ $ O > I E ] ( ( _ [ #.*.*.2.8.8.8.8.j.j.j.j.j.j.j.j.j.j.8.8.8.8.7.7.*.%.#._ _ ( / Q Q Z + . . o . ",
"o . . > I E e.g.t.@.#.*.*.7.8.8.8.8.j.j.j.j.j.j.j.j.j.j.j.j.8.8.8.8.7.1.*.#.#._ _ 9.f.) S @ . . . O ",
"o . . > U Q ` N.K.J.s.4.1.7.8.8.8.j.j.j.j.j.j.j.j.j.j.j.j.j.j.j.8.8.8.7.*.*.#.t.C.Z.9.Q I % O . O O ",
"X X   - U Q ( { h.P.U.F.s.8.8.8.j.j.j.j.j.j.j.j.j.j.j.j.j.j.j.j.j.8.8.7.1.6.x.P.S.t.( Q I & . . . O ",
"o X   < E / / _ [ 4.F.R.E.L.8.j.j.j.j.j.j.j.j.j.j.j.j.j.j.j.j.j.j.8.8.8.c.Y.Y.s.[ _ ( Q I = . . . . ",
". . X 6 Q / ( _ #.#.4.z.U.W.T.b.j.j.j.j.j.j.j.j.j.j.j.j.j.j.j.j.j.j.j.U.W.U.s.#.[ _ ( / I > . . X X ",
". . . 5 Q / ( [ #.*.7.2.8.c.T.W.T.L.v.j.j.j.j.j.j.j.j.j.j.j.j.l.b.I.E.I.x.7.*.#.#._ ( / U > . . . . ",
"      5 Q ( _ [ #.*.7.8.8.8.z.I.W.W.R.L.v.z.j.j.j.j.j.j.j.z.v.L.R.E.I.z.8.2.1.#.#._ ( / T > O o o . ",
"X     6 Q ( _ [ #.*.7.8.8.8.j.j.L.E.W.W.T.L.b.z.k.l.z.z.b.I.R.W.E.H.j.8.8.7.1.%.#._ ( / T , o o o . ",
". . o 9 / ( _ [ #.*.7.8.8.8.j.j.l.b.T.W.Q.W.E.I.H.H.L.U.R.W.W.E.L.j.j.8.8.7.1.%.#.[ _ / T 4 . . o o ",
". O o a / ( _ [ #.*.7.8.8.8.j.j.j.j.z.L.W.Q.Q.Q.Q.W.Q.Q.Q.W.I.z.j.j.j.8.8.7.2.%.#._ ( / T 4 o o o o ",
". . . y Q ( _ [ #.*.7.8.8.8.j.j.j.j.j.z.U.W.Q.Q.Q.Q.Q.Q.W.I.z.j.j.j.j.8.8.7.1.%.#._ ( / T 4 O O o . ",
". . . 0 Q ( _ [ #.*.7.7.8.8.j.j.j.j.j.j.z.Y.W.Q.Q.Q.Q.W.R.z.j.j.j.j.j.8.8.7.*.%.#._ ( / U 4 o o o o ",
"  . . 0 Q ( _ [ #.%.2.7.8.8.j.j.j.j.j.j.j.b.E.Q.Q.Q.Q.E.L.j.j.j.j.j.j.8.8.7.*.#.[ _ ( / T 4 . . o o ",
"    . 0 Q / ( _ ' #.*.7.8.8.j.j.j.j.j.j.j.j.L.Q.Q.Q.Q.Y.j.j.j.j.j.j.8.8.7.2.*.#.[ _ ( / T , . X o o ",
".   . 0 Q / ( _ [ #.*.7.7.8.8.j.j.j.j.j.j.j.b.Q.Q.Q.W.L.j.j.j.j.j.j.8.8.7.*.*.#.[ _ ( Q U > o X o o ",
". . o 0 E Q ( _ [ #.%.*.7.8.8.j.j.j.j.j.j.j.j.W.Q.Q.R.z.j.j.j.j.j.8.8.7.7.*.#.[ _ ( / Q I > o . o o ",
". . . 0 E Q / _ _ [ #.*.2.7.8.8.j.j.j.j.j.j.j.R.Q.Q.T.z.j.j.j.j.8.8.8.7.*.*.#.[ _ ( Q E I > o . o o ",
". . . 0 R E / ( _ [ #.*.*.2.7.8.8.j.j.j.j.j.j.I.Q.Q.Y.j.j.j.j.8.8.8.7.1.*.%.#._ ( ( Q E I > o o o o ",
". . o 9 U E Q / ( _ #.#.*.1.7.8.8.8.8.j.j.j.j.H.Q.Q.I.j.j.j.8.8.8.7.7.*.%.#.[ _ ( / E E I ; o . . o ",
"o o o 6 I R E Q ( _ _ #.#.*.1.7.7.8.8.8.8.j.j.c.Q.Q.J.8.8.8.8.8.7.5.*.%.#.[ _ ( / Q E U S & . X . o ",
". . . < I U E Q / ( _ [ #.#.>.*.7.7.8.8.8.8.8.z.Q.Q.H.8.8.8.7.7.7.*.*.#.[ _ _ ( Q E E I M & o o o o ",
". . . % n I U E Q ( ( _ [ #.#.*.*.2.7.7.8.8.8.8.Q.Q.F.8.7.7.7.2.*.%.#.[ _ _ ( / Q E I Z r O o . X o ",
". . . . % s Z T Q Q / ( _ _ [ #.#.*.*.*.7.7.7.7.E.Q.c.7.2.*.*.%.#.#.[ _ _ ( / Q E F h : O . . X X o ",
". o o . . o 3 m I Q / ( ( _ [ [ #.#.#.*.*.*.*.*.R.Q.z.*.*.%.#.#.#.[ _ _ / / Q T C w O O . o X     X ",
". o o . . . . % w C T / ( ( _ _ [ #.#.#.#.%.%.*.U.Q.s.%.#.#.#.[ _ _ _ ( / Q U h = . . . . . o o X   ",
". . . . . o O . O % r n I / ( ( _ _ _ _ [ [ #.#.S.W.,.[ [ _ _ _ ( ( ( E D j 3 o     . . . X X o o o ",
"X X . . . . o O O o O < g N T ( ( ( _ _ _ _ _ _ t.U._ _ _ _ ( ( ( / T k 8 %     . . . . . X X X o o ",
"X X o O O . . . . . . o % 6 n Y / ( ( ( ( ( ( _ _ { ( ( ( / / / T D j ; o     . . . . . . . X o o o ",
". . . O O o . . . . . O o . % 6 n T / / / / / / / / / / / / T F h > + O o . . . . . . o . . o o o o ",
". . . . . . . . .     . . . . O < i A T Q Q Q Q Q Q Q Q / U k 8 * o O O O O o . . . . o .   X o o o ",
". . . . . . . . o       X X X X . % 6 j U Q Q E E E Q T D r - O . . . . . . o o . . . o o X X . o o ",
"O . o o . o o o .                 . O = d Z T Q Q Q F k 8 % . X . . . . . X X o o o o o o o . . o o ",
"O . . . O O O . X X X X X X X o . . . . . & 0 z c p 2 O o . . . .   X . . X X o o o o o o o . . . . ",
". . . . . . . . . X   X X X X o o o o O O O O O o . . X X o . . . . . . . X X o o o   X X o . . . . "
};
