/* XPM */
static char *_7f99ad6bba84475ba66375d9d187a3dKiAfXZju3AnGwDOK[] = {
/* columns rows colors chars-per-pixel */
"50 50 158 2 ",
"   c #020617",
".  c #020817",
"X  c #020719",
"o  c #030A1A",
"O  c #080B1D",
"+  c #04101D",
"@  c #070724",
"#  c #040E21",
"$  c #090E22",
"%  c #040D29",
"&  c #0D0E2B",
"*  c #0A0523",
"=  c #150B2D",
"-  c #041123",
";  c #0A1224",
":  c #051429",
">  c #0A152C",
",  c #0E1C2E",
"<  c #111622",
"1  c #131926",
"2  c #11152B",
"3  c #101B2C",
"4  c #1A1F2C",
"5  c #190F32",
"6  c #0C1631",
"7  c #0D1831",
"8  c #151332",
"9  c #131E33",
"0  c #12143E",
"q  c #131F39",
"w  c #1E183B",
"e  c #211138",
"r  c #211C3C",
"t  c #15222A",
"y  c #142232",
"u  c #1F2431",
"i  c #162039",
"p  c #1E2B3C",
"a  c #1B2932",
"s  c #232733",
"d  c #323C3E",
"f  c #365A26",
"g  c #41543E",
"h  c #41742C",
"j  c #506434",
"k  c #0A1147",
"l  c #0E134A",
"z  c #1A1D50",
"x  c #1F115E",
"c  c #13165D",
"v  c #2C1D46",
"b  c #201A56",
"n  c #182248",
"m  c #2D274B",
"M  c #302B4B",
"N  c #243243",
"B  c #2F3A4C",
"V  c #343D46",
"C  c #262C5C",
"Z  c #21206E",
"A  c #45335D",
"S  c #4A3560",
"D  c #2F4050",
"F  c #3F4F5E",
"G  c #3E4162",
"H  c #43464C",
"J  c #485A46",
"K  c #4C5F4C",
"L  c #4B544C",
"P  c #525855",
"I  c #526656",
"U  c #5F7756",
"Y  c #626E49",
"T  c #51426B",
"R  c #4E5F6F",
"E  c #5D5F65",
"W  c #605F7E",
"Q  c #645679",
"!  c #5B6C7E",
"~  c #636162",
"^  c #637364",
"/  c #697062",
"(  c #677869",
")  c #6F7B79",
"_  c #777D71",
"`  c #4B8D1D",
"'  c #61902C",
"]  c #6A9735",
"[  c #639E36",
"{  c #5BA020",
"}  c #6DAD26",
"|  c #75B22C",
" . c #7CBC38",
".. c #6F9C4F",
"X. c #719C4F",
"o. c #668858",
"O. c #7FB548",
"+. c #78A557",
"@. c #7AA953",
"#. c #75AA47",
"$. c #7C9D65",
"%. c #7F897A",
"&. c #7D9972",
"*. c #788565",
"=. c #81BC2D",
"-. c #83BD38",
";. c #88C63B",
":. c #8BC335",
">. c #90C537",
",. c #91CC3D",
"<. c #86BD4C",
"1. c #81A75D",
"2. c #88BC52",
"3. c #808679",
"4. c #848B7E",
"5. c #859A73",
"6. c #81B166",
"7. c #86B06D",
"8. c #89B76F",
"9. c #81A07A",
"0. c #ABD856",
"q. c #93C269",
"w. c #99C17C",
"e. c #A3D366",
"r. c #3E3B94",
"t. c #5541A4",
"y. c #816B9A",
"u. c #878B88",
"i. c #838784",
"p. c #90998C",
"a. c #979E9C",
"s. c #98BE87",
"d. c #899AAA",
"f. c #A290BA",
"g. c #98A8B8",
"h. c #93A0B3",
"j. c #B9BCA4",
"k. c #9CC384",
"l. c #B9CC82",
"z. c #A8D084",
"x. c #B6DA8B",
"c. c #B7C2A7",
"v. c #C6E484",
"b. c #D8ED97",
"n. c #C2D7B4",
"m. c #D1DEB8",
"M. c #D1E7AD",
"N. c #DDEFB4",
"B. c #DBE7BB",
"V. c #E8F3B8",
"C. c #E4F2C3",
"Z. c #FDE3FF",
"A. c #F1EFFC",
"S. c #FFEAFE",
"D. c #FEF9F6",
"F. c #F3F2FF",
"G. c #FFF3FF",
"H. c #FBFDFE",
/* pixels */
". . o o . . . . . . . . o O o . . . . . X X o o X . o o o o o o X X X X X . . . . . . o o o . . . o ",
". . .     . . . . . . . . O o o . . . .   X o o o o o o o o o o X X X X X X . . . . o o . . . . . . ",
"    . . . . . . . . . . . . o o . . . . o o o o o o o O o . X X X . o o o . o . o o . O o . . . . . ",
"    . . . . .   . . . . . . O o . . o o o o o . . . o o o X X X X o o o o # O o o o . . o . . . . . ",
". . . . . . . . . . . O O O O o . . . o o o X X . o o . o X X X X . o o - - + o . .   . . . . . . o ",
". . . . . . . . . o . o O o . . . . . . . o X . . o . . o . X X o o o - - - o . .       . . . . . o ",
"X X X X X X X o O O o X X o o o O # - o o X X . . X X X X X X X o o O o o . . . .       . . . . o o ",
"X X X X X X X X . o X X X o o o # - # o o o X X o o X X X X X X X . . . . . . . . .   . o o o o . o ",
"X X X X X X X X X X X X   X X . o O o . . . X X o o o X X o o . . . o o o . . . . . . o O O o . o . ",
"X X X X X         X X X X X X o O # o . . . X X X X X X X o . . . . . o O o . . . . . o o o o X . . ",
"X X X X X X X X X X X X X X X o o o o . . o X o o X X o o o . . . . . . o . . . . . . . o o o . . . ",
"o o X X X o X X X X X X X X X X . . o X X X . o o X X o o o . . X . . . o . . . . . . . . . o . o o ",
". . X X X o o o . X X X X X X X X X o . . X . o o o X X o o o o . X . o O . . . . . . . . o o o o o ",
"o o X X X o . . . X X X X X X X X X X . . . . o o X X X o o o . X . . o . . . . . . . . o o o o . . ",
"o o X X X . . . X X X X X . X X X X X . . . . . . . X . o . o X . o o . . . . . . o . . O o . . . o ",
"o o X X o . . . . o o o o o . X X X X . . . . . . . . . . o X X X X o . o X . . . . . . o . . . . o ",
"o o X X o . o o o o O O O o o . X X X . . . . . . . . . . o o o         X     . X . . . . . . . o o ",
"X X o o o O $ o X o , ; . : - # o o o . . . . . . . . . . . . o X     X X     . . . . . . . O o o o ",
"  X X o o . X - 3 o   > D d.R y o O O . . . . . . . . . . . o X     X X X     . . . . . . . o o . o ",
"X X X o O o X O 2 o o F h.g.R , O - o O o . . . . . . . . . o X     X o o o . . .     . . . . . o . ",
"X X X o O . O o . + N ! d.B , o o - . . . . . . . . . . . o o X     X o o o . . . X . . . . . . X X ",
"X X X o O . ; ; . - p N p o o o X . o . . . . . o .   . . o o X     o o o o . . . . . . . . o o . . ",
"X X . . . o o # > > - o X . - - X o - . . . . o o . X . . . o o . . o o o . . . X X . . . o O O o . ",
"o o . . X O X X $ - o o ; . o o o # # . . . . O O . . . . . . . . . . . . . . . X . . .   X o O o . ",
"O o o . X X o o # - - o   o o X o o X . . . . o o . O o . . o . . . .   X . . . . . . . . . o o . o ",
"# # O O O X X o # - - - o o o . o o X X . . . o . . . . . O O . . . O   . . o . o O o . . o o o o o ",
"X o o o o X X o o O # o o o o . o o X   . . . O o o . . . o O . . ) a.u . . o O - - O . . o O O o . ",
"X X o O # X X X X o o o o o o o O o . . . . . . . . . . . . . . ( s.n.&./ . o O - - O o . . o o . . ",
". o O $ ; o X X X X . o - o o O # o X . . . . .   . . . . . . . k.C.M.q.f 3.s o O O O O . . . . o o ",
"o o O ; ; o o X X . o o - o o O O o o O . o o . X . . . .     ^ C.C.v.} [ U i.; o o o o o . . X o o ",
"o o O O O O O o o o o O # O - # o o o o o O o . . . . .     ( m.B.b.:.| @.o.P 4 . . . . . o o X o o ",
"o o o o . o O . o o O O O o - O X X o X . o . . . . . .   ^ w.V.l.Y ] 2.+.J 1 . . . . . o o o . o o ",
"# O O o . o o o o o o o o o - O X X o   X . . o . . . . P 4.N.b.>.' *.$.K 1 o o . o o o o o o o o o ",
"+ + # # # . o o . O O O # O o o X X X     X . o . . . I 8.c.j.-.=.,.1.P 1 . o O O O . . . o O o o o ",
"+ + # # - . . . . O O O # o o X X X o o . X . . . . K 6.x.v.| j ;.<.+.<   . o O O o . o o O O o . o ",
"+ + # - - o o o o o o o o . o o o o X . . . . . . . 9.z.e.0.} -.5.%.1 . . . o o . . . o . o o . o o ",
"+ o + - : o o o o o o o o . o # O o X . o o . . o u p.7. .{  .O.X.L . . o . . . . O o . . o o . o o ",
"o o + - - + o o o o o o o . o - - # o o o o . . . . . _ h ` #...J 1 . . . . . . . o o . o . . . X o ",
"+ o - - - - - - - - - # # o # ; > ; $ o . o . o o o . o ~ u.o.g 1 . . . . O o . . . O O o . . X X o ",
"- - - - - - - - - - - - - - > , 3 > # . .   o X o o o X X H E 1 o o . . O O . .   . . O o o X X   X ",
"; : - - - : - - - - - - - , 9 y 9 ; o . .   o o o o o X     O X . . . . . . .     . . . . . o o X   ",
"% q - . o > % 7 9 # > o : : : - - o o . .   o o o o       X . . . . . .   . .     . . . . X X o o o ",
"6 X 9 y y 2 X % 7 > 7 o # - - - - + # . . X o o X X     X o . . . . . .         . . . . . X X X o o ",
"k 0 9 t < m r & @ > % % > - - - # - - . . . o X   X X X X o . . o O o . .     . . . . . . . X o o o ",
"l n i a V 8 M w 8 8 @ : # # - # # o - .     X X   X   X X X . . o O O O o . . . . . o o . o o o o o ",
"Z C G d H y.f.T w 8 @ > o - - - # o + .       X X X X X o X . . . . O O o o o . . . . o .   X o o o ",
"c z W H.H.G.G.Q = * & 7 : - - - # o o . . . o o o o o o o X X X . . . . . . o o o o o o o X X o o o ",
"r.H.F.H.H.S.G.S e 5 8 & % - # o o o o . . O ; ; o o o o o . X X . . . . .   X o o o o o o o o o o o ",
"F.A.H.H.H.G.G.A v 5 @ X 7 # # o o o o . . O ; ; o o o o o . . . . . . . . X X o o o o o o o o . o o ",
"S.Z.S.D.D.S.t.x b 0 >   - o o # @ @ @ O o O # O o . . . X o . . . . . . . X X o o o   X X o o o . . "
};
