/* XPM */
static char *b4fdc6a096e541e1cc6f637ee5714a3bIDWV7w7TTbzEhzLt[] = {
/* columns rows colors chars-per-pixel */
"50 50 190 2 ",
"   c #01070E",
".  c #040A0E",
"X  c #020617",
"o  c #020B13",
"O  c #030619",
"+  c #030A1B",
"@  c #090C1D",
"#  c #0C071D",
"$  c #0C131C",
"%  c #0E1715",
"&  c #040522",
"*  c #050A23",
"=  c #0A0B22",
"-  c #050C2C",
";  c #090A2B",
":  c #030728",
">  c #110F24",
",  c #071022",
"<  c #0C1322",
"1  c #0C162A",
"2  c #121925",
"3  c #121D2A",
"4  c #131524",
"5  c #060A35",
"6  c #0A0A36",
"7  c #070939",
"8  c #0B0B3B",
"9  c #12153D",
"0  c #06123C",
"q  c #11222F",
"w  c #0C263D",
"e  c #0F2839",
"r  c #122334",
"t  c #122739",
"y  c #132B3C",
"u  c #172937",
"i  c #050D45",
"p  c #090D44",
"a  c #0C064C",
"s  c #080748",
"d  c #070D57",
"f  c #0C0B55",
"g  c #070D59",
"h  c #0B095B",
"j  c #0E0651",
"k  c #16095D",
"l  c #1A1D50",
"z  c #13165C",
"x  c #092946",
"c  c #062A4A",
"v  c #132E42",
"b  c #15354B",
"n  c #193A4F",
"m  c #153143",
"M  c #1B3E53",
"N  c #153B53",
"B  c #0D0E63",
"V  c #1A0B66",
"C  c #12096E",
"Z  c #170B68",
"A  c #181A67",
"S  c #16166D",
"D  c #190B76",
"F  c #101573",
"G  c #1F1172",
"H  c #1E1B7D",
"J  c #191875",
"K  c #260D78",
"L  c #251174",
"P  c #251867",
"I  c #1A435C",
"U  c #1D4155",
"Y  c #214659",
"T  c #24495D",
"R  c #204557",
"E  c #194B6A",
"W  c #184B70",
"Q  c #175175",
"!  c #1C567A",
"~  c #195377",
"^  c #204A61",
"/  c #275168",
"(  c #1D0A83",
")  c #1B0A8E",
"_  c #1C0D90",
"`  c #230C83",
"'  c #230A89",
"]  c #260F96",
"[  c #2D1392",
"{  c #321895",
"}  c #29138A",
"|  c #242586",
" . c #3E3B94",
".. c #381AAC",
"X. c #451F8E",
"o. c #44248E",
"O. c #442590",
"+. c #54349E",
"@. c #411FB6",
"#. c #673FB7",
"$. c #1B5B84",
"%. c #195E8D",
"&. c #165A88",
"*. c #16659B",
"=. c #1A669B",
"-. c #1B699E",
";. c #196395",
":. c #286893",
">. c #1669A1",
",. c #1C6DA4",
"<. c #1B6BA6",
"1. c #1E71AA",
"2. c #1F70A6",
"3. c #206FA5",
"4. c #206FAA",
"5. c #2171A6",
"6. c #2174AD",
"7. c #2B79AE",
"8. c #2176B1",
"9. c #2279B5",
"0. c #2A7CB4",
"q. c #247DBA",
"w. c #4647A4",
"e. c #7C4FB6",
"r. c #6C43BC",
"t. c #7371B0",
"y. c #484E91",
"u. c #4B19D2",
"i. c #491FC6",
"p. c #4C23C8",
"a. c #5225D7",
"s. c #5828DC",
"d. c #5328CD",
"f. c #612FDB",
"g. c #5C2AE3",
"h. c #6837E8",
"j. c #6E3BEE",
"k. c #267EC0",
"l. c #8659BE",
"z. c #9B73C8",
"x. c #8F5CFF",
"c. c #8455E4",
"v. c #2580BE",
"b. c #2C81BB",
"n. c #3284BC",
"m. c #3081B7",
"M. c #2684C3",
"N. c #2C86C4",
"B. c #2787C8",
"V. c #2886C9",
"C. c #2788C9",
"Z. c #288ACC",
"A. c #368CC6",
"S. c #3D92CB",
"D. c #2A8DD1",
"F. c #318ED4",
"G. c #2E90D2",
"H. c #3594D5",
"J. c #3C95D2",
"K. c #3D98D6",
"L. c #3C9ADA",
"P. c #4194CD",
"I. c #4699D3",
"U. c #439EDB",
"Y. c #4B9FD9",
"T. c #499AD3",
"R. c #46A0DE",
"E. c #4AA2DD",
"W. c #52A4DD",
"Q. c #4CA4E0",
"!. c #52A5E3",
"~. c #55AAE4",
"^. c #5AABE5",
"/. c #5AAFE8",
"(. c #5DB1E9",
"). c #63B5ED",
"_. c #67B8EF",
"`. c #86889F",
"'. c #AA9FB1",
"]. c #ABACB8",
"[. c #B98AFE",
"{. c #C392FD",
"}. c #E1BDFA",
"|. c #EFDCF7",
" X c #E2C1F7",
".X c #FEE3FF",
"XX c #F2EFFC",
"oX c #FEECFF",
"OX c #F4F0FF",
"+X c #F9F8FE",
/* pixels */
"@ @ + + + + + O O O O O + + O O O + @ @ + + O O + + + O + + + + + @ = @ @ O * @ < , 1 0 i g s A z l ",
"@ @ + + + + O O O O O + + O O O + @ @ @ + @ t U U v $ O + + O X X @ , @ + X O + + * 6 i d h | J  .+X",
"@ @ + + + O O O O O O + + O O O + @ = + r ! m.W.(.S.=.N < + O X X @ , + X O X X O * 5 i d F H w.OXXX",
"@ + + O O O O O O O O O O @ @ @ + + + < m.^.W.n.0.I.^.A.$.O O O O O O O O & & X O - 8 s a K X.e.oX.X",
"@ @ + + 5 : O O O O O O O + + + + $ b 7.W.b.5.5.4.5.9.Y.^.E 3 + O O O O O & & O * - 8 p j V +.l..XoX",
"@ @ + i d d : O O O O O O + + + t :.W.W.6.6.6.6.8.6.6.6.n.~.0.M < O O O O     o + - i h C ) a.u.x.{.",
"+ @ 8 B B S f ; O O O O $ n m.~.S.8.9.9.q.9.q.q.q.q.q.9.9.9.8.A.~.P.! 3 +     o @ - p f C _ g.g.g.h.",
"O s k L H | J z ; O O u :.W.P.9.9.9.q.q.q.v.v.v.q.q.v.q.q.q.q.9.8.S.~.m.I $ o X o + - 7 a G ` ( ' { ",
"f D G o.+.t.t.t.9 O ! S.I.9.9.9.q.q.v.q.M.M.M.M.M.M.M.k.M.v.q.q.q.9.9.P.W.5.y o X + - 7 s Z C ] [ D ",
"C ] p.#.z.|.XX].$ M S.9.8.9.q.q.v.v.v.M.M.M.B.M.M.M.M.M.M.M.v.v.q.q.q.9.9.T.P.r o . .   X < X X > 4 ",
"G @.s.f.}..X'.y ;.n.8.9.9.q.v.v.M.M.M.M.B.B.B.M.B.B.B.B.B.M.M.M.v.v.q.q.9.8.9.m.E % o o o @ = # = X ",
"6 K i.j.[.`.W -.6.6.9.9.q.v.v.M.M.M.B.B.B.C.C.C.C.C.C.B.B.B.B.M.M.M.v.q.q.9.8.n.n.:.b $ o @ = ; ; ; ",
"+ 6 ' d.y.%.,.3.6.6.9.q.v.v.M.M.B.B.B.C.C.C.Z.Z.Z.Z.C.C.C.C.B.B.M.M.k.v.q.q.9.6.6.0.7.Q $ @ = * ; ; ",
"+ + 8 P %.,.5.5.6.8.q.v.v.M.M.B.B.C.Z.C.Z.Z.Z.Z.Z.Z.Z.Z.Z.Z.C.B.B.B.M.M.v.q.q.8.6.5.5.,.b + * * ; - ",
"+ + + 3 =.,.5.6.8.9.v.M.M.M.B.B.C.Z.Z.Z.Z.Z.D.Z.Z.Z.Z.Z.Z.Z.C.C.C.B.B.M.M.v.q.9.8.6.5.,.~ + + & ; - ",
"+ + + w ,.5.n.9.9.q.M.M.B.B.B.Z.Z.Z.Z.Z.D.D.D.D.D.D.D.D.D.Z.Z.Z.Z.C.C.B.B.M.k.q.9.9.6.0.*.% . . . . ",
"O + + w ,.5.A.W.I.N.M.B.B.C.Z.Z.Z.D.D.D.D.D.D.D.D.D.D.D.D.D.Z.Z.Z.Z.Z.C.B.B.M.q.b.P.T.0.*.% . . . . ",
"O + + w ,.6.8.N.E.(.Z.B.C.Z.Z.Z.Z.D.D.D.D.D.D.D.D.D.D.D.D.D.D.D.Z.Z.Z.C.B.B.M.J.~.I.0.5.>.2 + @ @ = ",
"O + + w 1.8.9.q.v.J.(.U.Z.Z.Z.Z.D.D.D.D.D.D.D.D.D.D.D.D.D.D.D.D.D.Z.Z.Z.C.B.J.~.A.9.8.6.>.3 @ # # = ",
"O O O v 5.8.9.q.v.M.R.)./.U.Z.D.D.D.D.D.D.D.D.D.D.D.D.D.D.D.D.D.D.Z.Z.Z.H.!.).B.q.q.9.6.<.r + + + + ",
"O + + b 6.8.9.q.v.M.B.K.(.).~.L.D.D.D.D.D.D.D.D.D.D.D.D.D.D.D.D.D.D.D.R.).(.J.M.v.q.9.8.<.w + + + + ",
"@ @ @ b 6.8.9.q.v.M.C.B.D.Q.).)./.L.G.D.D.D.D.D.D.D.D.D.D.D.D.D.D.L.(.).Q.Z.B.M.v.q.9.8.<.w + + + + ",
"@ @ @ b 6.9.q.v.k.M.C.Z.Z.Z.H.(._._.(.L.D.D.D.D.D.D.D.D.D.D.D.U.(._.(.K.Z.B.C.M.v.q.9.8.1.w + + + + ",
"+ + + b 6.9.q.v.M.M.C.Z.Z.Z.D.D.Q.)._._.R.H.G.D.D.D.D.D.D.R.(._._.!.G.Z.Z.C.C.M.k.q.9.8.1.x + + + + ",
"+ O + b 8.9.q.v.M.M.C.Z.Z.D.D.D.D.L.)._._.).~.U.H.H.H.L.!._._.).R.D.D.Z.Z.C.C.M.M.q.9.8.1.c + + + + ",
"+ + + / 8.9.q.v.M.M.C.Z.Z.Z.D.D.D.D.D.D._._._._._._._._._.(.H.D.D.D.D.Z.Z.Z.C.M.k.q.9.8.1.c + + + + ",
"+ + + ^ 6.9.q.v.M.M.C.Z.Z.D.D.D.D.D.D.D.~._._._._._._._._.F.D.D.D.D.D.Z.Z.C.B.M.k.q.9.8.1.c + + + + ",
"+ + + T 6.9.q.v.M.M.C.C.Z.Z.D.D.D.D.D.D.G.(._._._._._._.).D.D.D.D.D.D.Z.Z.C.B.M.v.q.9.8.1.c + + + + ",
"X + + Y 6.9.9.q.M.M.C.Z.Z.Z.D.D.D.D.D.D.D.L._._._._._._.R.D.D.D.D.D.D.Z.Z.C.B.M.v.q.9.8.1.c + + + + ",
"X X + Y 6.8.9.q.k.M.B.C.Z.Z.D.D.D.D.D.D.D.D.~._._._._.).D.D.D.D.D.D.Z.Z.Z.C.B.M.q.q.9.8.1.x + O + + ",
"+ X + Y 6.8.9.q.v.M.B.C.Z.Z.Z.D.D.D.D.D.D.D.U._._._._.~.D.D.D.D.D.D.Z.Z.C.B.B.M.q.q.9.6.,.w + O + + ",
"+ + + Y 5.8.9.q.v.M.B.B.C.Z.Z.D.D.D.D.D.D.D.D.)._._._.L.D.D.D.D.D.Z.Z.Z.C.B.M.v.q.9.8.6.<.w + + + + ",
"+ + + Y 5.6.8.9.q.v.M.B.C.Z.Z.Z.D.D.D.D.D.D.D.(._._._.H.D.D.D.D.Z.Z.Z.C.B.B.M.v.q.9.8.6.>.w + + + + ",
"+ + + Y 5.6.8.9.q.v.M.B.B.B.Z.Z.Z.D.D.D.D.D.D.!._._._.G.D.D.D.D.Z.Z.Z.C.B.B.M.q.9.9.6.5.>.w + + + + ",
"+ + + R ,.1.6.9.9.q.M.M.B.C.C.Z.Z.Z.D.D.D.D.D.R._._.).D.D.D.Z.Z.Z.Z.C.B.B.M.M.q.9.8.6.5.>.t + + + + ",
"+ + + b ,.3.5.6.8.9.v.M.M.B.B.C.C.C.Z.Z.Z.D.D.H._._.~.Z.Z.Z.Z.C.C.B.B.M.M.v.q.9.6.6.5.,.*.3 + O + + ",
"+ + + e -.,.5.5.6.9.q.v.M.M.M.B.B.C.C.Z.Z.Z.Z.D._._.!.Z.Z.C.C.C.B.B.M.M.v.q.q.8.6.5.3.,.%.2 + + + + ",
"+ X X $ Q -.,.5.6.8.9.q.v.M.M.M.B.B.C.C.C.Z.Z.C._._.R.C.C.C.C.B.M.M.M.v.q.q.9.6.5.3.,.&.m + + + O + ",
"+ + + + < E ;.,.5.6.9.q.q.v.v.M.M.M.B.B.C.C.C.C.(._.U.C.B.B.B.M.M.M.v.q.q.9.8.5.2.=.E q + + + X O + ",
"+ + + + + + y ~ >.6.8.9.9.q.q.v.M.M.M.M.B.B.B.B.^._.K.B.B.M.M.M.M.v.q.q.9.9.6.,.$.v + + + + O X X O ",
"+ + + + + + + + y $.8.8.9.9.q.q.v.v.M.M.M.M.M.M.!._.J.M.M.M.M.v.q.q.q.9.8.6.6.n @ X + + + + + + O X ",
"+ + + + X + + + + @ ;.6.8.8.9.9.q.q.q.v.M.M.M.M.Y._.A.M.M.v.v.q.q.9.9.8.6.<.E X X X X i g s A z l + ",
"X X + + + + + + + + $ I >.8.8.9.9.9.q.q.v.v.v.v.S.).v.v.q.q.9.9.9.8.8.1.$.r X X + + + d h | J  .+X+ ",
"X O + + + + + + + + + + q Q 1.8.8.9.9.9.q.q.q.q.q.A.q.q.9.9.9.8.8.8.=.b @ X X + + + + d F H w.OXXX+ ",
"; 6 5 + + + + + + + + @ + + + $ I >.8.8.6.6.8.8.8.8.8.6.6.8.1.$.r + @ @ + + + + + + + a K X.e.oX.X+ ",
"V G B 6 + + + + + X X + + + + + + 2 E <.6.5.5.5.5.5.5.5.6.;.b @ + + + @ + + + + + + + j V +.l..XoX+ ",
"....( f ; + + + + X X X O O O O O + @ t 1.8.6.5.3.5.6.8.>.< X X + + + + + + + + + + + C ) a.u.x.{.+ ",
"s.p.} k 6 + + + + X X X X X X X O O + + M *.1.8.8.8.<.! u + O X + + + + + X O + + + + C _ g.g.g.h.+ ",
"c.r.O.L f - @ + O X O X X X O + + + + + + 3 M / / ^ v @ + + + + X X X + X X X + + + + a G ` ( ' { + ",
" Xz.+.H B i * + + X X O O O O + + + + @ @ @ @ @ + + + O O + + + + + + + X X O + + + X O O + + + + + "
};
