/* XPM */
static char *a86d0c320ae74397c09940c16702d291Z6P9gYNKCYb50Rut[] = {
/* columns rows colors chars-per-pixel */
"50 50 215 2 ",
"   c #030617",
".  c #030719",
"X  c #030A1A",
"o  c #090D1E",
"O  c #020817",
"+  c #07101F",
"@  c #0C121E",
"#  c #0E191F",
"$  c #071F1D",
"%  c #15191C",
"&  c #1A1B1A",
"*  c #0C251D",
"=  c #172419",
"-  c #162A19",
";  c #172218",
":  c #0A371C",
">  c #133219",
",  c #103A18",
"<  c #103617",
"1  c #060F20",
"2  c #0A0E21",
"3  c #061423",
"4  c #0B1323",
"5  c #051926",
"6  c #0B1924",
"7  c #051729",
"8  c #021B2B",
"9  c #0B1B2B",
"0  c #081729",
"q  c #141E23",
"w  c #121629",
"e  c #141B2C",
"r  c #191D2E",
"t  c #101627",
"y  c #071E32",
"u  c #191F30",
"i  c #101F32",
"p  c #022627",
"a  c #022C25",
"s  c #012329",
"d  c #0E212E",
"f  c #062827",
"g  c #17212E",
"h  c #043626",
"j  c #0C2334",
"k  c #05253C",
"l  c #09253B",
"z  c #042436",
"x  c #1D2332",
"c  c #14283B",
"v  c #0F3B38",
"b  c #242A3A",
"n  c #292E3E",
"m  c #222637",
"M  c #08491A",
"N  c #03531D",
"B  c #0A5318",
"V  c #075D19",
"C  c #095A19",
"Z  c #065B17",
"A  c #026C1C",
"S  c #056419",
"D  c #027D16",
"F  c #037B19",
"G  c #06761B",
"H  c #034821",
"J  c #035827",
"K  c #025B3C",
"L  c #02443C",
"P  c #026B3B",
"I  c #02633D",
"U  c #01753A",
"Y  c #046520",
"T  c #042A45",
"R  c #0A2942",
"E  c #032D4B",
"W  c #062C46",
"Q  c #02344E",
"!  c #023B4D",
"~  c #043A45",
"^  c #16364A",
"/  c #023151",
"(  c #02365B",
")  c #01395F",
"_  c #073A58",
"`  c #163E57",
"'  c #192B40",
"]  c #2B2F40",
"[  c #2A3343",
"{  c #313646",
"}  c #393D4C",
"|  c #343A49",
" . c #003C65",
".. c #003E69",
"X. c #024B44",
"o. c #02424B",
"O. c #024949",
"+. c #024444",
"@. c #025445",
"#. c #025B43",
"$. c #01445C",
"%. c #0B4E57",
"&. c #3A404E",
"*. c #3E4553",
"=. c #284052",
"-. c #016649",
";. c #006D4E",
":. c #004363",
">. c #0C4D68",
",. c #154964",
"<. c #0B5B74",
"1. c #155D74",
"2. c #18516B",
"3. c #2E566E",
"4. c #0F647C",
"5. c #414654",
"6. c #464956",
"7. c #484C5A",
"8. c #4C505E",
"9. c #4E5360",
"0. c #515663",
"q. c #5B5E6B",
"w. c #555A67",
"e. c #5E616E",
"r. c #41697F",
"t. c #646673",
"y. c #656874",
"u. c #70747F",
"i. c #6B707C",
"p. c #038316",
"a. c #02841A",
"s. c #09841A",
"d. c #02891A",
"f. c #04951A",
"g. c #05A71A",
"h. c #01B518",
"j. c #03BE1B",
"k. c #0CB01F",
"l. c #019A2C",
"z. c #159F24",
"x. c #018736",
"c. c #019237",
"v. c #01A52C",
"b. c #1EA22B",
"n. c #01BE26",
"m. c #01B429",
"M. c #01BA2A",
"N. c #1DBE2C",
"B. c #23A52E",
"V. c #26BD32",
"C. c #01C21A",
"Z. c #00DE1D",
"A. c #00D71C",
"S. c #01E21E",
"D. c #00D927",
"F. c #01CB22",
"G. c #32CF3C",
"H. c #3BD643",
"J. c #40DC47",
"K. c #0C6D86",
"L. c #0D6780",
"P. c #146C85",
"I. c #0E7189",
"U. c #14728D",
"Y. c #187A95",
"T. c #27728D",
"R. c #4A768E",
"E. c #4A7790",
"W. c #777A85",
"Q. c #3783AB",
"!. c #3485A9",
"~. c #3C8BB5",
"^. c #3C95BA",
"/. c #2789AA",
"(. c #5D8699",
"). c #5194B7",
"_. c #4D8CAD",
"`. c #689CB4",
"'. c #73A7BD",
"]. c #3C9FC6",
"[. c #4A9DC3",
"{. c #4BADD9",
"}. c #53AAD5",
"|. c #55B1DE",
" X c #49ABD6",
".X c #5ABCED",
"XX c #55B8E7",
"oX c #62BFEC",
"OX c #77C5EA",
"+X c #69C1EC",
"@X c #868993",
"#X c #878A94",
"$X c #90929C",
"%X c #9A9CA4",
"&X c #9FA1A9",
"*X c #A2A4AB",
"=X c #B3B4BB",
"-X c #83BCD4",
";X c #83B2C3",
":X c #B9B9C0",
">X c #85C1DA",
",X c #92C1D1",
"<X c #9DD3E6",
"1X c #97D1E7",
"2X c #8FCFE8",
"3X c #A2D5E6",
"4X c #C3C4C9",
"5X c #CCCDD1",
"6X c #DADADE",
"7X c #D4D4D8",
"8X c #CFD0D4",
"9X c #DEDEE1",
"0X c #E0DFE3",
"qX c #E0E0E2",
"wX c #E1E0E5",
/* pixels */
"X . . X X 1 X X X X X } X X . . X o { X X X X X . . X . . . X X . . X X X X . X X X X X . . X X X . ",
". . . X 1 X X X 1 X X *.X X X 1 X { x X X 4 X X 3 X O X X X X X . . . X X . . X X X . X X X X X X X ",
"X X X . X X X X X 4 . 6.9 . . . 4 &.X X X X X X . . X X X . . X X . . . . . X X . . X X X O X X X X ",
"X X X o X X 1 X . t . 7.X . . . 6.. X . . X X X . . X X X . . . . . X . . . X . . . X X X X X X X X ",
"b X X X 2 X X X . 4 o 9.X . . b } X X X X X . X . . . X X X . . . . . . . . X X X X O X X X X X X X ",
"{ q.t X 1 t X X X 4 4 0.X X 2 q.. 2 X . X . . X . . . . . . X . . X X X X O X X X O O O X X X X X X ",
". t q.9.1 1 r 3 X e { t.b r 5.x 2 o X X X . . . . . . . . X X . . X X X X . O . O O O O X X X X X X ",
". X . b W.5.3 b n 8.@X&XW.e.t.r 2 X . . X . X X . . .   . X X X . X X X . X O X X X O X X . . . X . ",
". X X . w 0.e.} W.%X4X8X4X:XW.| o X X . X . X X X . . . O X X X . . . X . X X X X X X . X X . X . X ",
"X X X X . . ] @X=X7X9X9X9X6X=Xq.x . X o 2 2 X X X X . . . X . X . . . X X . X X X X X . X X . X X X ",
"X X X X X . m y.5X9XqXqXqX9X5X@X&.w 4 o . X X X X X . . . . X X . . O . . . X X X X X X X . . O X X ",
"0.w.e.t.y.y.W.*X7X9XqXqXwX0X6X=XW.y.t.e.q.0.8.7.5.} { ] n b m x x x r r e e 3 X X O X X X X . X . . ",
"e u u x x x 5.@X8X9XqXqXqX0X8X$X5.x x r r r e e w t 4 4 4 4 @ 3 3 o o 2 o o . O X X X X X . . . . . ",
". X 1 3 4 4 m 0.=X6X9X0X9X6X5XW.b X . . X X X X X X . . X . X X . X X . X . X O X X X X X . . . X X ",
"X X X . . . 4 [ #X4X7X6X6X4X*X@Xe.3 4 X X O X X X X . X X . . X X . . X X . X X X X X X X . X X X X ",
"X X X X . X X b 5.%X#X=X*Xi.*.{ ] u.5.. X . . X X 1 X X X . . X X X X X X X X O X X X X X X X X X X ",
"X X X X X X 4 4 w.] { W.0.b t X u X 6.q.r X . . . X [ 3 X . . X X X X X X X . X . X X X X X X X X X ",
". . X X X 4 X u 5.X 2 w.r t X X X t 3 b R._.[.}.}.}.^.T.1.` e X X X X X X X X X X X X X X X . X X X ",
"X X X X 2 X X w.1 X X 9.X e X X 1 i =.3.E.).}.|.|.|.[.!.T.2.^ l 4 X X X X X X X X X X X X X X X X X ",
"X X X 3 X X &.| X . X 9.1 r X 3 ' 3.`.>XOXoX.X.X.X.XXX]./.Y.U.1.^ 9 X X X X X X O O O X X X X X X X ",
"X X X X X 4 7.X . . . 8.X 4 1 ' R.-X<X1XOX.X.X.X.X.X.X.X X/.U.K.P.,.j X . X X X X O X X X X X X . O ",
". X X X X *.e X X . . 6.X X ^ E.>X<X<XOXoX.X.X.X.X.X.X.X.X{.^.I.K.P.2.c X X X X X O X X X X X X X X ",
"X X X X x } X X X X X 5.X 9 E.-X<X<X2X+X.X.X.X.X.X.X.X.X.X.X{./.U.I.P.,.4 X . . O O O X X X X X X X ",
"X X X X } 3 . X X X X *.. 3.'.<X3X<XOXoX.X.X.X.X.X.X.X.X.X.XXX XY.I.K.1.c X . X O O X X O . X X X X ",
"X X X m w . . X . . . } 4 _.-X,X;X'.).~.~.Q.Q.Q.Q.Q.Q.Q.~.~.~.^.U.L.L.4.,.X . X X X X X X X X X X X ",
"X X 1 n X X . X X . . { i _.`.(.r.3.,._ / E E E E E E Q _ _ ,.2.>.>.<.<.,.3 X X X X X X X . X X X X ",
"X X ] 3 X X X X X X 1 [ c ` / E E E E E E E E E E E E E E E E E E E E / ` 9 X X + 3 X X X X X X X X ",
"X 4 r X . X X X 4 9 j W E E / / / / / / / / / / / / / / / / / / / E E E E T i 4 6 3 X . X X X X X X ",
"X x X . X 4 9 l T W E E / / / / / / Q ! / / / ! X.+.Q / / / / Q / / / / / Q W y 9 6 6 o X X X X X X ",
"r 9 3 0 y k W E / / / / ! Q / / / o.U x.O./ / @.v.x.O./ / o.U x.o./ / / / / T z 8 0 9 3 + X X . X X ",
"u 1 9 l E / / / / / / ! P I o./ / O.m.F.#./ Q -.D.m.@./ Q #.m.n.@./ / Q ~ L z 8 8 8 8 0 3 4 1 . X X ",
"X 9 R / ( / / ! Q / / o.c.v.@./ / o.l.n.#./ / #.M.l.X./ ! P n.v.O./ / ! J J p 8 8 8 8 8 8 0 3 X X X ",
"4 R / )  .) ! U @.Q / ! P v.#./ / Q X.K ! / / ! K X.Q / / X.P +.Q / / +.A N s 8 8 s s 8 8 8 8 7 X X ",
"R _  .....:.@.D.v.@./ / / / / / / / / / E T T T T T T E E / / / / E T z p 8 8 8 p H A a 8 8 8 8 0 o ",
"W ) ..:.:...:.;.-.$.( / E W l j d 9 q q q q q q q q q q q q q 9 9 9 0 8 8 8 8 8 p H N 8 8 8 8 8 0 3 ",
"W ( $.;.c.;...:.:.) / l d q q q % & & & & & & & & & & & & & & & % % % % # 6 5 8 8 p a 8 a h a 8 7 3 ",
"l Q _ -.x.-. . .( E j q & & & & & & = - - > > > > > > > - - ; & & & & & & % # 6 0 8 8 8 a M h 8 0 @ ",
"4 k E ! o.o._ ) E d & & & & ; - > , M B B C C V V V V B B M M , > - ; & & & & % 6 8 8 8 p h a 8 3 X ",
". 0 k E / / X.! l q & & & ; , B S G F a.a.a.a.d.d.a.d.a.a.a.F G S B , = & & & & # 5 s s 8 8 8 0 3 . ",
"X . 3 y E ! l.I ~ d & & & B F d.a.F G p.g.j.C.h.h.h.C.C.h.f.D F a.d.a.V = & & % 6 a N N s 0 4 o   . ",
"X . . X 3 9 v ~ Q E l 9 % Z F a.d.g.Z.A.k.V.H.H.J.H.H.G.N.j.Z.j.d.a.a.A < & # 0 8 8 p f 6 + X . X O ",
"X X X X X + 4 9 y l l l j h J Y F f.Z.Z.h.z.b.B.B.B.b.z.g.j.S.C.a.G S M * 6 3 6 3 3 3 X X . . . . . ",
". O X X X X . X 3 4 4 0 0 9 f h H C s.f.f.d.s.s.s.s.s.p.d.f.f.G B : : $ @ 6 3 + X X . X . . O . . . ",
"O O . X . X X X X . X . o 4 4 4 6 * : C F s.D D p.p.D F F G B : * # @ 3 @ @ X . X X X X . . . . . . ",
"X X X X X . X X X X X X . X X X X X X O . . . .   . O . . . X X . X X X . X X X X X X X X X . . . . ",
"X X X X X X X X X O O X X X X X X X X X O . O . . . . . . . O X X X X X X X . X X X X X X O . . . . ",
"X X X X X X X X . O O O . . . . O X X X X X X X X X X . . . . . X X X X X X . . X X X X . . . X . . ",
"X X . . X . . . X O O O       O O O X X X X 4 3 X X X X X X . . X X X X X O . . . . . . . . X X . . ",
"X X X X X X X X . O .       . . X X X X X X 4 2 X X X X X X X X X O O X O O O . . . . . . . X X X X ",
"X X X O X X X X X O O . . . . . . . . X X X X X X X X . X X X X X X X X O O O . . . O . . . X X X X "
};
