/* XPM */
static char *_dfe9a49f2f140cf883928f0a9f5348b57TafsXPn1OoE2Ce[] = {
/* columns rows colors chars-per-pixel */
"50 50 163 2 ",
"   c #020617",
".  c #030817",
"X  c #030718",
"o  c #030A1A",
"O  c #090D1C",
"+  c #04101F",
"@  c #0A111F",
"#  c #060E20",
"$  c #0A0F21",
"%  c #061121",
"&  c #0C1322",
"*  c #0D1826",
"=  c #0E1B29",
"-  c #111624",
";  c #141926",
":  c #151B2A",
">  c #191E2A",
",  c #1C212D",
"<  c #162532",
"1  c #1E2330",
"2  c #21262F",
"3  c #25282F",
"4  c #212632",
"5  c #252A35",
"6  c #292C35",
"7  c #252C38",
"8  c #2A2F3A",
"9  c #2C313C",
"0  c gray21",
"q  c #33353C",
"w  c #393939",
"e  c #323640",
"r  c #363942",
"t  c #3A3D44",
"y  c #3C3F49",
"u  c #3F4045",
"i  c #3F424B",
"p  c #414244",
"a  c #43454C",
"s  c #4B4C4D",
"d  c #424752",
"f  c #454952",
"g  c #4C4D54",
"h  c #4A4F58",
"j  c #4F5154",
"k  c #4E5259",
"l  c #515356",
"z  c #54565B",
"x  c #57595C",
"c  c #5B5C5C",
"v  c #545660",
"b  c #565961",
"n  c #5B5D62",
"m  c #5E6166",
"M  c #5E6269",
"N  c #646465",
"B  c #63646A",
"V  c #67686B",
"C  c #6B6B6C",
"Z  c #6B6D72",
"A  c #6F7174",
"S  c #737374",
"D  c #747579",
"F  c #77787C",
"G  c #7B7B7C",
"H  c #7B7D81",
"J  c #7F8083",
"K  c #838383",
"L  c #858689",
"P  c #87888B",
"I  c #8B8C8C",
"U  c #8C8E92",
"Y  c #8F9093",
"T  c #949494",
"R  c #959699",
"E  c #96989C",
"W  c #9B9B9B",
"Q  c #9E9FA1",
"!  c #9FA0A1",
"~  c gray65",
"^  c #A7A7A7",
"/  c #A5A5A5",
"(  c #A3A3A4",
")  c #A7A7A8",
"_  c #A8A8A9",
"`  c #AAAAAA",
"'  c #ABABAD",
"]  c gray68",
"[  c #ACACAC",
"{  c #ADAEAF",
"}  c #AEAEAE",
"|  c #AFAFAF",
" . c #ABABAB",
".. c #AEAEB0",
"X. c gray69",
"o. c #B1B1B1",
"O. c #B0B0B1",
"+. c #B2B2B2",
"@. c gray70",
"#. c #B4B4B4",
"$. c gray71",
"%. c #B6B6B6",
"&. c #B7B7B7",
"*. c #B3B3B3",
"=. c #B7B7B9",
"-. c #B7B7B8",
";. c gray72",
":. c #B9B9B9",
">. c gray73",
",. c #BBBBBB",
"<. c #BCBCBC",
"1. c gray74",
"2. c #BCBCBD",
"3. c gray",
"4. c gray75",
"5. c #BEBEBF",
"6. c #BBBBBB",
"7. c #C0C0C0",
"8. c #C1C1C1",
"9. c gray76",
"0. c #C3C3C3",
"q. c gray77",
"w. c #C5C5C5",
"e. c #C4C4C5",
"r. c #C6C6C6",
"t. c gray78",
"y. c #C3C3C3",
"u. c #C7C7C8",
"i. c #C8C8C8",
"p. c gray79",
"a. c #CACACA",
"s. c #CBCBCB",
"d. c #CACACB",
"f. c gray80",
"g. c #CDCDCD",
"h. c #CECECE",
"j. c gray81",
"k. c #CDCDCD",
"l. c #D0D0D0",
"z. c gray82",
"x. c #D2D2D2",
"c. c LightGray",
"v. c gray83",
"b. c #D5D5D5",
"n. c gray84",
"m. c #D7D7D7",
"M. c #D4D4D4",
"N. c #D8D8D8",
"B. c gray85",
"V. c #DADADA",
"C. c gray86",
"Z. c gainsboro",
"A. c #DDDDDD",
"S. c gray87",
"D. c #DFDFDF",
"F. c #DADADA",
"G. c gray88",
"H. c #E1E1E1",
"J. c #E2E2E2",
"K. c gray90",
"L. c gray92",
"P. c gray91",
"I. c #F4F4F4",
/* pixels */
". . o o . . . . . . . . o O o . . . O 9 B T } 2.2.=.( H f : o . X X X X X . . . . . . . o o . . . o ",
". . .     . . . . . . . . O o . & 9 D E ..2.u.h.h.p.e.=./ P v : o X X X X X . . . . o O . . . . . . ",
"    . . . . . . . . . . . . o > h L +.e.h.x.n.B.B.n.n.x.p.2.Q Z 8 $ o . o . o . o o . O . . . . . . ",
"    . . . . .   . . . . . . : h U 2.u.j.n.B.Z.Z.Z.Z.B.n.x.h.9.' Z 8 $ o o # O . o o . . . . . . . . ",
". . . . . . . . . . . O O & a L ;.e.h.n.B.Z.Z.G.G.G.Z.B.m.x.p.9.) B 5 O % % O . . .   . . . . . . . ",
". . . . . . . X . o . o o 7 F X.2.p.x.n.B.Z.G.G.G.G.G.Z.B.n.h.e.;.W b & % % o . . X     . . . . . . ",
". . . . . . . . . . . . o B W $.9.p.x.n.B.Z.G.G.G.G.G.Z.B.n.x.e.2.} H 9 o . . X X X   X . . . . . o ",
"o o . . . . . . . . . 1 1 J _ $.9.p.x.n.B.Z.Z.G.K.G.Z.Z.B.n.h.e.2.+.R n . . . . . X X . o o o o . o ",
"o O . . . . . . . o o f f Y } $.9.p.h.x.n.B.Z.L.I.G.Z.B.n.x.h.e.2.+.( D ; . . . . . . o O O o . o . ",
"O o . . . . . . o o O B B R } $.2.e.h.x.n.n.B.G.L.Z.B.n.x.h.p.9.;.+.~ J 5 o . . . . . o o o o X . . ",
"O . . . . . . o # % O D D W _ +.;.9.p.h.x.x.n.n.n.n.n.x.h.p.e.2.$.} ( J 8 . . . . . . . . o X X . . ",
"o o o . . . . O # O O F F R ~ } $.2.9.p.p.h.h.x.x.x.h.h.p.e.9.;.+._ W H 6 . . . . . . . . . X . o o ",
"o O o o o . . o o . . S S T W _ +.;.2.9.e.e.p.p.p.p.p.e.e.9.2.$.} ~ W F 7 . . . . . . . . o o o o o ",
"% & % O o . o o o O . V V P W ( _ +.$.;.2.9.9.e.e.9.9.9.2.;.$.} ~ W T S 5 . . . . . . . o o o o . . ",
"% * & O o o o o # % o z z G I W ( _ } $.$.;.2.2.2.2.;.;.$.+.} ~ W R P V > . . . . o . . O o . . . . ",
"% % O o o . . . o o o r r C L T W ( ~ } } +.+.$.$.$.+.+.} _ ~ W R P G z & X . . . . . . o . . . . . ",
"o . . . . . . o o o o > > x F L T W W ( ~ _  .[ [ [ _ _ ~ ( W R I K C t o X   . X . . . . . . . . o ",
"o . . o o o o o o o . O O u N F L I R W W ! ( ( / ( ( W W R T P K S j 2 X     X . . . . . . O o O o ",
"X X X X X X . o o o O o o > f C F K P I T R R W W W R R T P L G S c q o X     X . . . . . . . . . O ",
"o X X X X X . o # % o o X O 6 g V S G K L P P I I I P P K G F C m t ; o o o X X .     . . . . . . . ",
". . X . o o o O % % # o X X & 6 g N C S S F G K K G F F S C N c t : o o o o . . . X . . . . . . X X ",
". . . . . . o % % % o o X X o * 5 p x N N c x x x x c N N c g q ; O o o o o . . . . . . . . . o . . ",
"    X . . . . O O O o O o o . o @ , q p s p 0 w w 0 w a s t 6 - o . o o o . X X X X . . . . O o o . ",
"X     . . . . . . . . o o . . O O ; 9 9 t u w w w w p u q 9 4 @ . . . . . . . . X . . . X X o o o . ",
". . o o o . X X X . . . X . . o : h Q h n L I C N S W V i H J 7 O . .   X . . . . . . . . . o o o o ",
". O o o o . . . o . . .   . . & i =.n.b Z ' h.n.N.n.p.K n R h.H 4 . .   . . . . . O o . . o o o o o ",
". . . . o o o O . . . . . . . , M 9.2.z G $.h.n.B.c.t.R C G 9.( r O . . . . o O # % O . . o O O o . ",
". . . . . o o . . . . . . . & d R ;.I z L $.e.h.x.h.9.( S x _ 2.Z 5 o . . . o O # % O o . . o o o o ",
"X . . . . . . . . . . . . . : k T ! k l U ;.e.h.h.p.9.} D r G Q Z 9 O o o X . o O O O O . . . . o o ",
"X X . . . . . . . . . . . . > y x m , b W 2.p.x.n.x.e.$.G 6 y h r 1 & o o . X . . o o o o . . X o o ",
". X . . . . . . . o o o . . , q 6 - @ V ( 9.h.n.Z.n.p.;.P r O ; 3 4 : X . o o . . . . . . o o X o o ",
". . o O . . . . o o o o . & B L c 4 > H _ $.+.+.+.+.;.$.W x o f Z D f o . . o . . . . o o o o . o o ",
". . . . . X . o o o + o o i R ( n ; y G S x s s a s s N J A : r L ' F : . . o o . o o o o o o o o o ",
". . . . .   . . o o + * & C ( I i & r L I L K K K L K I T S ; 2 Z ~ Y i X . . O O O . . . o O o o o ",
". . o o . . . . o % = 9 7 K W Z 7 & y T +.$.;.;.;.;.;.$.) D - ; l P R B O . . O O o . . . O O o . o ",
"o o o o . . . o O = < f a P P z , > k W ;.9.e.e.e.e.9.9.+.L 7 ; u S T D : . . . . o o . . o o . . o ",
". . . . . . . o O & * z z L G a > i D ( ;.9.9.9.9.9.9.2.$.R n 5 q N P G 4 . . . . O o . . o o o o o ",
". . . . . . . . . o o c c K C q 9 I ~ W } 2.2.;.;.;.2.;.~ R _ b 9 j G S 4 . . . . o o . o o o . X o ",
". . . . . . . . . o o c c K z 6 f ( $.C S R } } } } _ K S T +.H 9 t S D 4 o . . . . O O o . . X X o ",
". o o . . . . . . . . l l A y , z ~ 2.~ G C F R R I C S R ;.+.P 9 4 x A , o .     . . O . o X X X X ",
". o o . . . . . . . . 9 9 r > , n ( ;.e._ K C S S C S R ;.e.X.I e ; 6 i & . .       . . . . o o X   ",
". . . . . o O . . o . O @ O o , x W +.9.9.~ D a a z I $.9.;._ L 9 O O @ .   .     X . . . X X o o o ",
"X X . . . . o O o o . . . . X ; a I ~ $.;._ D > O a I +.;.+.W S 4 o o .       X . . . . . X X X o o ",
"  X o O O . . . o . . o o .   o 9 L ( +.+.( V &   9 K } +._ W x > o o . . X   . . . . . . . X o o o ",
". . . O o o . . . . . O o . . . , n C N C S x O   4 N S N C S r & o O O o . . . . . . . . . o o o o ",
". . . . . . . . .     . . . . . ; a N N N N a o X : z N N N V 4 O . o O O O o . . . . . .   X o o o ",
". . . . . . . . o       X X X X ; f P W R G f o . ; B I R T G 4 O . . . . . o o . . . . o X X . o o ",
"O . o o . o o o .       X X X   ; g ( e.2.T k & o ; Z ' e.;.P 7 O . . . . . X o o o o o o o . . o o ",
"O . . . o O O . X X X X X X X o ; a T 9.$.L f & o * n Q 2.+.G 4 o . X . . X X o o o o o o o . . . . ",
". . . . . . . . . X   X X X X o & q A E U Z y & o ; g H T P m 4 O . . . . X X o o o   X X o . . . . "
};
