/* XPM */
static char *_58b444ceed4410ff99893b58578c990b80AC0bYu6c3HTTN[] = {
/* columns rows colors chars-per-pixel */
"50 50 155 2 ",
"   c #020617",
".  c #030917",
"X  c #090C16",
"o  c #030718",
"O  c #030A1A",
"+  c #090E1D",
"@  c #05101F",
"#  c #0B111E",
"$  c #15181F",
"%  c #060E20",
"&  c #0A0F20",
"*  c #061121",
"=  c #0C1322",
"-  c #0D1927",
";  c #0E1B29",
":  c #121625",
">  c #141926",
",  c #141B2A",
"<  c #191E2A",
"1  c #1D212D",
"2  c #162532",
"3  c #1F2431",
"4  c gray15",
"5  c #22252D",
"6  c #2B2B2B",
"7  c #212631",
"8  c #252934",
"9  c #2A2C34",
"0  c #252B38",
"q  c #292F3D",
"w  c #2D3037",
"e  c #2E323C",
"r  c #323232",
"t  c #33363D",
"y  c #3B3B3D",
"u  c #2D3140",
"i  c #333643",
"p  c #353A44",
"a  c #3A3D46",
"s  c #393D4A",
"d  c #3E4046",
"f  c #3D414B",
"g  c #434343",
"h  c #43454C",
"j  c #494A4C",
"k  c #464952",
"l  c #4B4E54",
"z  c #4C4E58",
"x  c #4E5057",
"c  c #4F525A",
"v  c #545454",
"b  c #54565B",
"n  c #57595E",
"m  c #5B5B5C",
"M  c #565960",
"N  c #5A5C62",
"B  c #5E6166",
"V  c #5E6169",
"C  c #626364",
"Z  c #636569",
"A  c #66696E",
"S  c #6C6C6C",
"D  c #676A71",
"F  c #6D6F72",
"G  c #6E7072",
"H  c #747474",
"J  c #73767B",
"K  c #76797D",
"L  c #7C7C7D",
"P  c #639D2A",
"I  c #669B31",
"U  c #6B9E38",
"Y  c #77A44A",
"T  c #7EAA52",
"R  c #8EB06C",
"E  c #7C7E81",
"W  c #838383",
"Q  c #858689",
"!  c #87898C",
"~  c #8B8B8B",
"^  c #8F8F90",
"/  c #939393",
"(  c #9C9C9C",
")  c #98B080",
"_  c #9FB08C",
"`  c #9E9FA0",
"'  c #A4A4A4",
"]  c #A5A6A8",
"[  c #ABABAB",
"{  c #ADB0AA",
"}  c #B6B6B6",
"|  c #B7B7B7",
" . c #B6B7B7",
".. c #B5B5B5",
"X. c #B3B3B3",
"o. c gray72",
"O. c #B8B8B9",
"+. c #B9B9B9",
"@. c #BCBFBB",
"#. c #BCBCBC",
"$. c gray74",
"%. c #BDBEBC",
"&. c #BEBFBD",
"*. c gray",
"=. c gray75",
"-. c #BBBBBB",
";. c #C2C6BF",
":. c #C0C0C0",
">. c #C1C1C1",
",. c #C2C3C1",
"<. c gray76",
"1. c #C3C3C3",
"2. c #C3C4C2",
"3. c gray77",
"4. c #C5C5C5",
"5. c gray78",
"6. c #C6C6C6",
"7. c #C4C4C4",
"8. c #C7C8C6",
"9. c #C8C8C7",
"0. c #C8C8C8",
"q. c gray79",
"w. c #CBCBCB",
"e. c #CACACA",
"r. c gray80",
"t. c #CDCDCD",
"y. c #CECECE",
"u. c gray81",
"i. c #CBCBCB",
"p. c #D0D0D0",
"a. c gray82",
"s. c #D2D2D2",
"d. c LightGray",
"f. c gray84",
"g. c #D7D7D7",
"h. c gray83",
"j. c #D3D3D3",
"k. c #D8D8D8",
"l. c gray85",
"z. c #DADADA",
"x. c gray86",
"c. c gainsboro",
"v. c #DDDDDD",
"b. c gray87",
"n. c #DFDFDF",
"m. c #DCDCDC",
"M. c gray88",
"N. c #E1E1E1",
"B. c #E2E2E2",
"V. c #E4E4E4",
"C. c gray90",
"Z. c #E2E2E2",
"A. c gray91",
"S. c #F3F3F3",
"D. c #F8F8F8",
/* pixels */
"o o O O o o o o o o o o O O O o o o o o   o , u s s q : O O O o o o o o o o o o o o o O O O o o o O ",
"o o o     o O o o o o o o O O O o o . , z Q [ o.<.<...] E k = o o o o o o o o o o o O O o o o o o o ",
"    o o o o o o o o o o o o O O o O k ` *.q.r.d.d.d.d.r.5.*./ i o o O o O o o o O O o O o o o o o o ",
"    o o o o o   o o o O o o + + = K | 7.r.d.f.k.k.k.k.f.d.i.<.[ M + O O + % + o O O o o o o o o o o ",
"o o o o o o . . o o o O + + + = G ..<.r.d.k.k.c.c.c.c.k.g.d.i.<.X.V O + * * @ O o o   o o o o o o o ",
"o o o o o o o . o O o O O O O A [ *.q.d.f.k.c.M.M.M.M.c.x.f.r.q.*.[ f + * @ O o o .     o o o o o O ",
"o o o o o o o o o o o o o o 3 ' ..<.r.d.k.c.c.M.M.M.M.c.c.k.d.q.<.../ , + O o o . .   . o o o o o O ",
"O O o o o o o o o o o o o + L [ o.3.r.d.k.c.c.M.M.M.M.c.c.k.d.r.<.o.] M o o o o o o . o O O O O o O ",
"O O o o o o o o o O O O o 7 ( [ o.<.q.d.f.k.c.c.C.C.c.c.k.f.d.q.<.o.[ / = o o o o o o O + + O o O o ",
"+ O o o o o o o O + O O o n ' [ o.<.q.r.d.f.k.c.D.D.c.k.f.d.r.q.<.o.[ ( e O o o o o o O O O O o o o ",
"+ O o o o o o + + @ + O o G ' [ ..*.3.r.d.f.f.k.c.c.k.f.f.d.q.3.*...[ ` c o o o o o o o o O O . o o ",
"O O O O o o o + + + + O o L ( ' [ ..*.2.8.r.r.r.d.d.d.r.q.8.<.*...{ ' ( C o o o o o o o o o O o O O ",
"O + + + + o o O + o o o o L ( ' [ _ P P R 9.q.r.r.r.r.q.;.T P I { [ ( / n o o o o o o o o O O O O O ",
"* = * + O o O + + + o . o H / ( ] { U ) *.<.3.3.q.q.3.3.<.@.Y Y [ ] ( / x o o o o o o o O O O O o o ",
"* - = + O O o O % * + o o B ! / ` [ { ..o.*.*.<.<.<.<.*.*.o.X.{ ] ( / Q d o o o o O o o O O o o o o ",
"@ @ + O O o o o + + + + O h L ~ ( ' ] [ X.....o.o.o.o.....X.[ ] ( / ! L 8 o o o o o o o O o o o O O ",
"O O O O o o o o O + O O o 7 H W ~ / ( ] [ [ [ X.X.X.X.[ [ [ ' ( / ~ L S =     o o o o o o o o o o O ",
"O o o O o o o O + + O o o + v H W ~ / ( ( ' ] ] [ [ ] ] ' ( ( / ! W H h o     o o o o o o o O O + O ",
"o   o o   o o + + + + O O O 8 C H W ! ~ / ( ( ( ( ( ( ( ( / ~ ! E H m : o     o o o o o o o o O o + ",
"O o o   o o o + % * + O o o O d C H L W ! ~ ~ / / / / ~ ! ! W L S C 9 O O O O o o     o o o o o o o ",
"o o o o o O + + * * % o o o O = j C S H L L W W W W W W L L H S m d O O O o o o o o o o o o o o o o ",
"o o o o o o + * * * + O o o O O = h m C S S H H H H H H S S C m y O O O O O o o o o o O O O O O o o ",
"      o o o o + + + O O O O o O o # t v m m C C C C C C m m j 5 O o O O O o o o o o o o o o + + O o ",
"o     o o o o o o o o o o o O O O o o > e j v v v v v v h w + o o o o o o o o o o o o o   o O + O o ",
"o o O O O o . . o o o . . o O O O O p J 1 d L C g g S W 1 t D > o o o   o o o o o o o o o o O O o O ",
"o O O O O o o o O o . . . o o o o p X.k.j C 3.q.q.q.i.*.y L k.( + o o   o o O o O + + o o O O O O O ",
"o o o o O O O O o o o o o o o o + J o.*.4 H f.M.M.M.M.q.j C 3.o.h o o o o O O + * * + o o O + + O o ",
"o o o o o O O O o o o o o o o o 7 ' [ L 9 / d.c.c.c.c.3.W y / X.K # o o o o O + @ * + O o o O O o o ",
". o o o o o o o o o o o o o o = L [ ( a z ' r.c.c.c.c.3.( 8 Z X.o.c o O O o o O O + + O o o o o O O ",
". . o o o o o o o o o o o o o 1 a 7 B = F [ d.k.c.c.k.q.' p 1 Z a l + O O o o o o o o o O o o o O O ",
"o . o o o o . . o O O O o o o > e < = + ^ [ ( W S H ! ] [ b O : 5 <     o O O O o o o o o O O o O O ",
"o o O O o o . . O O O O o     F q.E + 7 ( L r r r r r g / Q o : ..o.f O o o + o o o o o O O O o O O ",
"o o O O o . . O O O @ + O o 7 [ c.A o z S 4 6 r y r 6 4 y ! 7 + [ k.Q = o o O O o o O O O O O O O O ",
"o o o O o   . O O O @ @ O O H d.r.k + v L W / ( X.] ( ~ W L e o E c.o.k . o O + + + o o o O + O O O ",
"o o O O o o o o O * ; - + 9 ` c.[ 8 O l ] o.r.f.A.c.f.q...( 3 O n q.d.E + o O + + O O O o + + O o O ",
"O O O O o o o O + ; 2 , + k [ r.W = + Z ] *.r.k.S.C.k.q...' i o t [ d.( 8 o O O o o o O o + o o o O ",
"o o o o o o o O + = - @ O C [ ..b + h L [ *.r.c.A.M.k.q...] M 0 , W *.( f o o o o + + o o O O o O O ",
"o o o o o o o . o O O + O F ] / 7 e X.S / ( ] [ *.o...[ ( ! W ! # b ] ( l o o o o + O o O O o o o O ",
"o o o o o o . . o O O + + F / m # B *.~ j W ! ~ / / ~ W S v o.[ e 5 L ( h O o o o o + + + o o o o O ",
"o O O o o o o o o o o o o C H > = L X.q.( g W ! ! ! ! H v o.<.[ l O y / p O o     o o + O o o o   o ",
"o O O o o o O o o o o o o t $ o : W [ *.3.( v H L L S C *.3.o.] b o . g 7 o o       o o o o O O o   ",
"o o o o o O O O o O o o o X # o > L ' X.o...' C l j L [ o...[ ( x o . X . . o       o o o o O O O O ",
"o . o o o o O O O O o o o X X o # C ~ ( [ ] / h o   H ( ] ] ( W a o O X     . . o o o o o o   O O O ",
". . O O O o O O O o o o O o . . o a W ! / / L 9     N ! / / W H < O X o o   . o o o o o o o O O O O ",
"o o o O O O o o o o o + O o o o o , W / / ! H :   o j R ~ / ~ n O O + + O o o o o o o o o o O O O O ",
"o o o O o o o o o     o o o o o o O W ' [ ] L : o o h / ] [ ( h o o O + O O O o o o o o o   o O O O ",
"o o o o o o o o O       O O o o   o L X...X.Q & o o a ' ....[ f o o O O o o O O o o o o O o o o O O ",
"O o O O o O O O o                   L ( ' ' L - O O a ~ ' ' / k o o o o o . o O O O O O O O o o O O ",
"O o o o O O + o o . o       O O o O H [ <.X.W , O O a ( o.o.( h o . . o o . o O O O O O O O o o o o ",
"o o o . o o O o o     o O O O O O > H ( <.[ W < O o h / *.*.( z o o o o o . o O O O   o o O o o o o "
};
