/* XPM */
static char *_c960a7b6b664b4fbd5d7b05d4577a2esSlHIJNs9NzreBwB[] = {
/* columns rows colors chars-per-pixel */
"50 50 162 2 ",
"   c #020717",
".  c #020817",
"X  c #030718",
"o  c #030A1A",
"O  c #090E1D",
"+  c #05101F",
"@  c #1B1B1B",
"#  c #060E20",
"$  c #061121",
"%  c #0B1322",
"&  c #0D1927",
"*  c #0E1B29",
"=  c #121625",
"-  c #141926",
";  c #141B29",
":  c #181E2C",
">  c #1C222C",
",  c #1E2431",
"<  c #162532",
"1  c #222222",
"2  c #21242F",
"3  c #2C2C2C",
"4  c #232631",
"5  c #252A34",
"6  c #292B35",
"7  c #292E3A",
"8  c #2B313C",
"9  c #333333",
"0  c #33353C",
"q  c #37383F",
"w  c #3B3B3C",
"e  c #447A0F",
"r  c #050E47",
"t  c #0F054E",
"y  c #05054B",
"u  c #0E0651",
"i  c #070D57",
"p  c #080C56",
"a  c #070D59",
"s  c #0A085C",
"d  c #13165D",
"f  c #313640",
"g  c #353943",
"h  c #3C3F47",
"j  c #3A3D49",
"k  c #190A67",
"l  c #13086E",
"z  c #101573",
"x  c #151974",
"c  c #1D1D7F",
"v  c #181A67",
"b  c #290E75",
"n  c #3C4048",
"m  c #42454B",
"M  c #47494B",
"N  c #4B4B4B",
"B  c #454954",
"V  c #4C4E52",
"C  c #4E5054",
"Z  c #555555",
"A  c #545559",
"S  c #57595E",
"D  c #5B5B5B",
"F  c #555862",
"G  c #5D5F65",
"H  c #5E6269",
"J  c #646464",
"K  c #62656A",
"L  c #66696E",
"P  c #6B6B6B",
"I  c #676970",
"U  c #6B6D72",
"Y  c #6E7176",
"T  c #747475",
"R  c #74767A",
"E  c #77797B",
"W  c #7B7B7B",
"Q  c #68844D",
"!  c #81857E",
"~  c #1B0A8E",
"^  c #242486",
"/  c #3E3B94",
"(  c #451F8E",
")  c #55349F",
"_  c #7D7E82",
"`  c #4647A4",
"'  c #7C4FB6",
"]  c #4B19D2",
"[  c #5225D7",
"{  c #8659BE",
"}  c #8F5CFF",
"|  c #848484",
" . c #8B8B8C",
".. c #92958F",
"X. c #8E8F92",
"o. c #939393",
"O. c #949598",
"+. c #9C9C9C",
"@. c #9FA09F",
"#. c #9AA193",
"$. c #A0A19F",
"%. c #A3A3A3",
"&. c #A5A5A8",
"*. c #ABABAB",
"=. c #A8A8A8",
"-. c #ADADAD",
";. c #AFAFAF",
":. c #ADADAE",
">. c #ABABAC",
",. c #B1B1B1",
"<. c #B2B2B2",
"1. c #B4B4B4",
"2. c #B7B7B7",
"3. c #B3B3B3",
"4. c #B7B7B8",
"5. c #B7B8B8",
"6. c #B8B8B8",
"7. c #BBBBBB",
"8. c gray73",
"9. c #BDBDBD",
"0. c #BFBFBF",
"q. c #BCBCBC",
"w. c gray76",
"e. c #C3C3C3",
"r. c #C0C0C0",
"t. c #C5C5C5",
"y. c #C6C6C6",
"u. c gray78",
"i. c #C4C4C4",
"p. c #C9C9C9",
"a. c #CBCBCB",
"s. c #CACACA",
"d. c #CDCDCD",
"f. c gray80",
"g. c #CFCFCF",
"h. c #CDCDCD",
"j. c #D0D0D0",
"k. c gray82",
"l. c #D2D2D2",
"z. c LightGray",
"x. c #D5D5D5",
"c. c gray83",
"v. c gray84",
"b. c #D7D7D7",
"n. c gray83",
"m. c gray85",
"M. c #D8D8D8",
"N. c #DADADA",
"B. c gray86",
"V. c gainsboro",
"C. c #DDDDDD",
"Z. c #DEDEDE",
"A. c #DADADA",
"S. c gray88",
"D. c #E1E1E1",
"F. c #E2E2E2",
"G. c gray92",
"H. c #EFEFEF",
"J. c #FFE0FF",
"K. c #FFE9FE",
"L. c #F3F3F3",
"P. c #F4F0FF",
/* pixels */
". . o o . . . . . . . . o O o . . O 7 I O.>.6.5.&. .F : o o o . . . . . . . . . . . . . o o . . . o ",
". . .     . . . . . . . . O o o 8 X.4.y.a.d.d.d.d.a.r.,.R = o . . . . . . . . . . . o O . . . . . . ",
"    . . . . . . . . . . . . % H 1.i.a.j.c.c.N.N.c.c.d.a.r.&.j o . . o o o . o . o o . o . . . . . . ",
"    . . . . .   . . . o . % Y 1.r.a.j.b.N.C.C.C.C.N.c.j.a.r.;.B o o o o o # O o o o . . . . . . . . ",
". . . . . . . . . . . o O L ;.9.a.j.c.N.C.S.S.S.C.C.N.c.j.u.9.&.j . o o $ $ O . . . . . . . . . . . ",
". . . . . . . . . o . o m =.6.y.d.c.N.C.C.S.S.S.S.C.C.N.j.a.r.1.O., o # $ + o . . .   . . . . . . . ",
". . . . . . . . . . . -  .;.9.y.d.c.N.N.N.N.C.C.c.N.C.N.c.d.y.6.>.U O o o . . . . .   . . . . . . o ",
"o o . . . . . . . . . B %.,.9.y.d.c.c.c.C.S.S.S.S.N.j.c.j.d.y.6.;.+., . . . . . . . . . o o o o . o ",
"o O . . . . . . . o % R %.,.9.y.d.j.j.N.C.C.L.G.C.C.N.d.j.a.y.6.,.%.A o o . . . . . . o O O o . o . ",
"O o . . . . . . o o ,  .%.,.6.r.a.a.j.c.N.N.L.H.N.N.c.j.a.a.r.6.;.%.E O O o . . . . . o o o o . . . ",
"O . . . . . . o # $ f X.%.;.6.r.y.a.j.j.c.c.N.c.c.c.j.d.y.y.9.1.;.+.| & o . . . . . . . . o X . . . ",
"o o o . . . . O # O g | ..$.=.,.9.y.a.d.j.j.j.j.j.j.d.a.r.r.6.,.=.+.| ; o . . . . . . . . . X . o o ",
"o O o o o . . o o . n Q e #.,.6.9.r.y.a.a.d.d.d.d.a.a.y.9.9.1.;.%.O.| : O . . . . . . . . o o o o o ",
"$ % $ O o . o o O O 0 ! Q @.=.,.1.6.9.r.y.y.y.y.y.y.r.9.1.6.,.=.+.o.E - . . . . . . . . o o o o . . ",
"$ & % O o o o o # $ 5 E  .O.%.=.1.;.6.6.9.9.r.r.9.9.6.1.,.;.=.%.O. .P % . . . . . o . . O o . . . . ",
"$ $ O o o . . . O O ; P | o.O.%.=.;.;.1.1.6.6.6.6.1.1.;.,.&.%.O. ._ A o o . . . . . . . o . . . . . ",
"o . . . . . . o o o O C T | o.O.%.=.&.=.;.,.,.,.;.;.=.=.&.+.O. .| T 0   X     . . . . . . . . . . O ",
"o . . o o o o o o o . 6 P E | X.O.+.&.%.%.&.=.=.&.%.&.%.O.O. .| T J O X X     . . . . . . . O o O O ",
"X X . X X . . o o o O % V P E |  .o.O.+.&.%.%.%.%.%.O.O.o. .| T J 0 X X X     . . . . . . . . . . O ",
"o X . X X X . o # $ o o ; D P T W |  . .o.o.o.o.o. . . .| W T J M O X o o o . . .     . . . . . . . ",
". . . . o o o O $ $ # o X 6 D J T E W | | | | | | | | E T P J V =   X o o o . . . . . . . . . . . . ",
". . . . . . o $ $ $ o o X X 4 Z D J P T T E E E T T T P J D M =     o o o o . . . . . . . . . . . . ",
"    . . . . . O O O o O o o . > M Z D J J J P P J J J D N 6 % . . . o o o . . . . . . . . . O o o . ",
".     . . . . . . . . o o . o O % 6 N Z Z D D D D N w 3 @ . . . . . . . . . . . . . . . . . o o o . ",
". . o o o . . . . . . . . . . . . . o - 5 0 0 w E o. .T 0 o o . . . . . . . . . . . . . . . o o . o ",
". O o o o . . . o . . .   . . . . . .   . . j 1.y.N.c.9.9.B o . . . . . . . . . . O o . . o o o o o ",
". . . . o o o O . . . . . . . . . .     . = ,.6.r.N.S.r.9.O.- . . . . . . . o O # $ O . . o O O o . ",
". . . . . o o . . . . . . . . . .       o L d.6.=.j.S.6.,.%.4 . . o . . . . o O # $ O o . . o o o o ",
". . . . . . . . . . . . . . . . . . . . , >.d.d.&.d.F.y.;.+.5 . . . . o o . . o O O O O . . . . o o ",
".   . . . . . . . . . . . . . o . . O O K y.j.c.1.+.d.,.%.+.6 . . . . o o . . . . o o o o . . . o o ",
". . . . . . . . . o o o . . . . . . o o T a.j.c.a.T N T ;.&.g o . . . . . o . . . . . . . o o . o o ",
". . o O . . . . o o o o . .   . . . . . : ;.c.N.,.O.N =.6.1.U . o o o o . . o . . . . . o o o . o o ",
". . . . . . . o o o + o o . . . . . .   . h d.j.O.d.6.9.j.a._ . o o . . . . o o . o o . . o o o o o ",
". . . . .   . . o o + + o . . . . . .   = 4 P &.,.d.r.%.4.S O . . . .   . . . O O O . . . o O o o o ",
". . o O . . . . o $ * & O . . . . O O o L 4.y. .6.S.y. .&.W 8 o . . .   . . o O O o . . . O O o . o ",
"o o o o . . . o O * < ; O o o . o O O O o.9.r. .r.L.r.| y.+.m o o o . . . . . o o o o . . o o . . o ",
". . . . . . . o O % & + o o . . . o o 8 =.9.6. .1.N.,. .r.O.0 . o O o . o o . . . O o . . o o o . o ",
". . . . . . . . . o o O O o . . . . o K 1.y.6.| 9.c.+.o.9. .> . . o . . . . . . . o o . o o o . . o ",
". . . . . . . . . o o O O o o . . . o m W o.o.W ,.1.| =.9.E % . O . . . . O o . . . O O o . . . . o ",
". o o . . . . . . . . . . . . . . o o O A W  .T &.&.T 9.y._ o . o o . . O O . .   . . O . o X .   X ",
". o o . . . . . . . . . . . . . . . o o - D O.T +.O.| r.y.&.= . . . . . . . .       . . . . o o .   ",
". . . . . o O . . o . . . . . . . . o . . 4  .D T W +.r.9.=.5 . . . . . .   .     . . . . . X o o o ",
". . . . . . o O o O . . . . . . . o o . . O N 9 9 Z ;.6.1.%.f . . . . .       . . . . . . . . X o o ",
"  . o O O . . . o . . o o . . . . . o . . . A 9 1 D ;.,.=.o.4 . o O o . .     . . . . . . . X o o o ",
". . . O o o . . . . . O o . . . . . . .     ; 3 1 T &.;.=. .= . o O O O o . . . . . . . . r a y v d ",
". . . . . . . . .     . . . . . . . . .       q E O.O.o.&.K O . . . O O O O o . . . . . . i s ^ x / ",
". . . . . . . . o       X X . .   . . . . . o ; T +.%.+.| %     . . . . . . o o . . . . o p z c ` P.",
"O . o o . o o o .   . . X X X .     . . . O % % E ,.9.6.9.G .   . . . . . . . o o o o o o t b ( ' K.",
"O . . . o O O . . . . X X X X o . . . . . O 8 U O.;.,.O.1.U o . .     . . . . o o o o o o u k ) { J.",
". . . . . . . . . .   . . X X o o o o O O 8 +.6.d.N.S.d.7.o.; . . . . . . . . o o o   . X l ~ [ ] } "
};
