/* XPM */
static char *_5b28f1257334941c5e598f7a8d8b4c3idHveJgcIED2ZJvf[] = {
/* columns rows colors chars-per-pixel */
"50 50 167 2 ",
"   c #020617",
".  c #020817",
"X  c #030718",
"o  c #030A1A",
"O  c #090D1C",
"+  c #05101F",
"@  c #0B101E",
"#  c #060E20",
"$  c #061121",
"%  c #0C1323",
"&  c #0E1926",
"*  c #0E1B29",
"=  c #121624",
"-  c #151A26",
";  c #1D1E26",
":  c #161C29",
">  c #1A1E2B",
",  c #1C212D",
"<  c #1F2231",
"1  c #1E2936",
"2  c #162532",
"3  c #21252F",
"4  c #2C2C2D",
"5  c #232633",
"6  c #252A35",
"7  c #2A2C35",
"8  c #2C2E38",
"9  c #262C3A",
"0  c #2C313B",
"q  c #363637",
"w  c #35373F",
"e  c #050E47",
"r  c #0F054E",
"t  c #05054B",
"y  c #0E0651",
"u  c #070D57",
"i  c #080C56",
"p  c #070D59",
"a  c #0A085C",
"s  c #13165D",
"d  c #2F3341",
"f  c #313641",
"g  c #353943",
"h  c #3A3D45",
"j  c #3A3F49",
"k  c #190A67",
"l  c #13086E",
"z  c #101573",
"x  c #151974",
"c  c #1D1D7F",
"v  c #181A67",
"b  c #290E75",
"n  c #3F4146",
"m  c #3D424A",
"M  c #444444",
"N  c #43454C",
"B  c #48494D",
"V  c #404350",
"C  c #464951",
"Z  c #4C4E53",
"A  c #4E5155",
"S  c #4F5259",
"D  c #535355",
"F  c #51565D",
"G  c #56585F",
"H  c #5C5D5D",
"J  c #6C7A5E",
"K  c #535760",
"L  c #555862",
"P  c #5D5E63",
"I  c #5C6066",
"U  c #646465",
"Y  c #64666C",
"T  c #676A6F",
"R  c #6C6C6C",
"E  c #6A6C72",
"W  c #646973",
"Q  c #6E717B",
"!  c #747474",
"~  c #74767B",
"^  c #7A7B7B",
"/  c #738B5B",
"(  c #1B0A8E",
")  c #242486",
"_  c #3E3B94",
"`  c #451F8E",
"'  c #55349F",
"]  c #7C7E82",
"[  c #4647A4",
"{  c #7C4FB6",
"}  c #4B19D2",
"|  c #5225D7",
" . c #8659BE",
".. c #8F5CFF",
"X. c #848485",
"o. c #868C80",
"O. c #83858A",
"+. c #87888B",
"@. c #8B8B8B",
"#. c #919C87",
"$. c #959F8A",
"%. c #8D8F93",
"&. c #8F9091",
"*. c #939394",
"=. c #969994",
"-. c #969799",
";. c #979899",
":. c #9B9B9C",
">. c #9F9FA0",
",. c #A3A3A3",
"<. c #A7A7A8",
"1. c gray67",
"2. c #A8A9AA",
"3. c #AEAEAE",
"4. c #ACACAD",
"5. c #ACACAC",
"6. c #AFAFB0",
"7. c #B0B0B0",
"8. c #B3B3B3",
"9. c #B4B5B5",
"0. c #B7B7B7",
"q. c #B3B3B3",
"w. c #B7B7B8",
"e. c #B9B9B9",
"r. c #BBBBBB",
"t. c #BDBDBD",
"y. c #BEBEBE",
"u. c #BBBBBB",
"i. c #C1C1C1",
"p. c gray76",
"a. c #C3C3C3",
"s. c #C5C5C5",
"d. c #C6C6C6",
"f. c #C3C3C3",
"g. c #C7C7C8",
"h. c gray79",
"j. c #C8C8C8",
"k. c #CBCBCB",
"l. c gray80",
"z. c #CDCDCD",
"x. c #CECECE",
"c. c gray81",
"v. c #CBCBCB",
"b. c #D1D1D1",
"n. c LightGray",
"m. c #D2D2D2",
"M. c #D5D5D5",
"N. c gray83",
"B. c #D7D7D7",
"V. c gray84",
"C. c #D2D2D2",
"Z. c #D8D8D8",
"A. c gray85",
"S. c #DBDBDB",
"D. c #DDDDDD",
"F. c gainsboro",
"G. c gray87",
"H. c #DFDFDF",
"J. c #DDDDDD",
"K. c #E1E1E1",
"L. c #E6E7E7",
"P. c #E7E8E8",
"I. c gray91",
"U. c #FFE0FF",
"Y. c #FFE9FE",
"T. c #F3F3F4",
"R. c #F4F0FF",
/* pixels */
". . o o . . . . . . . . o O o . . . . . X < K O.,.9.2.%.Y f % . X X X X X . . . . . . . o o . . . o ",
". . .     . . . . . . . . O o o . . . . X < K O.,.9.2.%.Y d % . X X X X X X . . . . o O . . . . . . ",
"    . . . . . . . . . . . . o o . . . 0 ] 7.a.g.x.x.x.h.d.w.@.V % . o . o . o . o o . O . . . . . . ",
"    . . . . .   . . . o . . O o . % K ,.y.h.m.B.B.A.B.B.m.x.a.5.E 5 o o o # O o o o . . . . . . . . ",
". . . . . . . . . . . O O O O o $ E 2.a.h.m.A.A.D.D.D.A.A.m.x.f.7.~ 9 O $ $ O . . .   . . . . . . . ",
". . . . . . . . . . . o o O o O F <.y.h.m.B.A.D.K.K.K.D.D.A.m.h.a.5.E 1 $ + . . . X     . . . . . o ",
". . . . . . . . . . . . . . . f ;.r.a.x.B.A.D.D.D.D.D.D.D.A.B.x.d.r.>.F & . . X X X   X . . . . . o ",
"o o . . . . . . . . . . . . @ ~ 2.r.d.x.B.A.B.A.D.D.D.A.A.A.B.x.g.y.5.] 0 . . . . X   . o o o o . o ",
"o O . . . . . . . o o o . . f -.5.y.d.x.m.m.A.D.D.K.K.D.A.B.m.x.d.y.7.:.S - . . . . . o O O o . o . ",
"O o . . . . . . o o O o . . G :.5.r.d.h.x.m.A.D.I.T.I.D.A.B.x.h.d.y.7.,.T j . . . . . o o o o X . . ",
"O . . . . . . o # $ O o o o E :.5.r.a.h.h.m.B.B.D.L.D.A.B.m.x.h.a.r.7.,.^ L . . . . . . . o X X . . ",
"o o o . . . . O # O O o % % ^ :.2.9.y.a.h.x.m.m.B.B.B.m.m.x.h.a.r.7.2.:.^ T . . . . . . . . X . o o ",
"o O o o o . . o o o . . : : ^ ;.<.7.r.y.d.h.x.x.x.x.x.x.x.h.a.y.r.7.$./ J ! . . . . . . . o o o o o ",
"$ % $ O o . o o O O . . - : ! *.,.2.7.9.y.a.d.h.h.h.h.h.d.a.y.r.9.5.#./ J E . . . . . . o o o o . . ",
"$ & % O o o o o # $ o . $ $ Y +.:.,.2.9.9.r.y.a.a.a.a.a.y.r.9.7.5.<.=.o.R H . . . o . . O o . . . . ",
"$ $ O o o . . . o o o o o o A X.*.:.,.5.5.7.9.r.r.r.r.r.9.7.7.5.<.:.*.X.P m . . . . . . o . . . . . ",
"o . . . . . . o o o o o . . f ! X.*.:.,.2.2.5.7.7.7.7.7.5.2.<.,.:.*.+.^ B 3   X X . . . . . . . . O ",
"o . . o . o o o o o o . . o - P ^ X.@.;.:.<.<.<.2.2.<.<.<.<.:.:.*.+.^ U 0 O   . . . . . . . O o O o ",
"X X X X X X . o o o O o o o o g U ^ X.@.*.:.:.,.,.,.,.,.:.:.*.@.X.^ R B -     . . . . . . . . o . O ",
"o X X X X X . o # $ o o X X X = B U ! ^ X.+.@.;.;.*.;.;.*.+.X.X.^ R D 5 O o . . .     . . . . . . . ",
". . X . o O o O $ $ # o X X o o , Z U R ! ^ X.X.X.X.X.X.X.^ ^ ! Y D 8 % o o . . . X . . . . . . X X ",
". . . . . . o $ $ $ o o X X o . o 3 M H U R ! ! ! ^ ^ ! ! R Y U Z 7 = o o o . . . . . . . . . o . . ",
"    X . . . . O O O o O o o . o . o - 7 M D H U U U U U U H D n 3 @ o o o . . X X X . . . . O O o . ",
"X     . . . . . . . . o o . o O o . . @ 4 B H U D D D B N h 7 - O . . . . . . . X . . . X X o o o . ",
". . o o o . X X . . . . . . . . . . . 8 R X.:.:.X.Z 0 3 > = @ . . . . X X . . . . . . . . . o o o o ",
". O o o o . . . o . . .   . . . . . = ~ 6.h.B.x.9.X.0 O . o o . . . . X . . . . o O o . . o o o o o ",
". . . . o o o O . . . . . . . . . . f ,.5.m.D.x.9.r.E : . . o . . . . . . . o O $ $ O . . o O O o . ",
". . . . . o o . . . . . . . . . .   C >.<.m.D.y.9.h.<.j O . . . . o . . . . o O $ $ O o . . o o o o ",
". . . . . . . . . . . . . . . . . . C :.<.m.m.5.a.x.a.E : . . . . . . o o X . o O O O o . . . . o o ",
"X   . . . . . . . . . . . . . o . . S ,.,.,.;.<.h.m.h.@.6   . . . . . o o . X . o o o o o . . X o o ",
". . . . . . . . . o o o . . . . . O E 5.5.! U ,.x.B.d.~ >   X o . X   X . o o o . . . . . o o X o o ",
". . o O . . . . o o o o .     X . & ] r.d.:.:.2.a.x.:.g o X X X o o o o . . o . . . . . o o o . o o ",
". . . . . X . o o o + o o . . . . @ Z -.y.2.h.y.5.5.T 6 O . . . o o . . . . o o . o o o o o o o o o ",
". . . . .   . o o o + + o . . . . . 5 E <.,.m.h.:.:.+.I < . . . . . X X . . o O O O . . . o O o o o ",
". . o O . . . . o $ * & O . . . . O G <.9.:.B.m.,.7.y.:.g O . o . . X X X . o O O o . . . O O o . o ",
"o o o o . . . o O * 2 : O o o . . O A ,.r.*.h.m.,.5.y.7.F & . . o o . . . . . o o o o . . o o . . o ",
". . . . . . . o O % & + o o . . . o j ;.y.+.9.x.:.<.w.7.E , . . o O o . o o . . . O o . . o o o . o ",
". . . . . . . . . o o O O o . X . . 7 &.r.*.,.y.;.;.,.;.P > . . . . . . . . . . . o o . o o o . X o ",
". . . . . . . . . o o O O o o . . . > -.a.:.;.2.@.+.X.U 7 o . . O . . . . O o . . . O O o . . X X o ",
". o o . . . . . . . . . . . . . . o f <.d.5.@.:.^ +.! w @   X . o o . . O O . .   . . O . o X X   X ",
". o o . . . o . . . . . . . . . . . Z <.y.r.X.^ H ! Z =       X . . . . . . .       . . . . o o X   ",
". . . . . o O . . o . . . . . . . . S :.9.w.+.M 4 M 7 O X X . . . . . . X   .     X . . . X X o o o ",
"X X . . . . o O o O . . . . X . . o m *.2.6.;.M 4 M > X X o . . . . . .       X . . . . . X X X o o ",
"  X o O O . . . o . . o o . X X . . 0 +.<.<.:.H q ; O X X o . . o O o . .     . . . . . . . X o o o ",
". . . o o o . . . . . O o . . . . . = P :.@.:.+.D =   X X X . . o O O O o . . . . . . . . e p t v s ",
". . . . . . . . .     . . . . . . . . j :.2.5.;.h O X X o X . . . . O O O O o . . . . . . u a ) x _ ",
". . . . . . . . o       X X X X X . o X.9.7.r.,.N = o o o X X X . . . . . . o o . . . . o i z c [ R.",
"O . o o . o o o .     X X X X   X   > @.5.2.r.y.5.~ 0 $ o . X X . . . . . . . o o o o o o r b ` { Y.",
"O . . . o O O . X X X X X X X o . . N :.d.P.T.L.h.q.] 6 o . . . . X X . . X X o o o o o o y k '  .U.",
". . . . . . . . . X   X X X X o o o 6 C K W Q Q Y K N > o . . . . . . . . X X o o o   X X l ( | } .."
};
