/* XPM */
static char *_5e7092dca584352d0d10b1992971c87RbzsGQU60X0XoFUF[] = {
/* columns rows colors chars-per-pixel */
"50 53 132 2 ",
"   c None",
".  c #275E74",
"X  c #255F7C",
"o  c #2B6075",
"O  c #25617F",
"+  c #2A627B",
"@  c #31657A",
"#  c #33697C",
"$  c #1A5F89",
"%  c #145F92",
"&  c #1D618C",
"*  c #1B6492",
"=  c #16669C",
"-  c #19669A",
";  c #1B699E",
":  c #236183",
">  c #2E6780",
",  c #22658A",
"<  c #266A8F",
"1  c #2D6889",
"2  c #346B83",
"3  c #206793",
"4  c #24709E",
"5  c #2D739E",
"6  c #1767A2",
"7  c #1669A1",
"8  c #1C6DA4",
"9  c #1F6EA9",
"0  c #1F70A6",
"q  c #1E71AA",
"w  c #206EA5",
"e  c #206FAA",
"r  c #2070A6",
"t  c #2971A1",
"y  c #2174AC",
"u  c #3078A8",
"i  c #2176B1",
"p  c #2279B5",
"a  c #2B7CB3",
"s  c #247DBA",
"d  c #41758F",
"f  c #267EC0",
"g  c #2580BE",
"h  c #2C81BB",
"j  c #3081B7",
"k  c #3284BC",
"l  c #2684C3",
"z  c #2B86C3",
"x  c #2787C8",
"c  c #2986C9",
"v  c #2788C9",
"b  c #288ACC",
"n  c #3386C0",
"m  c #358AC4",
"M  c #3A8CC3",
"N  c #358DC9",
"B  c #3A8FC8",
"V  c #3D92CB",
"C  c #2A8DD1",
"Z  c #318ED4",
"A  c #2E90D2",
"S  c #3494D5",
"D  c #3B95D2",
"F  c #3D98D6",
"G  c #3C9ADA",
"H  c #4296CF",
"J  c #4295CD",
"K  c #4092CA",
"L  c #4796D1",
"P  c #4499D3",
"I  c #479AD3",
"U  c #4798D4",
"Y  c #4A9CD4",
"T  c #4A9DD5",
"R  c #4B9ED6",
"E  c #429DDA",
"W  c #469DD8",
"Q  c #459EDA",
"!  c #439EDC",
"~  c #489ED8",
"^  c #4C9FD8",
"/  c #499FDA",
"(  c #47A0DD",
")  c #46A1DE",
"_  c #4DA0D8",
"`  c #4DA1DA",
"'  c #4FA2DB",
"]  c #4AA1DC",
"[  c #49A2DF",
"{  c #51A3DB",
"}  c #50A3DC",
"|  c #51A4DC",
" . c #51A4DD",
".. c #52A5DD",
"X. c #52A5DE",
"o. c #54A7DF",
"O. c #4DA5E1",
"+. c #4EA5E0",
"@. c #4AA3E0",
"#. c #52A4E2",
"$. c #54A7E0",
"%. c #52A6E3",
"&. c #55A8E0",
"*. c #55A8E1",
"=. c #55A9E2",
"-. c #57AAE2",
";. c #57AAE3",
":. c #57ACE6",
">. c #55AAE5",
",. c #59A8E3",
"<. c #58ABE4",
"1. c #5AADE5",
"2. c #59ADE6",
"3. c #5DACE7",
"4. c #5AADE6",
"5. c #59AEE8",
"6. c #5AAFE8",
"7. c #5EADE8",
"8. c #5CADE9",
"9. c #5DB0E8",
"0. c #5EB1E9",
"q. c #5EB1EA",
"w. c #5FB2EA",
"e. c #5DB1EA",
"r. c #60B2EA",
"t. c #61B4EC",
"y. c #63B5ED",
"u. c #64B6ED",
"i. c #65B7EE",
"p. c #66B7EE",
"a. c #63B5ED",
"s. c #67B8EF",
/* pixels */
"                                              o o                                                   ",
"                                          & j o.9.V ; O                                             ",
"                                      : j <.X.k a L 1.M *                                           ",
"                                    a 1.} h y y e y p ^ 3.j :                                       ",
"                                5 { X.n y y y y i y y y k ' -.a +                                   ",
"                            1 J -.n i i i p p p p p p i i i n $.' 4                                 ",
"                        + j -.V i p p p s p s s s s s p p p p i B -.K <                             ",
"                      t { J p p p s s s s g g g s s g s s s s s p i V -.j +                         ",
"                  < V U p p p s s g s s l l l l l l l f g g g s s s p p J X.y                       ",
"              o a V p i p s s g g g l l l l x l l l l l l l l g g s s s p p Y J ,                   ",
"            ; k y i p p s g g l l l l x x x x l x x x x x x l l l g g s s p i p Y j ,               ",
"        3 w y y i p p s g g l l l x x x x v v v v v v c x x x x l l l g s s p i p k k u             ",
"      - 8 w y y p p s g g l l x x c v v v v b b b b v v v v v x x l l f g s s p i y y a a *         ",
"    * 8 r y y i p s g g l l x x v b v b b b b b b b b b b b v v c x x l l g s s p i y y r 8 .       ",
"    - 8 y y i p s g l l l x x v b b b b b b C b b b b b b b b v v v x x l l g s p p i y r 8 :       ",
"    ; r y i p s s g l l x x c b b b b b C C C C C C C C C b b b b b v x x l l g s p i y y w *       ",
"    8 y k p p s g l l x c c b b b b C C C C C C C C C C C C b b b b v v x x l f s s p i y a =       ",
"    8 y m X.P z g l x x v b b b C C C C C C C C C C C C C C C b b b b b v x x l g s h J Y a =       ",
"    8 y i z ' 9.~ b x v b b b b C C C C C C C C C C C C C C C C C b b b v x x l l D ,.P a y 6       ",
"    q i p s g D 7.9.Q b b b b C C C C C C C C C C C C C C C C C C C b b b v x D -.-.N p i y 6       ",
"    y i p s g l c [ t.5.E b C C C C C C C C C C C C C C C C C C C C b b b S #.r.Q x s s p y 8       ",
"    y i p s g l x x F 9.i.:.G C C C C C C C C C C C C C C C C C C C C C ) t.9.D l l g s p y 8       ",
"    y i p s g l x v c C O.i.i.5.G A C C C C C C C C C C C C C C C C G 9.i.O.b x x l g s p i 8       ",
"    y p s g f l x v b b b S 9.s.s.9.G C C C C C C C C C C C C C ! 9.s.9.F b c v x l g s p i q       ",
"    y p s g l l x v b b b C C @.i.s.s.9.[ S A C C C C C C S ) 9.s.s.%.A b b v v x l f s p i q       ",
"    i p s g l l x v b b C C C C G y.s.s.s.y.>.! S S S E #.t.s.s.i.) C C b b v v x l l s p i q       ",
"  d i p s g l l x v b b C C C C C S :.s.s.s.s.s.i.i.i.s.s.s.s.y.S C C C b b v v x l g s p p q       ",
"  d i p s g l l x v b b b C C C C C C >.s.s.s.s.s.s.s.s.s.s.9.S C C C C b b b v x l f s p i q       ",
"  2 y p s g l l x v b b C C C C C C C C >.s.s.s.s.s.s.s.s.9.Z C C C C C b b v x x l f s p i q       ",
"  # y p s g l l x v v b b C C C C C C C A 9.s.s.s.s.s.s.t.S C C C C C C b b v x x l g s p i 9       ",
"  @ y p p s l l x v b b b C C C C C C C C G s.s.s.s.s.s.) C C C C C C C b b v x x l g s p i q       ",
"  @ y i p s f l x x v b b C C C C C C C C C :.s.s.s.s.i.C C C C C C C b b b v x l l s s p i q       ",
"  @ y i p s g l x x v v b b C C C C C C C C ! s.s.s.s.>.C C C C C C C b b v x x l l s s p y 8       ",
"  @ y i p s g l l x x v b b C C C C C C C C C i.s.s.s.G C C C C C C b b b v x l l g s p i y 8       ",
"  @ y y i p s g l l x v b b b C C C C C C C C 9.s.s.s.S C C C C C b b b v c x l l g s p i y 6       ",
"  @ r y i p s g l l x c c b b b C C C C C C C %.s.s.s.A C C C C C b b b v x x l g s p p y y 6       ",
"  @ 8 y y p p s g l l x v v b b b C C C C C C ) s.s.t.C C C C b b b b v x x l l g s p i y r 6       ",
"  X 8 w y i p s s f l x x v v b b b b C C C C G s.s.7.C C C b b b v v x x l l g s p i y y w ;       ",
"    8 w y y i p s g l l x x v v v b b b b C C S s.s.>.b b b b b v v x x l l g s p p i y r 8 =       ",
"    ; 8 r y y p p s g l l l x x v v b b b b b C s.s.#.b b b v v v x x l l g s s p i y y w 8 %       ",
"    & ; 8 y y i p p s g l l l x x v v v v v b v s.s.[ v v v v v x l l l g s s p i y y w 8 *         ",
"      $ - 8 y y i p s s g g l l l x x x v v v v 9.s.Q v c x x x l l l g s s p i y y 0 ; &           ",
"          $ 6 y y i p p s g g l l l l x x x x x 1.s.F x x x l l l l g s s p p y y 8 &               ",
"              & q i i p p s s g g l l l l l l x $.s.D l l l l l g s s s p i y y = +                 ",
"                  - y i i p p s s s g l l l l l ~ s.N l l g g g s s p p i i 8 :                     ",
"                    : 6 i i p p p s s s g g g g V i.g g s s s p p p i i q *                         ",
"                        & q i i p p p p s s s s s m s s p p p p i i i - +                           ",
"                            - q i i i i p p p p p p p p p i i i i 8 :                               ",
"                              O 7 i i y y y i i i i i y y y i q &                                   ",
"                                  : 8 i y y y y y y y y y q -                                       ",
"                                      * q i y r w y y i 7 :                                         ",
"                                        + = q i i i 8 &                                             ",
"                                            + > 2 +                                                 "
};
