/* XPM */
static char *efef580c9a954030dc81e0c7d50fd2b1hzq5JlfMux7aZJnh[] = {
/* columns rows colors chars-per-pixel */
"50 53 132 2 ",
"   c None",
".  c #75274A",
"X  c #7D2549",
"o  c #762B4D",
"O  c #7B2A4D",
"+  c #7B3153",
"@  c #93143D",
"#  c #8C1C44",
"$  c #9D1641",
"%  c #931B44",
"&  c #9C1A44",
"*  c #9C1F49",
"=  c #A21643",
"-  c #A31A46",
";  c #A51E4A",
":  c #AB1E4B",
">  c #B01F4E",
",  c #852147",
"<  c #832449",
"1  c #8C234A",
"2  c #80294D",
"3  c #92234B",
"4  c #9F244E",
"5  c #812E51",
"6  c #8A2D51",
"7  c #9F2D55",
"8  c #853053",
"9  c #833758",
"0  c #A6204B",
"q  c #AC214E",
"w  c #B1214F",
"e  c #AD2451",
"r  c #A22952",
"t  c #B42251",
"y  c #BC2455",
"u  c #B32A56",
"i  c #B52D59",
"p  c #BC2C5A",
"a  c #A93059",
"s  c #BA315D",
"d  c #BF3461",
"f  c #C02557",
"g  c #C42659",
"h  c #C8275B",
"j  c #C32C5D",
"k  c #CD285D",
"l  c #D1295F",
"z  c #CC2E61",
"x  c #D22B61",
"c  c #C23462",
"v  c #CA3565",
"b  c #C43A66",
"n  c #CB3D6B",
"m  c #D53165",
"M  c #D63569",
"N  c #D8376A",
"B  c #D33C6C",
"V  c #DA3A6D",
"C  c #D9396C",
"Z  c #D93A6D",
"A  c #D73F70",
"S  c #DB3E71",
"D  c #DC3F71",
"F  c #8F4160",
"G  c #904160",
"H  c #CB406D",
"J  c #CF416F",
"K  c #CD436F",
"L  c #D04270",
"P  c #D24773",
"I  c #D44473",
"U  c #D54774",
"Y  c #D44775",
"T  c #DB4273",
"R  c #DB4575",
"E  c #D94675",
"W  c #DE4777",
"Q  c #DE4475",
"!  c #D54A77",
"~  c #D64A77",
"^  c #D94877",
"/  c #D74B78",
"(  c #DD4A79",
")  c #D94C7A",
"_  c #D94D7A",
"`  c #DB4D7B",
"'  c #DC4F7C",
"]  c #DD4A79",
"[  c #DD507E",
"{  c #DC517E",
"}  c #DD517E",
"|  c #DE517E",
" . c #DE527F",
".. c #DF527F",
"X. c #E24D7D",
"o. c #E14E7D",
"O. c #E1497A",
"+. c #E4507F",
"@. c #E35280",
"#. c #E05481",
"$. c #E15481",
"%. c #E15582",
"&. c #E25582",
"*. c #E35583",
"=. c #E35784",
"-. c #E45785",
";. c #E75786",
":. c #E55482",
">. c #E85786",
",. c #E55885",
"<. c #E45985",
"1. c #E75987",
"2. c #E65A87",
"3. c #E75A87",
"4. c #E95987",
"5. c #E95A88",
"6. c #E85D89",
"7. c #E95D8A",
"8. c #E95E8A",
"9. c #EA5E8B",
"0. c #EB5E8C",
"q. c #EB5F8C",
"w. c #EB5D8B",
"e. c #EB608D",
"r. c #ED618E",
"t. c #ED628E",
"y. c #EE6390",
"u. c #EE6491",
"i. c #EF6591",
"p. c #EF6692",
"a. c #EF6491",
"s. c #F06793",
/* pixels */
"                                              o o                                                   ",
"                                          # s &.7.n & <                                             ",
"                                      < s 2.{ d i P 2.b %                                           ",
"                                    u 2.{ p q q q q u ) 7.s ,                                       ",
"                                7 { { c q q w w w q w q s ' &.u O                                   ",
"                            6 K &.c w t t t t t t t t t t t c &.) 4                                 ",
"                        O s =.n t t t t y y y y y y y y y t t t n ;.H 3                             ",
"                      r { K t t t y y y y y y y y y y y y y y y t t n ;.s 2                         ",
"                  1 n U t t y y y y y y f f f f f f f f f f y y y y t t L { e                       ",
"              o i n t t t y y y y f f f f f g g f f g f f f f f y y y y t y ! K 1                   ",
"            * d e w t y y y f f f f g g g h h h h h g g g g f f f f y y y t t u / s 1               ",
"        3 0 e q t t y y y f f f g g g h h k k k k k k h h h g g f f f y y y t t t d d a             ",
"      & ; 0 q w t t y y f f g g h k k k k k k k k k k k k k k h g g f f f y y t t q e i u %         ",
"    % ; 0 q w t t y y f f g h h k k k k k k k k k k k k k k k k k g g f f f y y t t q q q - .       ",
"    & ; q q t t y y f f g g h k k k l l k l l l l l l k k k k k k k h g f f f y y t w q 0 ; ,       ",
"    - 0 q w t y y f f g g h k k k k l l l l l l l l l l l l k l k k k h g f f y y t t q q 0 %       ",
"    - q c t y y y f f g k k k k k l l l l l l l l l l l l l l l k k k k h g f f y y t t t u $       ",
"    ; q b { I j f f g h k k k k l l l l l l l x x x x l l l l l l k k k k g g f y y p K ! u $       ",
"    ; q t j ) 7.^ z h k k k k l l l l l x x x x x x x x x l l l l l k k k h g f g B 2.U u q -       ",
"    : w t y y B 7.7.R z k k l l l l x x x x x x x x x x x x x l l l k k k k h B ;.&.v y t q -       ",
"    q t t y y f z ( y.5.T x l l l x x x x x x x x x x x x x x l l l l k k M @.e.R j y y t w -       ",
"    q t t y f f g h Z q.i.;.V x l x x x x x x x x x x x x x x x l l l x W r.0.B g f y y t w ;       ",
"    q t y y f f g k k x X.i.i.4.V x x x x x x x x x x x x x x l x x S 0.i.X.z h g f f y t w ;       ",
"    q t y y f g h k k k l N 7.s.s.7.D x x x x x x x x x x x x x T 7.s.q.V k k h g f f y t t :       ",
"    w t y y f g h k k k l l x O.i.s.s.q.O.m x x x x x x x m W 5.s.s.@.x l k k k g f f y t t :       ",
"    w t y y f g h k k l l l l l V r.s.s.s.r.;.T N M M D +.r.s.s.i.W x l l k k h g g f y y t :       ",
"  G t t y y f g h k k k l l l x x m >.s.s.s.s.s.i.i.i.s.s.s.s.r.V l l l l k k k g f f y y t :       ",
"  F w t y y f g h k k k l l x x x x x :.s.s.s.s.s.s.s.s.s.s.0.M l x l l l k k k g f f y y t :       ",
"  9 w t y y f g h k k k l l l l x x x x ;.s.s.s.s.s.s.s.s.q.m x x l l l l k k h g f f y t t :       ",
"  + w t y y f g g k k k l l l x x x x x x 0.s.s.s.s.s.s.y.M x x x l l l k k k h g f f y t t :       ",
"  + w t y y f f g k k k l l l x x x x x x V s.s.s.s.s.s.W x x l x l l l k k k h g f f y t t :       ",
"  + q t t y f f g h k k k l l l x x x x x x ;.s.s.s.s.i.x x x l x l l l k k k h g f y y t w :       ",
"  + q t t y y f g h k k k l l l l x x x x x T s.s.s.s.@.x x x x l l l k k k h g f f y y t w ;       ",
"  + q w t y y f f g h k k l l l l l x x x x x i.s.s.s.D x x x l l l l k k k h g f f y t t q -       ",
"  + q q t y y f f g h k k k l l l l l x x x l 7.s.s.s.M x l l l l l l k k k h g f y y t t q -       ",
"  + 0 q t t y y f f g h k k k l l l l l l x x @.s.s.s.x x l l l l l k k k h g f f y t t q q -       ",
"  + ; q w t t y y f g h k k k k l l l l l l x W s.s.r.x l l l l k k k k h g f f y y t t q q -       ",
"  X ; 0 q w t y y f f g h k k k k k l l l l l D s.s.7.l l l l k k k k h g f f y y y t q q 0 &       ",
"    ; 0 q q t t y y f f g h k k k k k k l l l M s.s.:.l l k k k k k h g g f f y t t w q q ; $       ",
"    - ; 0 q w t y y y f f g g h k k k k k k k x s.s.@.k k k k k k h g g f f y y t t q q 0 ; @       ",
"    # - ; q q w t y y y f f g g h k k k k k k k s.s.( k k k k k g g f f f y y t t q q 0 ; %         ",
"      # $ ; q q w t y y y f f f g g h h k k k k q.s.W k k h g g g f f y y y t t w q ; * #           ",
"          # - q q t t y y y f f f f g g g g h h 2.s.A g g g g f f f y y y t t w q ; %               ",
"              # : w w t y y y y f f f f f g g g &.s.B g f f f f y y y y t t w q $ O                 ",
"                  & q w t t y y y y y f f f f f ] s.v f f f y y y y y t t w - <                     ",
"                    < = w t t t y y y y y y y f n i.y y y y y y y t t t : %                         ",
"                        # : t t t t t t y y y y y c y y y t t t t w w & O                           ",
"                            % : t t t t t t t t t t t t t t w w t - <                               ",
"                              < = w t w w w w w w w w w q q w : #                                   ",
"                                  , - t w q q q q q q q w > $                                       ",
"                                      % : t q 0 0 q q t = ,                                         ",
"                                        O $ : t w t - #                                             ",
"                                            O 5 8 O                                                 "
};
