/* XPM */
static char *a079f411993d4f84cf9a49e8612a1be4U0x635dfkUtHBz8X[] = {
/* columns rows colors chars-per-pixel */
"50 50 174 2 ",
"   c None",
".  c #0A161C",
"X  c #0A1C1C",
"o  c #171817",
"O  c #11171A",
"+  c #151A1C",
"@  c #1B1B1A",
"#  c #012D1F",
"$  c #152517",
"%  c #122A17",
"&  c #162419",
"*  c #142A18",
"=  c #0B3B15",
"-  c #0D3619",
";  c #031623",
":  c #051925",
">  c #0B1C27",
",  c #021A2B",
"<  c #0C1D29",
"1  c #141C22",
"2  c #101E28",
"3  c #011D32",
"4  c #022626",
"5  c #012C25",
"6  c #012129",
"7  c #09222E",
"8  c #022F2D",
"9  c #112A21",
"0  c #023424",
"q  c #013823",
"w  c #0A2435",
"e  c #05253B",
"r  c #092639",
"t  c #122C3E",
"y  c #0B4217",
"u  c #024B1B",
"i  c #0B491B",
"p  c #065B17",
"a  c #01541D",
"s  c #085D18",
"d  c #05551B",
"f  c #04671A",
"g  c #086019",
"h  c #046B1A",
"j  c #066716",
"k  c #027315",
"l  c #037C15",
"z  c #03721A",
"x  c #017D1A",
"c  c #0B7E1A",
"v  c #014021",
"b  c #0E4429",
"n  c #025C25",
"m  c #015627",
"M  c #024939",
"N  c #025C3D",
"B  c #02543D",
"V  c #166C23",
"C  c #01762E",
"Z  c #026B39",
"A  c #026337",
"S  c #032740",
"D  c #042A44",
"F  c #0D2F47",
"G  c #022E4D",
"H  c #0A2F48",
"J  c #023C45",
"K  c #03324D",
"L  c #0A314C",
"P  c #023B4C",
"I  c #0A3345",
"U  c #113249",
"Y  c #023152",
"T  c #01355A",
"R  c #01385F",
"E  c #043955",
"W  c #003B64",
"Q  c #003D69",
"!  c #024645",
"~  c #024B46",
"^  c #014B4D",
"/  c #024449",
"(  c #025342",
")  c #00584E",
"_  c #00495E",
"`  c #005559",
"'  c #22475E",
"]  c #016247",
"[  c #064962",
"{  c #1F5A7C",
"}  c #215C7E",
"|  c #0F607B",
" . c #018116",
".. c #028B17",
"X. c #01831B",
"o. c #01891B",
"O. c #019417",
"+. c #019E19",
"@. c #01A516",
"#. c #03A719",
"$. c #02B319",
"%. c #09B41E",
"&. c #04BB1B",
"*. c #148B21",
"=. c #01942E",
"-. c #1C9E28",
";. c #169925",
":. c #028233",
">. c #018830",
",. c #00853E",
"<. c #019230",
"1. c #01A52C",
"2. c #05AC25",
"3. c #06B124",
"4. c #13B024",
"5. c #00AA32",
"6. c #28BC34",
"7. c #01C41A",
"8. c #01DD1D",
"9. c #00E51E",
"0. c #00ED1E",
"q. c #00F81F",
"w. c #01CB24",
"e. c #01C327",
"r. c #01D625",
"t. c #01D923",
"y. c #00ED20",
"u. c #00FD20",
"i. c #39DF43",
"p. c #3EE948",
"a. c #3AE345",
"s. c #41E94A",
"d. c #215F82",
"f. c #0B6E86",
"g. c #0E718A",
"h. c #12738C",
"j. c #1B738D",
"k. c #147690",
"l. c #167994",
"z. c #26678B",
"x. c #29748E",
"c. c #2C6F93",
"v. c #297A95",
"b. c #32769A",
"n. c #467086",
"m. c #407E9E",
"M. c #298BAC",
"N. c #2588A7",
"B. c #3989AB",
"V. c #3795BA",
"C. c #4787A5",
"Z. c #4E97BA",
"A. c #5599B9",
"S. c #3DA0C7",
"D. c #56A4C9",
"F. c #52AAD3",
"G. c #4EB1DE",
"H. c #65ACCB",
"J. c #6EB3D2",
"K. c #77BCDA",
"L. c #52B4E2",
"P. c #5ABCED",
"I. c #56B8E8",
"U. c #68C1EC",
"Y. c #7DC5E6",
"T. c #86B0BF",
"R. c #83C1D9",
"E. c #98C7D7",
"W. c #8FCEE8",
"Q. c #87CBE9",
"!. c #91CFE8",
"~. c #96D1E6",
"^. c #9BD3E7",
"/. c #A2D5E6",
/* pixels */
"                                                                                                    ",
"                                                                                                    ",
"                                                                                                    ",
"                                                                                                    ",
"                                                                                                    ",
"                                                                                                    ",
"                                                                                                    ",
"                                                                                                    ",
"                                                                                                    ",
"                                          Z.D.F.F.F.F.B.x.                                          ",
"                                    Z.J.Y.P.P.P.P.P.P.V.l.h.j.j.                                    ",
"                                  D.R.~.W.P.P.P.P.P.P.L.S.h.f.h.j.                                  ",
"                                K.^./.~.U.P.P.P.P.P.P.P.P.G.N.h.f.k.x.                              ",
"                              J.^././.Y.P.P.P.P.P.P.P.P.P.P.L.M.f.f.h.b.                            ",
"                            H.~././.^.P.P.P.P.P.P.P.P.P.P.P.P.I.k.f.f.h.                            ",
"                          A.K./././.Q.P.P.P.P.P.P.P.P.P.P.P.P.P.M.f.f.g.x.                          ",
"                          H.!./.E.T.C.b.z.} { { { { } d.z.c.b.B.V.h.f.f.j.                          ",
"                          m.n.' L G G G G G G G G G G G G G G G G K E [ |                           ",
"                      r D D D G G G G G G G G G G G G G G G G G G G D D G L                         ",
"                  t G K Y Y Y Y Y Y Y Y Y Y Y Y Y Y Y Y Y Y Y Y Y Y Y Y Y G e w                     ",
"            U H K Y Y Y Y Y Y Y Y Y K ~ K Y Y Y ( Z Y Y Y Y K / Y Y Y Y Y Y Y D , :                 ",
"        F K Y Y Y Y Y Y Y Y Y Y Y Y C w.N Y Y Y 3.y.J Y Y K :.e.( Y Y Y Y Y G e , , , , >           ",
"      K Y Y Y Y Y Y Y Y =.1.! Y Y Y 2.q.:.Y Y Y e.u.M Y Y ~ r.u.N Y Y Y J n 8 , , , , , , , :       ",
"    K T R Y Y K Y Y Y Y <.r.Z Y Y Y A w.Z Y Y Y =.w.K Y Y ~ w.t.J Y Y Y M x 0 , , , , , , , , >     ",
"  Y T W Q W ^ 1.Z Y Y Y ! >.( Y Y Y Y ~ P Y Y Y P ! Y Y Y K ( ( Y Y Y K m a 6 , , , 0 5 , , , , :   ",
"H R W Q Q Q _ 5.5.P Y Y Y Y Y G G D D e r w w w w w w w r e D D D S e 3 , , , , , v X.a , , , , , < ",
"G W Q W W Q Q _ ` W W T G e 7 2 1 1 + o @ @ @ @ @ @ @ @ @ + + + + + . ; ; , , , , 5 u 5 , , , , , : ",
"L R W ,.9.) Q Q Q Q W e + @ @ @ @ @ @ @ @ @ @ @ @ @ @ @ @ @ @ @ @ @ @ @ @ . ; , , , , , , # 5 , , : ",
"F Y Y ^ <.] W Q W D 1 @ @ @ @ @ @ @ @ @ & & * * % * * * & @ @ @ @ @ @ @ @ @ + O : , , , , f h 0 , > ",
"  D K Y K Y Y T D + @ @ @ @ @ @ % y s j h z z z z z z z h f g d - $ @ @ @ @ @ @ O : , , , 4 4 , :   ",
"      G Y K N A D + @ @ @ $ y z o.o.X.X...l  .l l l l  . ...X.X.o.X.j = & @ @ @ + : 5 q 6 , , :     ",
"        U I B N Y e 1 @ @ p X.o.X.k ..$.7.&.%.4.4.4.3.%.&.7.#.O.k o.o.X.i @ @ @ . , q a 4 : >       ",
"            I I Y G D < + p X.o.x O.8.9.$.6.a.p.s.s.p.i.6.&.9.8...X.o.o.p @ O . , , 6 4 >           ",
"                  F L L D 7 0 n z +.9.0.$.l *.-.-.-.;.c k @.9.0.+.x h u X ; : : : >                 ",
"                                b i V c #.$.$.@.@.@.@.$.$.O.l j = = 9 X                             ",
"                                                                                                    ",
"                                                                                                    ",
"                                                                                                    ",
"                                                                                                    ",
"                                                                                                    ",
"                                                                                                    ",
"                                                                                                    ",
"                                                                                                    ",
"                                                                                                    ",
"                                                                                                    ",
"                                                                                                    ",
"                                                                                                    ",
"                                                                                                    ",
"                                                                                                    ",
"                                                                                                    "
};
