/* XPM */
static char *_c1338ab493d46fbf91921411ae07072Veo0IFpxcB38UoCG[] = {
/* columns rows colors chars-per-pixel */
"50 50 111 2 ",
"   c black",
".  c #B9B8BB",
"X  c #778380",
"o  c #B0B7B2",
"O  c #C2C2C5",
"+  c #9FB596",
"@  c #9BC289",
"#  c #C2D7B4",
"$  c #7D9972",
"%  c #697062",
"&  c #9FC786",
"*  c #E0F0C6",
"=  c #D1E7AD",
"-  c #93C269",
";  c #365A26",
":  c #82887B",
">  c #AEAEAC",
",  c #9AAA92",
"<  c #E7F5C3",
"1  c #E6F2C1",
"2  c #C7E486",
"3  c #6FAE27",
"4  c #639E36",
"5  c #5F7756",
"6  c #919590",
"7  c #B3B4B4",
"8  c #9CB491",
"9  c #D1DEB8",
"0  c #DBE7BB",
"q  c #D6EC9A",
"w  c #8BC335",
"e  c #74B32D",
"r  c #7CAE51",
"t  c #648C53",
"y  c #5C635C",
"u  c #757679",
"i  c #95AD8A",
"p  c #9CC57E",
"a  c #E8F3B8",
"s  c #B9CC82",
"d  c #626E49",
"f  c #6A9735",
"g  c #88BC52",
"h  c #78A557",
"j  c #586B4F",
"k  c #5A5C59",
"l  c #808B7E",
"z  c #878E80",
"x  c #DDEFB4",
"c  c #D9ED94",
"v  c #90C537",
"b  c #61902C",
"n  c #788565",
"m  c #7C9D65",
"M  c #5E7354",
"N  c #6D726B",
"B  c #809A79",
"V  c #8CBB71",
"C  c #B7C2A7",
"Z  c #B9BCA4",
"A  c #85BD32",
"S  c #81BC2D",
"D  c #91CC3D",
"F  c #81A75D",
"G  c #626660",
"H  c #6B7068",
"J  c #748E6E",
"K  c #84B568",
"L  c #B6DA8B",
"P  c #C5E481",
"I  c #75B02B",
"U  c #506434",
"Y  c #88C63B",
"T  c #86BD4C",
"R  c #77A454",
"E  c #6A6E66",
"W  c None",
"Q  c #A8D084",
"!  c #A3D366",
"~  c #ABD856",
"^  c #6BAB24",
"/  c #81BD3D",
"(  c #859A73",
")  c #7F897A",
"_  c #6F756A",
"`  c #707174",
"'  c #9EA797",
"]  c #86B06D",
"[  c #7DBD3B",
"{  c #5BA020",
"}  c #7BBA35",
"|  c #7FB548",
" . c #719C4F",
".. c #5B6557",
"X. c #777D71",
"o. c #41742C",
"O. c #4B8D1D",
"+. c #75AA47",
"@. c #6F9C4F",
"#. c #586E50",
"$. c #6C7368",
"%. c #6E6B6A",
"&. c #919590",
"*. c #67835D",
"=. c #506547",
"-. c #656B62",
";. c #99999A",
":. c #7E7E81",
">. c #5B5E5D",
",. c #6F6E72",
"<. c #3F3E40",
/* pixels */
"                                                                                                    ",
"                                                                                                    ",
"                                                                                                    ",
"                                                                                                    ",
"                                                                                                    ",
"                                                                                                    ",
"                                                                                                    ",
"                                                                                                    ",
"                                                                                                    ",
"                                                                                                    ",
"                                                                                                    ",
"                                                                                                    ",
"                                                                                                    ",
"                                                                                                    ",
"                                                                                                    ",
"                                                                                                    ",
"                                                                                                    ",
"                                                    .                                               ",
"                                                  X o O                                             ",
"                                                + @ # $ %                                           ",
"                                                & * = - ; : >                                       ",
"                                              , < 1 2 3 4 5 6 7                                     ",
"                                            8 9 0 q w e r t y u                                     ",
"                                          i p a s d f g h j k                                       ",
"                                        l z x c v b n m M N                                         ",
"                                      B V C Z A S D F G H                                           ",
"                                    J K L P I U Y T R E                                             ",
"                                    W Q ! ~ ^ / ( ) _                                               ",
"                                  ` ' ] [ { } |  ...                                                ",
"                                      X.o.O.+.@.#.$.                                                ",
"                                        %.&.*.=.-.                                                  ",
"                                          ;.:.>.                                                    ",
"                                            ,.<.                                                    ",
"                                                                                                    ",
"                                                                                                    ",
"                                                                                                    ",
"                                                                                                    ",
"                                                                                                    ",
"                                                                                                    ",
"                                                                                                    ",
"                                                                                                    ",
"                                                                                                    ",
"                                                                                                    ",
"                                                                                                    ",
"                                                                                                    ",
"                                                                                                    ",
"                                                                                                    ",
"                                                                                                    ",
"                                                                                                    ",
"                                                                                                    "
};
