/* XPM */
static char *_c0b618bb0934fc8eda0e64564bc946dSogAgguXQCTVpnxd[] = {
/* columns rows colors chars-per-pixel */
"50 50 148 2 ",
"   c None",
".  c #6A6A6A",
"X  c gray42",
"o  c #6D6D6D",
"O  c gray44",
"+  c #717171",
"@  c #727272",
"#  c gray45",
"$  c #747474",
"%  c gray46",
"&  c gray47",
"*  c #797979",
"=  c gray48",
"-  c #7B7B7B",
";  c gray49",
":  c #7E7E7E",
">  c gray50",
",  c #609A26",
"<  c #619B27",
"1  c #6E9F3C",
"2  c #6AA134",
"3  c #6BA234",
"4  c #72A143",
"5  c #94AD7B",
"6  c #95AE7D",
"7  c #808080",
"8  c #818181",
"9  c gray51",
"0  c #838383",
"q  c #848484",
"w  c gray52",
"e  c #868686",
"r  c gray53",
"t  c #888888",
"y  c #898989",
"u  c gray54",
"i  c #8B8B8B",
"p  c gray55",
"a  c #8D8D8D",
"s  c #8E8E8E",
"d  c gray56",
"f  c #909090",
"g  c gray57",
"h  c #929292",
"j  c #939393",
"k  c gray58",
"l  c #959595",
"z  c gray59",
"x  c #979797",
"c  c #989898",
"v  c gray60",
"b  c #9A9A9A",
"n  c #9B9B9B",
"m  c gray61",
"M  c #9D9D9D",
"N  c gray62",
"B  c #9F9F9F",
"V  c #A6B597",
"C  c #A7B698",
"Z  c #A9BA98",
"A  c #ABBB9A",
"S  c #A0A0A0",
"D  c gray63",
"F  c #A2A2A2",
"G  c gray64",
"H  c #A4A4A4",
"J  c #A5A5A5",
"K  c gray65",
"L  c #A7A7A7",
"P  c gray66",
"I  c #A9A9A9",
"U  c #AAAAAA",
"Y  c gray67",
"T  c #ACAFA9",
"R  c #ACACAC",
"E  c gray68",
"W  c #AEAEAE",
"Q  c #AFAFAF",
"!  c #ACB1A8",
"~  c #AEB2A9",
"^  c #AEB0AB",
"/  c gray69",
"(  c #B1B1B1",
")  c #B2B2B2",
"_  c gray70",
"`  c #B4B4B4",
"'  c #B4B5B4",
"]  c gray71",
"[  c #B6B6B6",
"{  c #B7B7B7",
"}  c #B7B8B7",
"|  c #B8B9B7",
" . c gray72",
".. c #B9B9B9",
"X. c gray73",
"o. c #BBBBBB",
"O. c #BCBCBC",
"+. c gray74",
"@. c #BEBFBD",
"#. c gray",
"$. c gray75",
"%. c #BFC0BE",
"&. c #C0C0C0",
"*. c #C1C1C1",
"=. c gray76",
"-. c #C3C3C3",
";. c #C4C5C3",
":. c gray77",
">. c #C5C5C5",
",. c #C6C6C6",
"<. c gray78",
"1. c #C8C9C7",
"2. c #C7C7C8",
"3. c #C8C8C8",
"4. c #C9C9C8",
"5. c gray79",
"6. c #CACACA",
"7. c #CBCBCB",
"8. c gray80",
"9. c #CDCDCD",
"0. c #CECECE",
"q. c gray81",
"w. c #D0D0D0",
"e. c gray82",
"r. c #D2D2D2",
"t. c LightGray",
"y. c gray83",
"u. c #D5D5D5",
"i. c gray84",
"p. c #D7D7D7",
"a. c #D8D8D8",
"s. c gray85",
"d. c #DADADA",
"f. c gray86",
"g. c gainsboro",
"h. c #DDDDDD",
"j. c gray87",
"k. c #DFDFDF",
"l. c gray88",
"z. c #E1E1E1",
"x. c #E2E2E2",
"c. c gray90",
"v. c #E6E6E6",
"b. c #E7E7E7",
"n. c gray91",
"m. c #ECECEC",
"M. c #F3F3F3",
"N. c gray99",
/* pixels */
"                                                                                                    ",
"                                          ) X.X.X.X.X.)                                             ",
"                                      ) #.>.6.9.9.9.9.>.#.[                                         ",
"                                  J [ -.9.r.u.a.a.a.u.r.9.>.X.Y                                     ",
"                                F [ -.9.r.a.a.g.g.g.g.a.r.9.>.[ Y                                   ",
"                              m E #.6.r.u.g.g.l.l.l.g.g.a.r.6.-.) J                                 ",
"                              J [ -.9.u.a.g.l.l.l.l.l.g.a.u.9.>.X.Y                                 ",
"                            b Y X.>.9.u.a.g.l.l.l.l.l.g.a.u.9.>.#.E F                               ",
"                            F E X.>.9.r.a.a.g.l.b.l.g.g.a.u.9.>.#.E J                               ",
"                          w F E X.-.6.r.u.a.a.b.N.n.a.a.u.r.9.>.X.E J p                             ",
"                          w F Y [ -.>.9.r.u.u.a.g.a.a.u.r.9.6.-.X.E J y                             ",
"                          0 m J ) } #.;.1.9.9.r.r.r.9.9.6.;.%.| ) J F w                             ",
"                          > b F E 5 < 3 Z >.6.6.9.7.6.6.A 3 < 6 E J b 0                             ",
"                          * h m J ~ 1 V -.-.>.>.6.>.>.-.-.C 4 ~ Y m l *                             ",
"                          # y l F Y T [ X.#.#.-.-.-.#.#.X.[ ~ Y F l y %                             ",
"                            > p l F J E ) [ [ X.X.X.[ [ ) E Y F b p 0                               ",
"                            # 0 p l m F J Y E E E E E Y Y J m l p 0 %                               ",
"                              # 0 y h b m F J J J J J F m b l y 0 %                                 ",
"                                # > w p h l b b b b b l h p w > #                                   ",
"                                  # * 0 w y p p p p p y w 0 * #                                     ",
"                                    o # * > 0 0 0 0 0 > * # o                                       ",
"                                        . o # # # # # o .                                           ",
"                                                                                                    ",
"                                                                                                    ",
"                                    X.6.  l [ ) [ ) [ b   6.#.                                      ",
"                                  m -.u.  F u.a.a.a.a.Y   r.6.Y                                     ",
"                                  J ) J   F g.l.l.l.g.Y   J [ E                                     ",
"                                  [ b   p Y u.g.g.g.a.E l   l X.                                    ",
"                                -.  l   h ) a.l.b.l.a.[ b   h   #.                                  ",
"                                        l ) X.6.r.6.X.[ m                                           ",
"                                -.      F J           E J       >.                                  ",
"                              Y g.m   l F               E F   l g.E                                 ",
"                              6.u.                              9.9.b                               ",
"                            F g.)     l Y #.9.u.b.a.r.-.Y l     E l.Y                               ",
"                            Y u.m     l Y -.r.g.M.g.u.-.E b     b u.[                               ",
"                            Y X.p     l E -.r.g.m.g.u.-.E b       X.) w                             ",
"                          y J b     ) h m E X.>.9.>.#.) F l Y     b Y h                             ",
"                          w m 0   b -.  > 0 y h h h y 0 >   >.F   w m p                             ",
"                            p     b [ 9.  w y y y y y w   r.X.m     l y                             ",
"                                  l E -.6.X.h > > > p X.6.-.) b                                     ",
"                                  y F ) X.[ F       m [ X.[ J p                                     ",
"                                  > h F Y F p       y F Y F h >                                     ",
"                                    0 p h p >       * p h p 0                                       ",
"                                    w h p w %       % w p h y                                       ",
"                                    h J E J p         F E Y h                                       ",
"                                    l Y Y E l         Y Y E b                                       ",
"                                    > m Y m w       0 b Y F 0                                       ",
"                                    y E -.E w       w Y -.) p                                       ",
"                                    > m X.F >         m 6.Y w                                       ",
"                                                                                                    "
};
