/* XPM */
static char *_54f15a860d24445e8b4085510300884dPA2UUx60Ze0jTEs[] = {
/* columns rows colors chars-per-pixel */
"50 50 161 2 ",
"   c None",
".  c #353535",
"X  c #373737",
"o  c gray22",
"O  c #393939",
"+  c #3A3A3A",
"@  c gray23",
"#  c #414141",
"$  c #444444",
"%  c gray27",
"&  c #494949",
"*  c #4B4B4B",
"=  c #4C4C4C",
"-  c gray31",
";  c #515151",
":  c #535353",
">  c #555555",
",  c #565656",
"<  c gray34",
"1  c #585858",
"2  c gray35",
"3  c #5A5A5A",
"4  c #5B5B5B",
"5  c gray36",
"6  c #5D5D5D",
"7  c #5F5F5F",
"8  c #606060",
"9  c gray38",
"0  c #626262",
"q  c gray39",
"w  c #646464",
"e  c #656565",
"r  c gray40",
"t  c #676767",
"y  c #686868",
"u  c DimGray",
"i  c #6A6A6A",
"p  c gray42",
"a  c #6C6C6C",
"s  c #6D6D6D",
"d  c gray43",
"f  c #6F6F6F",
"g  c gray44",
"h  c #717171",
"j  c #727272",
"k  c gray45",
"l  c #747474",
"z  c gray46",
"x  c #767676",
"c  c #777777",
"v  c gray47",
"b  c #797979",
"n  c gray48",
"m  c #7B7B7B",
"M  c #7C7C7C",
"N  c gray49",
"B  c #7E7E7E",
"V  c gray50",
"C  c #808080",
"Z  c #818181",
"A  c gray51",
"S  c #838383",
"D  c #848484",
"F  c gray52",
"G  c #868686",
"H  c gray53",
"J  c #888888",
"K  c #898989",
"L  c gray54",
"P  c #8B8B8B",
"I  c gray55",
"U  c #8D8D8D",
"Y  c #8E8E8E",
"T  c gray56",
"R  c #909090",
"E  c gray57",
"W  c #929292",
"Q  c #939393",
"!  c gray58",
"~  c #959595",
"^  c gray59",
"/  c #979797",
"(  c #989898",
")  c gray60",
"_  c #9A9A9A",
"`  c #9B9B9B",
"'  c gray61",
"]  c #9D9D9D",
"[  c gray62",
"{  c #9F9F9F",
"}  c #A0A0A0",
"|  c gray63",
" . c #A2A2A2",
".. c gray64",
"X. c #A4A4A4",
"o. c #A5A5A5",
"O. c gray65",
"+. c #A7A7A7",
"@. c gray66",
"#. c #A9A9A9",
"$. c #AAAAAA",
"%. c gray67",
"&. c #ACACAC",
"*. c gray68",
"=. c #AEAEAE",
"-. c #AFAFAF",
";. c gray69",
":. c #B1B1B1",
">. c #B2B2B2",
",. c gray70",
"<. c #B4B4B4",
"1. c gray71",
"2. c #B6B6B6",
"3. c #B7B7B7",
"4. c gray72",
"5. c #B9B9B9",
"6. c gray73",
"7. c #BBBBBB",
"8. c #BCBCBC",
"9. c gray74",
"0. c gray",
"q. c gray75",
"w. c #C0C0C0",
"e. c #C1C1C1",
"r. c gray76",
"t. c #C3C3C3",
"y. c gray77",
"u. c #C5C5C5",
"i. c #C6C6C6",
"p. c gray78",
"a. c #C8C8C8",
"s. c gray79",
"d. c #CACACA",
"f. c #CBCBCB",
"g. c gray80",
"h. c #CDCDCD",
"j. c #CECECE",
"k. c gray81",
"l. c #D0D0D0",
"z. c gray82",
"x. c #D2D2D2",
"c. c LightGray",
"v. c gray83",
"b. c #D5D5D5",
"n. c gray84",
"m. c #D7D7D7",
"M. c #D8D8D8",
"N. c gray85",
"B. c #DADADA",
"V. c gray86",
"C. c gainsboro",
"Z. c #DDDDDD",
"A. c gray87",
"S. c #DFDFDF",
"D. c gray88",
"F. c #E1E1E1",
"G. c #E2E2E2",
"H. c gray90",
"J. c gray91",
"K. c gray92",
"L. c #F4F4F4",
/* pixels */
"                                        >.1.4.8.8.8.4.1.                                            ",
"                                    >.8.r.s.s.k.k.k.s.i.r.4.                                        ",
"                                  1.8.i.k.x.n.N.N.n.n.x.s.r.4.>.                                    ",
"                                >.8.i.k.n.N.C.C.C.C.N.n.x.k.r.4.=.                                  ",
"                              @.4.i.k.n.N.C.C.D.D.D.C.N.n.x.s.r.1.@.                                ",
"                            O.>.8.s.x.n.N.C.D.D.D.D.D.C.N.n.k.i.4.=.O.                              ",
"                          ) @.1.r.s.x.n.N.C.D.D.D.D.D.C.N.n.x.i.8.>.O.                              ",
"                          | @.1.r.s.x.n.N.C.C.D.H.D.C.C.N.n.k.i.8.>.O.{                             ",
"                      D D | =.1.r.s.k.x.n.N.C.K.L.D.C.N.n.x.k.i.8.>.O.{                             ",
"                      D D | =.1.8.i.k.x.n.n.N.D.K.C.N.n.x.k.s.r.4.>.O.)                             ",
"                      S S { @.>.4.r.s.k.x.x.n.n.n.n.n.x.k.s.i.8.1.=.| )                             ",
"                      V V ) O.=.1.8.r.s.s.k.k.x.x.x.k.k.s.i.r.4.>.@.{ !                             ",
"                      n n Q { @.>.4.8.r.i.i.s.s.s.s.s.i.i.r.8.1.=.O.) I                             ",
"                      k k I ) | @.>.1.4.8.r.r.i.i.r.r.r.8.4.1.=.O.{ Q D                             ",
"                      p p S I ) | @.=.1.1.4.8.8.8.8.4.4.1.>.=.O.{ ! K V                             ",
"                      w w n D Q ) | O.=.=.>.>.1.1.1.>.>.=.@.O.{ ! K V k                             ",
"                          a n D Q ) { | O.@.@.=.=.=.@.@.O.| ) ! I S k w                             ",
"                          q a n D I ! ) { | | | O.| | { { ! Q K S k p                               ",
"                            q p n S K I Q ! ! ) ) ) ! ! Q K D V k w 5                               ",
"                              5 p l V S D K K I I I K K D V n a q 5                                 ",
"                                5 q a k l n V S S V n n l a w 5 1                                   ",
"                                  1 5 q q 5 1 1 1 1 5 w w 5 1 ,                                     ",
"                                    : , : # . O O . O = 1 ,                                         ",
"                                        , % O O O O # = 5                                           ",
"                                    s.  =.| I p w l { O.  r.s.                                      ",
"                                  i.N.  >.r.k.n.N.n.s.1.O.s.N.i.                                    ",
"                                >.r.8.k Q 4.k.n.N.x.i.O.S Q i.8.                                    ",
"                                r.8.{ l ) 1.i.k.x.k.r.@.K S =.i.i.                                  ",
"                              ) { =.K D O.4.i.k.k.s.r.>.{   ) 4.4.                                  ",
"                              q q I   I @.8.s.x.n.x.i.1.O.    V                                     ",
"                              & O     ! =.r.k.n.C.n.s.4.O.      %                                   ",
"                            { K k     { =.1.>.>.>.>.4.1.=.)   n V Q                                 ",
"                            1.@.S     I k 1 = = & = = w D )   w ! >.4.                              ",
"                          ! @.) k     ! I D S S S D S I ! !     S O.=.                              ",
"                          ) ) D       | >.1.4.4.4.4.4.1.=.{     w I | Q                             ",
"                      a a ! K l     K @.4.r.i.i.i.i.r.r.1.|     , n Q Q                             ",
"                      a a I S p     ! @.4.r.r.r.r.r.r.8.1.| {   : a K Q                             ",
"                      p p D l     { O.) =.8.8.4.4.4.8.4.O.! =.O.  w V K                             ",
"                      p p D n     O.1.a k ! =.=.=.=.@.S k Q >.|   q n K                             ",
"                      p p S     ! O.8.O.V p n ! ! I a k ! 4.1.{     l K                             ",
"                          w     I | 4.i.@.S a k l a k ! 4.i.>.)       a                             ",
"                                D ) >.r.r.O.S q q w ! 1.r.4.@.Q                                     ",
"                                S I O.1.4.=.)     n | >.4.>.{ D                                     ",
"                                  D | >.>.| Q       ) =.>.@.) S                                     ",
"                                  k p w p l D       n k w p n                                       ",
"                                  a w q q a n       a w q w k                                       ",
"                                  V K ) ! I D       D Q ! ! K                                       ",
"                                  D O.i.8.| I       ! =.i.4.)                                       ",
"                                  l | x.r.) V       K =.s.r.I                                       ",
"                                    { x.r.!         D =.s.8.D                                       "
};
