/* XPM */
static char *a0ebc71834f24944a099e4f1bd7a7290QbapLaeOhFPOWDj4[] = {
/* columns rows colors chars-per-pixel */
"50 50 200 2 ",
"   c None",
".  c gray15",
"X  c #282828",
"o  c #2C2C2C",
"O  c gray18",
"+  c gray19",
"@  c #313131",
"#  c gray20",
"$  c #343434",
"%  c #353535",
"&  c gray22",
"*  c #393939",
"=  c #3A3A3A",
"-  c gray24",
";  c #3E3E3E",
":  c gray25",
">  c #444444",
",  c gray27",
"<  c gray28",
"1  c #494949",
"2  c #4B4B4B",
"3  c #4C4C4C",
"4  c gray30",
"5  c #4E4E4E",
"6  c gray31",
"7  c #505050",
"8  c gray32",
"9  c gray33",
"0  c #555555",
"q  c #565656",
"w  c gray34",
"e  c #585858",
"r  c #5A5A5A",
"t  c gray36",
"y  c #5D5D5D",
"u  c gray37",
"i  c #5F5F5F",
"p  c #606060",
"a  c gray38",
"s  c #626262",
"d  c gray39",
"f  c #646464",
"g  c #656565",
"h  c gray40",
"j  c #676767",
"k  c #686868",
"l  c DimGray",
"z  c #6A6A6A",
"x  c gray42",
"c  c #6C6C6C",
"v  c #6D6D6D",
"b  c gray43",
"n  c #6F6F6F",
"m  c gray44",
"M  c #717171",
"N  c #727272",
"B  c gray45",
"V  c #747474",
"C  c gray46",
"Z  c #767676",
"A  c #777777",
"S  c gray47",
"D  c #797979",
"F  c gray48",
"G  c #7B7B7B",
"H  c #7C7C7C",
"J  c gray49",
"K  c #7E7E7E",
"L  c gray50",
"P  c #619A29",
"I  c #639E29",
"U  c #649F2B",
"Y  c #669B31",
"T  c #6B9E38",
"R  c #77A44A",
"E  c #7EAA52",
"W  c #8EB06C",
"Q  c #808080",
"!  c #818181",
"~  c gray51",
"^  c #838383",
"/  c #848484",
"(  c gray52",
")  c #868686",
"_  c gray53",
"`  c #888888",
"'  c #898989",
"]  c gray54",
"[  c #8B8B8B",
"{  c gray55",
"}  c #8D8D8D",
"|  c #8E8E8E",
" . c gray56",
".. c #909090",
"X. c gray57",
"o. c #929292",
"O. c #939393",
"+. c gray58",
"@. c #959595",
"#. c gray59",
"$. c #979797",
"%. c #989898",
"&. c gray60",
"*. c #9A9A9A",
"=. c #9B9B9B",
"-. c gray61",
";. c #9D9D9D",
":. c gray62",
">. c #9F9F9F",
",. c #98B080",
"<. c #9FB08C",
"1. c #A0A0A0",
"2. c gray63",
"3. c #A2A2A2",
"4. c gray64",
"5. c #A4A4A4",
"6. c #A5A5A5",
"7. c gray65",
"8. c #A7A7A7",
"9. c gray66",
"0. c #A8A9A8",
"q. c #A9A9A9",
"w. c #AAAAAA",
"e. c gray67",
"r. c #ACACAC",
"t. c gray68",
"y. c #AEAEAE",
"u. c #AFAFAF",
"i. c #ACB0A9",
"p. c #ADB1A9",
"a. c #ADB0AB",
"s. c gray69",
"d. c #B1B1B1",
"f. c #B2B2B2",
"g. c gray70",
"h. c #B3B4B2",
"j. c #B4B4B4",
"k. c #B5B5B4",
"l. c gray71",
"z. c #B6B6B6",
"x. c #B6B7B6",
"c. c #B7B7B7",
"v. c gray72",
"b. c #B8B8B9",
"n. c #B9B9B9",
"m. c gray73",
"M. c #BBBBBB",
"N. c #BCBFBB",
"B. c #BCBCBC",
"V. c gray74",
"C. c #BDBEBC",
"Z. c #BEBFBD",
"A. c gray",
"S. c gray75",
"D. c #C2C6BF",
"F. c #C0C0C0",
"G. c #C1C1C1",
"H. c #C2C3C1",
"J. c gray76",
"K. c #C3C3C3",
"L. c #C3C4C2",
"P. c gray77",
"I. c #C5C5C5",
"U. c #C6C6C6",
"Y. c gray78",
"T. c #C7C8C6",
"R. c #C8C8C7",
"E. c #C8C8C8",
"W. c gray79",
"Q. c #CACACA",
"!. c #CBCBCB",
"~. c gray80",
"^. c #CDCDCD",
"/. c #CECECE",
"(. c gray81",
"). c #D0D0D0",
"_. c gray82",
"`. c #D2D2D2",
"'. c LightGray",
"]. c gray83",
"[. c gray84",
"{. c #D7D7D7",
"}. c #D8D8D8",
"|. c gray85",
" X c #DADADA",
".X c gray86",
"XX c gainsboro",
"oX c #DDDDDD",
"OX c gray87",
"+X c #DFDFDF",
"@X c gray88",
"#X c #E1E1E1",
"$X c #E2E2E2",
"%X c #E4E4E4",
"&X c gray90",
"*X c #E6E6E6",
"=X c gray91",
"-X c #F1F1F1",
";X c gray96",
":X c #F8F8F8",
/* pixels */
"                                                                                                    ",
"                                          c.A.J.J.J.J.A.c.                                          ",
"                                      g.A.W.~.'.'.'.'.~.P.A.g.                                      ",
"                                  5.c.P.~.'.[.}.}.}.}.[.'.W.J.c.e.                                  ",
"                                4.c.J.~.'.}.}.XXXXXXXX}.[.'.W.J.g.5.                                ",
"                              &.r.A.W.'.[.}.XX@X@X@X@XXX}.[.~.W.A.r.                                ",
"                              5.c.J.~.'.}.XXXX@X@X@X@XXXXX}.'.W.J.c.4.                              ",
"                            +.e.v.P.~.'.}.XXXX@X@X@X@XXXXX}.'.~.J.v.5.4.                            ",
"                            -.r.v.J.W.'.[.}.XXXX*X*XXXXX}.[.'.W.J.v.e.-.                            ",
"                          Q 4.r.v.J.W.~.'.[.}.XX:X;XXX}.[.'.~.W.J.v.e.-.                            ",
"                          Q 4.e.c.A.P.~.'.[.[.}.XXXX}.[.[.'.W.P.A.c.e.1.'                           ",
"                          Q -.5.r.c.A.L.T.~.~.~.'.'.'.~.W.T.J.A.c.g.4.-.Q                           ",
"                          H &.4.r.<.P U W R.W.~.~.~.~.W.D.E I Y a.e.-.+.H                           ",
"                          C X.-.5.a.T ,.A.J.P.P.W.W.P.P.J.N.R R r.5.&.X.C                           ",
"                          b ' +.-.e.a.c.v.A.A.J.J.J.J.A.A.v.h.a.5.-.X.( b                           ",
"                          f H { +.4.5.r.g.c.c.v.v.v.v.c.c.g.r.5.-.+.' G                             ",
"                            N Q { +.-.5.e.r.r.g.g.g.g.r.r.e.4.-.+.{ H z                             ",
"                            s C Q { +.&.-.4.5.e.e.e.5.5.4.-.&.X.' Q N i                             ",
"                              f C Q ' { +.&.&.-.-.-.-.&.&.+.{ ' H N s                               ",
"                              q f N H Q ' { { X.X.X.X.{ ' ' Q G b s                                 ",
"                                q s b C G H Q ( ( ( ( Q H G C z i q                                 ",
"                                  q r s z b C C C C C N b z s r 7                                   ",
"                                    7 q r i s f f f f s i r 7                                       ",
"                                        5 7 7 q q q q 7 5 5                                         ",
"                                      c.  s H s : , b Q     c.                                      ",
"                                    A.}.1 s P.W.W.W.W.A.; G }.c.                                    ",
"                                  -.v.A.X C [.@X@X@X@XW.5 f P.v.                                    ",
"                                  5.e.Q * +.'.XXXXXXXXP.( 1 X.g.r.                                  ",
"                                e.c.-.z ' 4.~.XXXXXXXXP.-.  C g.A.                                  ",
"                                    Q   { e.'.}.XXXX}.W.4.    N b                                   ",
"                                        X.r.&.Q b N ' 5.e.+.    *                                   ",
"                              +.W.r.    -.G $ + $ + + , +.-.    A.A.                                ",
"                              g.XXX.  ' z X o + * $ o . ; '     e.}.4.                              ",
"                            X.'.~.(   C H ( X.&.g.5.&.{ Q H     ' XXv.                              ",
"                            4.XXr.    ' 5.v.~.[.=XXX[.W.c.-.    C W.'.&.                            ",
"                          H r.~.+.    { 5.A.~.}.-X*X}.W.c.4.    s e.'.-.                            ",
"                          H e.c.Q     { e.A.~.XX=X@X}.W.c.5.{     ' A.-.                            ",
"                          H 5.X.    g.z X.&.5.r.A.v.c.e.&.' ( c.  f 5.-.Q                           ",
"                          H +.f   +.A.{ 1 Q ' { X.X.{ ( b 7 v.g.    H -.G                           ",
"                          C C     X.g.W.-., ( ' ' ' ' C q v.J.e.    , X.                            ",
"                          7 .     { r.A.P.-.q C H G z s A.P.v.5.{     ,                             ",
"                                  ( 4.g.v.c.4.z i i H r.v.c.e.&.Q                                   ",
"                                  C { -.e.5.X.N     H -.5.5.&.'                                     ",
"                                  z Q ' X.X.H       b ' X.X.( G                                     ",
"                                    Q X.X.' C       f Q { X.{ C                                     ",
"                                    Q 4.e.5.Q       b X.5.r.-.G                                     ",
"                                    { g.c.g.+.        4.c.c.e.                                      ",
"                                    H -.5.4.'         { 4.4.X.H                                     ",
"                                    G e.J.g.'         &.v.v.-.C                                     ",
"                                    C -.J.e.Q       b X.A.A.&.b                                     "
};
