/* XPM */
static char *_7a93dab3bc8416392d93c8519592613h8WKUs6cnCB1tyAq[] = {
/* columns rows colors chars-per-pixel */
"50 50 172 2 ",
"   c None",
".  c #1B1B1B",
"X  c #222222",
"o  c gray17",
"O  c #2C2C2C",
"+  c gray19",
"@  c gray20",
"#  c #353535",
"$  c #393939",
"%  c #3E3E3E",
"&  c #447A0F",
"*  c gray27",
"=  c #484848",
"-  c #4C4C4C",
";  c #4E4E4E",
":  c gray31",
">  c #505050",
",  c gray32",
"<  c #535353",
"1  c #555555",
"2  c #565656",
"3  c gray34",
"4  c #585858",
"5  c gray35",
"6  c #5A5A5A",
"7  c #5B5B5B",
"8  c gray36",
"9  c #5D5D5D",
"0  c gray37",
"q  c #5F5F5F",
"w  c #606060",
"e  c #626262",
"r  c gray39",
"t  c #646464",
"y  c #656565",
"u  c gray40",
"i  c #676767",
"p  c DimGray",
"a  c #6A6A6A",
"s  c gray42",
"d  c #6C6C6C",
"f  c #6D6D6D",
"g  c gray43",
"h  c gray44",
"j  c #717171",
"k  c #727272",
"l  c gray45",
"z  c #747474",
"x  c gray46",
"c  c #767676",
"v  c #777777",
"b  c gray47",
"n  c #797979",
"m  c gray48",
"M  c #7B7B7B",
"N  c #7C7C7C",
"B  c gray49",
"V  c #7E7E7E",
"C  c gray50",
"Z  c #68864A",
"A  c #68814F",
"S  c #81857E",
"D  c #808080",
"F  c #818181",
"G  c gray51",
"H  c #838383",
"J  c #838581",
"K  c #848484",
"L  c gray52",
"P  c #868686",
"I  c gray53",
"U  c #888888",
"Y  c #898989",
"T  c #8B8B8B",
"R  c #8B8C8C",
"E  c gray55",
"W  c #8D8D8D",
"Q  c #8E8E8E",
"!  c gray56",
"~  c #92958F",
"^  c #909090",
"/  c gray57",
"(  c #929292",
")  c #939393",
"_  c gray58",
"`  c #959595",
"'  c gray59",
"]  c #979797",
"[  c #989898",
"{  c gray60",
"}  c #9A9A9A",
"|  c #9B9B9B",
" . c gray61",
".. c #9D9D9D",
"X. c gray62",
"o. c #9F9F9F",
"O. c #9AA193",
"+. c #9FA09F",
"@. c #A0A19F",
"#. c #A0A0A0",
"$. c gray63",
"%. c #A2A2A2",
"&. c gray64",
"*. c #A4A4A4",
"=. c #A5A5A5",
"-. c gray65",
";. c #A7A7A7",
":. c gray66",
">. c #A9A9A9",
",. c #AAAAAA",
"<. c gray67",
"1. c #ACACAC",
"2. c gray68",
"3. c #AEAEAE",
"4. c #AFAFAF",
"5. c gray69",
"6. c #B1B1B1",
"7. c #B2B2B2",
"8. c gray70",
"9. c #B4B4B4",
"0. c gray71",
"q. c #B6B6B6",
"w. c #B7B7B7",
"e. c gray72",
"r. c #B9B9B9",
"t. c gray73",
"y. c #BBBBBB",
"u. c #BCBCBC",
"i. c gray74",
"p. c gray",
"a. c gray75",
"s. c #C0C0C0",
"d. c #C1C1C1",
"f. c gray76",
"g. c #C3C3C3",
"h. c gray77",
"j. c #C5C5C5",
"k. c #C6C6C6",
"l. c gray78",
"z. c #C8C8C8",
"x. c gray79",
"c. c #CACACA",
"v. c #CBCBCB",
"b. c gray80",
"n. c #CDCDCD",
"m. c #CECECE",
"M. c gray81",
"N. c #D0D0D0",
"B. c gray82",
"V. c #D2D2D2",
"C. c LightGray",
"Z. c gray83",
"A. c #D5D5D5",
"S. c gray84",
"D. c #D7D7D7",
"F. c #D8D8D8",
"G. c gray85",
"H. c #DADADA",
"J. c gray86",
"K. c gainsboro",
"L. c #DDDDDD",
"P. c gray87",
"I. c #DFDFDF",
"U. c gray88",
"Y. c #E1E1E1",
"T. c #E2E2E2",
"R. c #E6E6E6",
"E. c gray92",
"W. c #EFEFEF",
"Q. c gray94",
"!. c #F3F3F3",
"~. c #F6F6F6",
/* pixels */
"                                      3.0.e.e.e.e.0.                                                ",
"                                  6.e.k.v.n.n.n.n.v.s.e.3.                                          ",
"                              ;.0.s.v.N.D.D.H.H.D.D.n.v.s.6.                                        ",
"                            $.0.s.v.N.D.H.L.L.L.L.H.D.N.v.i.6.                                      ",
"                           .6.i.v.N.D.H.L.U.U.U.L.L.H.D.n.k.i.3.                                    ",
"                          >.e.k.n.D.H.L.L.U.U.U.U.L.L.H.N.v.s.0.;.                                  ",
"                        [ 3.i.k.n.D.H.H.H.H.L.L.D.H.L.H.D.n.k.e.>. .                                ",
"                      T $.6.i.k.n.D.D.D.L.U.U.U.U.H.N.D.N.n.k.e.3. .                                ",
"                      W $.6.i.k.n.N.N.H.L.L.Q.E.L.L.H.n.N.v.k.e.6.$.^                               ",
"                      W $.6.e.s.v.v.N.D.H.H.~.W.H.H.D.N.v.v.s.e.3.$.W                               ",
"                      W $.3.e.s.k.k.N.N.D.D.H.D.D.D.N.n.k.k.i.0.3. .W                               ",
"                      J ~ @.>.6.i.k.v.n.N.N.N.N.N.N.n.v.s.s.e.6.>. .T                               ",
"                    c A & O.6.e.i.s.k.v.v.n.n.n.n.v.v.k.i.i.0.3.$.] G                               ",
"                      S Z +.>.6.0.e.i.s.k.k.k.k.k.k.s.i.0.e.3.;. .^ n                               ",
"                      n R [ $.>.0.3.e.e.i.i.s.s.i.i.e.0.6.3.;. .] T j                               ",
"                      g G ^ [ $.>.3.3.0.0.e.e.e.e.0.0.3.6.;.$.] W V i                               ",
"                      i c L ^ [ $.>.;.>.3.6.6.6.6.3.>.>.;. .] W G j                                 ",
"                        p n L W ]  .;.$.$.;.>.>.;.$.;.$.[ ] W G c e                                 ",
"                        q g n L T ^ ]  .;.$.$.$.;.;.[ ] ^ T G c i 4                                 ",
"                          4 p c V L T W ^ ^ ^ ^ ^ W W T G V j i 4                                   ",
"                            4 i j n V G L L L L L G G n c g e 3                                     ",
"                              3 q i g j c c n n c c j g i q 3                                       ",
"                                , 3 q e i i p p i i e q = ;                                         ",
"                                  ; , , 3 4 4 4 4 ; $ o .                                           ",
"                                          ; , * n ^ T j %                                           ",
"                                              i.k.H.D.i.k.                                          ",
"                                            e.e.s.H.U.s.i.;.                                        ",
"                                           .n.e.>.N.U.e.6.$.                                        ",
"                                          6.n.n.;.n.R.k.3. .                                        ",
"                                        ] k.N.D.0. .n.6.$. .                                        ",
"                                        ^ v.N.D.v.c = c 3.;.                                        ",
"                                          e.D.H.6.] ; >.e.0.$.                                      ",
"                                            N.N.[ n.e.i.n.v.;.                                      ",
"                                            L ;.6.n.s.$.s.V                                         ",
"                                        ] 0.k.T e.U.k.W 0.[                                         ",
"                                         .i.s.T s.Q.s.L k. .c                                       ",
"                                        >.i.e.T 0.H.6.T s.]                                         ",
"                                      ^ 0.k.e.L i.D. .^ i.W                                         ",
"                                      p V ^ ^ V 6.0.G >.i.V                                         ",
"                                        e V W j ;.;.c i.k.]                                         ",
"                                          i ] c  .[ L s.k.3.                                        ",
"                                            W 4 c V  .s.i.>.                                        ",
"                                            ; # + 3 3.e.0.$.                                        ",
"                                            i + X q 3.6.>.^                                         ",
"                                              O X j ;.3.>.W                                         ",
"                                              q n ] ] ^ >.T                                         ",
"                                                n  .$. .]                                           ",
"                                                W 6.i.e.i.^                                         ",
"                                              $.>.3.6.[ 0.W                                         ",
"                                            ;.e.n.H.L.n.e.[                                         "
};
