/* XPM */
static char *e62aa24643af439dfc4f97284f2338639N00wWYqKgmTGad1[] = {
/* columns rows colors chars-per-pixel */
"50 50 169 2 ",
"   c None",
".  c #2A2A2A",
"X  c gray18",
"o  c gray19",
"O  c gray20",
"+  c gray22",
"@  c gray25",
"#  c gray26",
"$  c #464646",
"%  c gray28",
"&  c #4E4E4E",
"*  c #535353",
"=  c #555555",
"-  c #565656",
";  c gray34",
":  c #585858",
">  c gray35",
",  c #5B5B5B",
"<  c gray36",
"1  c #5D5D5D",
"2  c gray37",
"3  c #5F5F5F",
"4  c #6E7E5F",
"5  c #606060",
"6  c gray38",
"7  c #626262",
"8  c gray39",
"9  c #646464",
"0  c #656565",
"q  c gray40",
"w  c #676767",
"e  c #686868",
"r  c DimGray",
"t  c gray42",
"y  c #6C6C6C",
"u  c #6D6D6D",
"i  c gray43",
"p  c #6F6F6F",
"a  c #6F7D61",
"s  c gray44",
"d  c #717171",
"f  c #727272",
"g  c gray45",
"h  c #747474",
"j  c #747574",
"k  c gray46",
"l  c #767676",
"z  c #777777",
"x  c #777A73",
"c  c #797A76",
"v  c gray47",
"b  c #797979",
"n  c #7B7B7B",
"m  c #7C7C7C",
"M  c gray49",
"N  c #7E7E7E",
"B  c #728B59",
"V  c #738B5C",
"C  c #808080",
"Z  c #818181",
"A  c gray51",
"S  c #838383",
"D  c #848484",
"F  c #848584",
"G  c gray52",
"H  c #868686",
"J  c gray53",
"K  c #868C80",
"L  c #888888",
"P  c #888988",
"I  c #898989",
"U  c gray54",
"Y  c #8B8B8B",
"T  c gray55",
"R  c #8D8D8D",
"E  c #8E8E8E",
"W  c gray56",
"Q  c #919C87",
"!  c #959F8A",
"~  c #909090",
"^  c gray57",
"/  c #929292",
"(  c #939393",
")  c gray58",
"_  c #959595",
"`  c gray59",
"'  c #979797",
"]  c #969994",
"[  c #989898",
"{  c gray60",
"}  c #9A9A9A",
"|  c #9B9B9B",
" . c gray61",
".. c #9D9D9D",
"X. c gray62",
"o. c #9F9F9F",
"O. c #A0A0A0",
"+. c gray63",
"@. c #A2A2A2",
"#. c gray64",
"$. c #A4A4A4",
"%. c #A5A5A5",
"&. c gray65",
"*. c #A7A7A7",
"=. c gray66",
"-. c #A8A9A8",
";. c #A9A9A9",
":. c #AAAAAA",
">. c gray67",
",. c #ACACAC",
"<. c gray68",
"1. c #AEAEAE",
"2. c #AFAFAF",
"3. c gray69",
"4. c #B1B1B1",
"5. c #B2B2B2",
"6. c gray70",
"7. c #B4B4B4",
"8. c gray71",
"9. c #B6B6B6",
"0. c #B7B7B7",
"q. c gray72",
"w. c #B9B9B9",
"e. c gray73",
"r. c #BBBBBB",
"t. c #BCBCBC",
"y. c gray74",
"u. c gray",
"i. c gray75",
"p. c #C0C0C0",
"a. c #C1C1C1",
"s. c gray76",
"d. c #C3C3C3",
"f. c gray77",
"g. c #C5C5C5",
"h. c #C6C6C6",
"j. c gray78",
"k. c #C8C8C8",
"l. c gray79",
"z. c #CACACA",
"x. c #CBCBCB",
"c. c gray80",
"v. c #CDCDCD",
"b. c #CECECE",
"n. c gray81",
"m. c #D0D0D0",
"M. c gray82",
"N. c #D2D2D2",
"B. c LightGray",
"V. c gray83",
"C. c #D5D5D5",
"Z. c gray84",
"A. c #D7D7D7",
"S. c #D8D8D8",
"D. c gray85",
"F. c #DADADA",
"G. c gray86",
"H. c gainsboro",
"J. c #DDDDDD",
"K. c gray87",
"L. c #DFDFDF",
"P. c gray88",
"I. c #E1E1E1",
"U. c #E2E2E2",
"Y. c #E6E6E6",
"T. c gray91",
"R. c #EAEAEA",
"E. c gray92",
"W. c gray96",
/* pixels */
"                                              0.r.r.0.0.5.                                          ",
"                                              0.r.r.0.0.5.                                          ",
"                                        5.r.h.l.b.b.b.l.h.i.5.                                      ",
"                                      0.d.l.N.A.A.D.A.A.N.b.d.r.,.                                  ",
"                                  :.0.d.l.N.D.D.J.J.J.D.D.N.b.h.r.:.                                ",
"                                  5.i.l.N.A.D.J.P.P.P.J.J.D.N.l.d.5.&.                              ",
"                                :.r.d.b.A.D.J.J.J.J.J.J.J.D.A.b.h.r.:...                            ",
"                              ..,.r.h.b.A.D.A.D.J.J.J.D.D.D.A.b.h.i.,...                            ",
"                              O.,.i.h.b.N.N.A.J.J.P.P.J.D.A.N.b.h.i.5.O./                           ",
"                            / O.,.r.h.l.b.N.D.J.T.W.T.J.D.A.b.l.h.i.5.O./                           ",
"                            E ..,.r.d.l.l.N.A.A.J.Y.J.D.A.N.b.l.d.r.5.O.E Z                         ",
"                            U ..:.0.i.d.l.b.N.N.A.A.A.N.N.b.l.d.r.5.:.[ U N                         ",
"                            D [ &.5.r.i.h.l.b.b.b.b.b.b.b.l.d.i.r.5.! B 4 c                         ",
"                            N / O.:.5.0.i.d.h.l.l.l.l.l.h.d.i.r.0.,.Q V a l                         ",
"                            l U [ O.:.0.0.r.i.d.d.d.d.d.i.r.0.5.,.&.] K x u                         ",
"                            u Z / [ O.,.,.5.0.r.r.r.r.r.0.5.5.,.&.../ D l 0                         ",
"                            5 l D / [ O.:.:.,.5.5.5.5.5.,.:.:.O.[ / U v r                           ",
"                              0 v D E ' ..&.&.&.:.:.:.&.&.&.O.[ / U N u                             ",
"                              1 r v Z E / [ ..O.O.O.O.O...[ ' E D N u 5                             ",
"                                1 r l N D U E ' ' ' ' ' / U D Z v u 5                               ",
"                                  1 0 u l N Z D D D D D Z N v f r 1                                 ",
"                                    , 5 0 u f l l v v l f u r 5 ,                                   ",
"                                      # $ = 1 0 0 0 0 0 5 1 , =                                     ",
"                                        o $ , 5 , , = = = *                                         ",
"                                        v D [ [ D f                                                 ",
"                                      5.0.l.A.b.r.5.                                                ",
"                                      5.,.N.J.b.0.i.5.                                              ",
"                                      :.&.N.J.i.0.l.r.                                              ",
"                                    U &.&.N.N.,.d.b.h.:.                                            ",
"                                    E :.O.O.' &.l.N.l.:.                                            ",
"                                    ..5.,.l 0 O.b.A.l.:.                                            ",
"                                    :.d.h.[ ..:.d.b.r.                                              ",
"                                      0.h.,.l.i.,.0.[                                               ",
"                                      / ,.O.N.l...&.&...                                            ",
"                                    Z ,.0...A.N.O.5.i.:.                                            ",
"                                    v &.r./ l.N.O.,.i.5...                                          ",
"                                    f O.i.U 0.b...&.r.5.'                                           ",
"                                      ..r./ O.i.' ' O.' Z                                           ",
"                                      :.d...' :.E U Z f                                             ",
"                                      0.h.,.E [ N U v                                               ",
"                                      5.i.r.D v 1 l l                                               ",
"                                    U &.0.0.U # X $                                                 ",
"                                      [ :.,.' # . &                                                 ",
"                                      [ &.&...1 + o                                                 ",
"                                      / O.E ..U u                                                   ",
"                                        :.:.,.'                                                     ",
"                                      O.r.5.r.&.                                                    ",
"                                      [ ,.:.r.i.0.O.                                                ",
"                                      &.h.T.W.T.b.0.[                                               ",
"                                                                                                    "
};
