/* XPM */
static char *_74ea092278648969fbed51eaf2e4b73cPhIjkJZHMF1NDS5[] = {
/* columns rows colors chars-per-pixel */
"50 50 200 2 ",
"   c black",
".  c #FCFAEB",
"X  c None",
"o  c #F87F5E",
"O  c #FBE7C7",
"+  c #0A2157",
"@  c #0B1E46",
"#  c #F6A780",
"$  c #073D77",
"%  c #0A529E",
"&  c #0B2C6B",
"*  c #F79671",
"=  c #F8E1CD",
"-  c #F8C6A3",
";  c #FABD92",
":  c #F04C42",
">  c #13355C",
",  c #110717",
"<  c #085B87",
"1  c #0A1232",
"2  c #FCDBB6",
"3  c #EB4031",
"4  c #D11F28",
"5  c #1DB9E7",
"6  c #9D0309",
"7  c #04B3BE",
"8  c #CFF1F8",
"9  c #710916",
"0  c #F02C26",
"q  c #084A68",
"w  c #F41312",
"e  c #2E2549",
"r  c #D80B0F",
"t  c #0AD5E3",
"y  c #72AACA",
"u  c #871D4E",
"i  c #261134",
"p  c #F56648",
"a  c #443961",
"s  c #FCF5E6",
"d  c #6B0F32",
"f  c #B70712",
"g  c #067E97",
"h  c #C2332E",
"j  c #1AEAF4",
"k  c #D2FBF9",
"l  c #9F1734",
"z  c #DE6E54",
"x  c #3B0C6D",
"c  c #0B3C85",
"v  c #ADD7E3",
"b  c #CC635D",
"n  c #C11722",
"m  c #8F524A",
"M  c #07F2F3",
"N  c #08AAE6",
"B  c #324C6C",
"V  c #1369A4",
"C  c #DF262D",
"Z  c #42121E",
"A  c #FBD9BB",
"S  c #9D3040",
"D  c #55A8D0",
"F  c #4A4BAA",
"G  c #0672C0",
"H  c #B74143",
"J  c #644474",
"K  c #0F89D6",
"L  c #2FD1E7",
"P  c #5B1A52",
"I  c #77ECF4",
"U  c #22227D",
"Y  c #FCE0C1",
"T  c #1AAEBA",
"R  c #0788BA",
"E  c #494059",
"W  c #546F7B",
"Q  c #FBE3C4",
"!  c #DC8977",
"~  c #E3B5C1",
"^  c #F9E0CC",
"/  c #AE634F",
"(  c #4B0A32",
")  c #212C68",
"_  c #E4C4BF",
"`  c #84C7D6",
"'  c #8C071F",
"]  c #A1CBC2",
"[  c #9D7366",
"{  c #EAA79E",
"}  c #A7BBCF",
"|  c #3AE5F3",
" . c #1F1A3A",
".. c #F9DAB9",
"X. c #A33A60",
"o. c #66B4AF",
"O. c #552C3E",
"+. c #144C87",
"@. c #128AA6",
"#. c #DCABA5",
"$. c #985383",
"%. c #2963ED",
"&. c #4E8FA1",
"*. c #286484",
"=. c #E8F0EF",
"-. c #D33648",
";. c #64DAF2",
":. c #BDE5EC",
">. c #3077A8",
",. c #6A789C",
"<. c #3CB4E1",
"1. c #C14A57",
"2. c #3A526D",
"3. c #B7E2E4",
"4. c #726F8A",
"5. c #1A3F6E",
"6. c #FCE7C9",
"7. c #3C6B8A",
"8. c #FAF8EA",
"9. c #7F3D4B",
"0. c #CCE4DE",
"q. c #48C0F0",
"w. c #1434C3",
"e. c #E2FBFC",
"r. c #641B99",
"t. c #C59384",
"y. c #740C64",
"u. c #4376AE",
"i. c #F15A53",
"p. c #68313C",
"a. c #A85B86",
"s. c #E99F87",
"d. c #4E727F",
"f. c #7BDAEE",
"g. c #6F6171",
"h. c #466A90",
"j. c #F4C5A9",
"k. c #D730A8",
"l. c #41245C",
"z. c #32334A",
"x. c #7D178B",
"c. c #2C3AA5",
"v. c #91ECF5",
"b. c #D36163",
"n. c #5593B3",
"m. c #4CBBC2",
"M. c #2E4A78",
"N. c #241523",
"B. c #96EBF3",
"V. c #A5F5F5",
"C. c #6D5ED5",
"Z. c #F4F2E4",
"A. c #A41DA1",
"S. c #4E3B90",
"D. c #2F95AC",
"F. c #6B8F9D",
"G. c #A3E9F2",
"H. c #2684C9",
"J. c #55DBF2",
"K. c #E56A6E",
"L. c #4CA4D5",
"P. c #8FF0EE",
"I. c #B1616D",
"U. c #6D7D9B",
"Y. c #3F52BC",
"T. c #65B9D8",
"R. c #501AE5",
"E. c #A4A1D8",
"W. c #3A278F",
"Q. c #2DE8ED",
"!. c #D8856F",
"~. c #88A5A3",
"^. c #865D70",
"/. c #597DA2",
"(. c #2AC2DB",
"). c #AAE5ED",
"_. c #96A8CF",
"`. c #7E5CBE",
"'. c #AB8D9A",
"]. c #DC484D",
"[. c #8A474D",
"{. c #C67998",
"}. c #F5A386",
"|. c #A14647",
" X c #9E8B8B",
".X c #408DB8",
"XX c #E170CA",
"oX c #A65BD7",
"OX c #E483CC",
"+X c #797682",
"@X c #9D6DA7",
"#X c #7B80AC",
"$X c #F4AC90",
"%X c #F5EEE6",
"&X c #64B5E4",
"*X c #A3AFBD",
"=X c #559BB3",
"-X c #59EEF3",
";X c #819EE0",
":X c #EAFCFC",
/* pixels */
"                    ;.L v.8                                                                         ",
"                    8 G.3.8                 ~ j.A ....6.Z.8.s                   B.P.e.              ",
"                      ~ 1.b.{         =.e.G.J.3.#.; 2 X X X %X8.s s         =.y ` -X:X              ",
"                        K.C 0 K.    e.v.-Xj j j ] _ O X X . . . X %X8.s   =.` &.t.P.8.              ",
"                          $Xw w ].` L t M M L ] 0.. . X X . . . O . . Z._.u.V X.!.{                 ",
"                          = i.w w 4.7 7 7 D.o.] 0.. . . X . X O 2 X . . 0.h.P S I.                  ",
"                            }.0 r d V V h.F.~.] 0.. . . X O ; * o ; X . . _ $.{.~                   ",
"                            f.u.a U U a J  Xt.#._ X . . . - o 3 o o O . . . . Z.                    ",
"                            J.K c.U x P u b b : * 2 X . . O p 0 3 p X . . . X Y Q                   ",
"                          ~ oXF F U x d l h C 3 * - _ X . X - p p - . . . X 2 ; ; ^                 ",
"                        I.^.A.A.l P d ' f f 0 / >.5 | I 0.X X X X . . X - ] &.m.] ..=               ",
"                        1.$.P i X.4 ' f 6 f m q N | -Xk V.O . X X X X - F.T j | I V.=.              ",
"                        ` *.@ , O.C f f 6 n a +.t M M | j ] X . . X 2 z R t j k k V.v.              ",
"                      v L.@.&.i , C f 6 6 h > R M M M M t o.O . X X # m R 5 -XV.k k P.v             ",
"                      v (.@.m.q , -.l 6 6 4 > R M M t 5 R F.2 X X O o 9.G N 5 j I I L y             ",
"                      8 (.% q q e -.' 6 6 r O.$ K N K G % [ - X O O o S G N N N 5 j N .X            ",
"                      ~ #XW.+ + J u d ' ' f h i c < $ $ B ! O X X X # h % %.%.%.K 5 H.y             ",
"                      { k.x.F C.A.y.y.y.d ' r h O.@ + a z ; O X X X - 3 J w.R.w.w.w.Y.v             ",
"                      ^ _ k.x.A.x.r.C.C.y.l f r w 3 3 p ; 2 2 O X O - o 4 J U c w.c.,.              ",
"                      ~ XXk.x U x x C.;Xr.u l n 4 0 3 o ; - 2 O O 2 - # 3 r X.F F #.                ",
"                        OXk.x W.W.c.F C.F y.l 4 : b o.! # ; - - - ; ; * p 0 r 4 -.s.                ",
"                        =.%XF H.K 7 7 7 7 T 4.X.-.X.&.b p o * ! 0._ o o 3 [ 4.3 p ..                ",
"                        =.=.;.t N t | t j L @.*.u n C : : 3 0 S 4.! : : w m [ : # Q                 ",
"                            B.J.t t M M M t R V a 6 n 4 4 4 r f l C 0 w w r w : A =                 ",
"                              8 D (.Q.Q.(.g > + 1 Z 9 9 9 9 9 9 6 h 4 4 4 4 i.j.=                   ",
"                                    '.@XE + 1 1 , , 1 @ > > @ e N.z.I.I.{ = s                       ",
"                            f.;.q./.r.x i i i , , , 1 > q q @ d ].j.=.                              ",
"                          B.5 G + 1 1 @ @ e ( d O.e B D.m.o.[ z p # j.= +Xg.{ =                     ",
"                        v J.% & + % + + + $ P S H b ! _ 2 2 ; - - ; * ^ E S o s.^                   ",
"                        E.F + $ G 5 V 1 + +.h.-.: # * z z * * k k V.] #.i S : # - =                 ",
"                        _.c.+ c 4.-.h.@ $ < @.b o * h W D.z o I V.V.~.- , l : : * ^                 ",
"                        E c & $ 9.C a @ $ < 7  Xo o h J W C 3 F.&.&.m ; e P X.-.#.^                 ",
"                  y D #X@ @ & +.& > @ +.$ g 7 ~.o # * 3 3 3 i a B q a !  XP x.$.OX=                 ",
"                8 <.K >.+ @ > u.+.& $ & q g 7 o.* # o : z 3 e 4.*.*.B ! Y l.P J @X'.                ",
"                ;.5 K % $ @ z.v y c @ @ q g 7 m.# # o p * : n H H H h z O ,.5.@ p.!.Q =             ",
"              B.5 K % P a & + 7.  H.+ + q g 7 T ! * * # # z b b -.: p o 2 } 5.1 / # 2 6.=           ",
"              ;.N G B Z 9 P $ 7.  <.% $ q < 7 T z p S B / > g g O.p : o 2 = N.> / # #._ Q           ",
"              Q.N G a Z 9 P V .X  q.G % q q g T b : n 9.[ < 7 7 a 0 0 o 2 s M.% J * * - Y s         ",
"              <.V V +.d d +.V y   v D C.U $ > B 9.H h h H S 9.H H C 3 p $X  y K V [ ; 2 Y           ",
"              G.L 4.e c % V 7.      } oXr.U + e l f f 6 6 f f r r w w o {     q.N D.t.m t.~         ",
"            :.] o. XP i e }           E.`.Y.S.& i Z Z Z Z ( d d 9 |.b.{       f.<.V 1 e # 6.~       ",
"            U.>.h.>.u + 1 E         y E E E g.) ) @ > < < $ $ + 1 g.          y 2.1 + B / # }.      ",
"            a.S.J X.a & @ M.'.    8 n.F ( ( d p.E  .d.T.` B 1 , , Z [.'.      7.*.q >.< a 3 b.      ",
"            T.*.W.V < 5.n.> p.g.  f.H.& J ( d 9 N.}     8 =X@ 1 Z 9 6 1.      ,.M.B D @.*.a [.      ",
"            b.J h.< +.2.} M.l./.  ` D.V +.d ' n f I.    f.*.@ 1 e 6 r 0 {       d.B E.W  XW '.      ",
"            `.{.W =XJ E   +X2.,.8 -XR $ % u C p o i.s   D < & > > f 0 o $X      /.>._.^.s.u.U.      ",
"            } =.B 2.^.g.        :.5 % & % J 4 m m |.^   <.V V & > b m [ s.      8 T.T.U.d.y y       ",
"          8 8 B.*.n.n.D ;.;.q.q.q.H.& & $ u 9 + + O.*XD L.% +.@ O.l , Z s.^ ^ = = = = v }           ",
"      ).3.3.3.I I | | L 5 5 K K G % & + & S i + + O.B % c $ @ @ S , , 9 - O 2 Y Y Y Y ....6.Q 8.^   ",
"      v :.:.).).).v.G.&X&X&XL.u.Y.M.l.l.l.|. . .l. .) ) ) ) ) z.p. . .1.A A A A A A Q Q Q ^ = s s   "
};
